<?xml version="1.0" encoding="utf-8" standalone="no"?>
<!DOCTYPE svg PUBLIC "-//W3C//DTD SVG 1.1//EN"
  "http://www.w3.org/Graphics/SVG/1.1/DTD/svg11.dtd">
<svg xmlns:xlink="http://www.w3.org/1999/xlink" width="324pt" height="216pt" viewBox="0 0 324 216" xmlns="http://www.w3.org/2000/svg" version="1.1">
 <metadata>
  <rdf:RDF xmlns:dc="http://purl.org/dc/elements/1.1/" xmlns:cc="http://creativecommons.org/ns#" xmlns:rdf="http://www.w3.org/1999/02/22-rdf-syntax-ns#">
   <cc:Work>
    <dc:type rdf:resource="http://purl.org/dc/dcmitype/StillImage"/>
    <dc:date>2024-02-14T11:40:11.796160</dc:date>
    <dc:format>image/svg+xml</dc:format>
    <dc:creator>
     <cc:Agent>
      <dc:title>Matplotlib v3.5.3, https://matplotlib.org/</dc:title>
     </cc:Agent>
    </dc:creator>
   </cc:Work>
  </rdf:RDF>
 </metadata>
 <defs>
  <style type="text/css">*{stroke-linejoin: round; stroke-linecap: butt}</style>
 </defs>
 <g id="figure_1">
  <g id="patch_1">
   <path d="M 0 216 
L 324 216 
L 324 0 
L 0 0 
L 0 216 
z
" style="fill: none"/>
  </g>
  <g id="axes_1">
   <g id="patch_2">
    <path d="M 39.834524 199.54 
L 284.165476 199.54 
L 284.165476 12.96 
L 39.834524 12.96 
L 39.834524 199.54 
z
" style="fill: none"/>
   </g>
   <g id="PolyCollection_1">
    <defs>
     <path id="ma90d0b99aa" d="M 62.046429 -91.980476 
L 62.046429 -91.980476 
L 62.49178 -86.203817 
L 62.937132 -84.09555 
L 63.382483 -82.590919 
L 63.827834 -81.397745 
L 64.273186 -80.402937 
L 64.718537 -79.547135 
L 65.163889 -78.797997 
L 65.60924 -78.132632 
L 66.054592 -77.5344 
L 66.499943 -76.990927 
L 66.945295 -76.498155 
L 67.390646 -76.044905 
L 67.835998 -75.628474 
L 68.281349 -75.242596 
L 68.726701 -74.886746 
L 69.172052 -74.554352 
L 69.617404 -74.245651 
L 70.062755 -73.95822 
L 70.508107 -73.688778 
L 70.953458 -73.436054 
L 71.39881 -73.200072 
L 71.844161 -72.97913 
L 72.289512 -72.771392 
L 72.734864 -72.576006 
L 73.180215 -72.392189 
L 73.625567 -72.219216 
L 74.070918 -72.056419 
L 74.51627 -71.90318 
L 74.961621 -71.758927 
L 75.406973 -71.623211 
L 75.852324 -71.495531 
L 76.297676 -71.375254 
L 76.743027 -71.261966 
L 77.188379 -71.15528 
L 77.63373 -71.054834 
L 78.079082 -70.960464 
L 78.524433 -70.871753 
L 78.969785 -70.788364 
L 79.415136 -70.71001 
L 79.860488 -70.636423 
L 80.305839 -70.567349 
L 80.75119 -70.502552 
L 81.196542 -70.441808 
L 81.641893 -70.384905 
L 82.087245 -70.331647 
L 82.532596 -70.281844 
L 82.977948 -70.23532 
L 83.423299 -70.192231 
L 83.868651 -70.152256 
L 84.314002 -70.115061 
L 84.759354 -70.0805 
L 85.204705 -70.048437 
L 85.650057 -70.018742 
L 86.095408 -69.991292 
L 86.54076 -69.966315 
L 86.986111 -69.94346 
L 87.431463 -69.922476 
L 87.876814 -69.903261 
L 88.322166 -69.88572 
L 88.767517 -69.869759 
L 89.212868 -69.855687 
L 89.65822 -69.84299 
L 90.103571 -69.831572 
L 90.548923 -69.821358 
L 90.994274 -69.812273 
L 91.439626 -69.804518 
L 91.884977 -69.797761 
L 92.330329 -69.791877 
L 92.77568 -69.786804 
L 93.221032 -69.782499 
L 93.666383 -69.779094 
L 94.111735 -69.77627 
L 94.557086 -69.773974 
L 95.002438 -69.772156 
L 95.447789 -69.770845 
L 95.893141 -69.769929 
L 96.338492 -69.769287 
L 96.783844 -69.768875 
L 97.229195 -69.768664 
L 97.674546 -69.768596 
L 98.119898 -69.768572 
L 98.565249 -69.768552 
L 99.010601 -69.768497 
L 99.455952 -69.768292 
L 99.901304 -69.767917 
L 100.346655 -69.767338 
L 100.792007 -69.766519 
L 101.237358 -69.765247 
L 101.68271 -69.763605 
L 102.128061 -69.761562 
L 102.573413 -69.759079 
L 103.018764 -69.75585 
L 103.464116 -69.75206 
L 103.909467 -69.747679 
L 104.354819 -69.742642 
L 104.80017 -69.736592 
L 105.245522 -69.729795 
L 105.690873 -69.722223 
L 106.136224 -69.713743 
L 106.581576 -69.704022 
L 107.026927 -69.693369 
L 107.472279 -69.681756 
L 107.91763 -69.668943 
L 108.362982 -69.654699 
L 108.808333 -69.639338 
L 109.253685 -69.622831 
L 109.699036 -69.604782 
L 110.144388 -69.585153 
L 110.589739 -69.564216 
L 111.035091 -69.541942 
L 111.480442 -69.517739 
L 111.925794 -69.491838 
L 112.371145 -69.464431 
L 112.816497 -69.435485 
L 113.261848 -69.404185 
L 113.7072 -69.371087 
L 114.152551 -69.336274 
L 114.597902 -69.299703 
L 115.043254 -69.260337 
L 115.488605 -69.219069 
L 115.933957 -69.175859 
L 116.379308 -69.130547 
L 116.82466 -69.082211 
L 117.270011 -69.031733 
L 117.715363 -68.979067 
L 118.160714 -68.923969 
L 118.606066 -68.865566 
L 119.051417 -68.804756 
L 119.496769 -68.741488 
L 119.94212 -68.675507 
L 120.387472 -68.605844 
L 120.832823 -68.533482 
L 121.278175 -68.458359 
L 121.723526 -68.380335 
L 122.168878 -68.298105 
L 122.614229 -68.212846 
L 123.05958 -68.124488 
L 123.504932 -68.032958 
L 123.950283 -67.936943 
L 124.395635 -67.837299 
L 124.840986 -67.734173 
L 125.286338 -67.627477 
L 125.731689 -67.516403 
L 126.177041 -67.400709 
L 126.622392 -67.281095 
L 127.067744 -67.157459 
L 127.513095 -67.029691 
L 127.958447 -66.89625 
L 128.403798 -66.75821 
L 128.84915 -66.615623 
L 129.294501 -66.468362 
L 129.739853 -66.316269 
L 130.185204 -66.157596 
L 130.630556 -65.993771 
L 131.075907 -65.824641 
L 131.521259 -65.650044 
L 131.96661 -65.469811 
L 132.411961 -65.282604 
L 132.857313 -65.088872 
L 133.302664 -64.888902 
L 133.748016 -64.682489 
L 134.193367 -64.469419 
L 134.638719 -64.249466 
L 135.08407 -64.02136 
L 135.529422 -63.785319 
L 135.974773 -63.541622 
L 136.420125 -63.289992 
L 136.865476 -63.03014 
L 137.310828 -62.761756 
L 137.756179 -62.484519 
L 138.201531 -62.198083 
L 138.646882 -61.900829 
L 139.092234 -61.593621 
L 139.537585 -61.27609 
L 139.982937 -60.947813 
L 140.428288 -60.608338 
L 140.873639 -60.257187 
L 141.318991 -59.893851 
L 141.764342 -59.517788 
L 142.209694 -59.128421 
L 142.655045 -58.725135 
L 143.100397 -58.307272 
L 143.545748 -57.87413 
L 143.9911 -57.424959 
L 144.436451 -56.958954 
L 144.881803 -56.475251 
L 145.327154 -55.972924 
L 145.772506 -55.450978 
L 146.217857 -54.90834 
L 146.663209 -54.343854 
L 147.10856 -53.756273 
L 147.553912 -53.144247 
L 147.999263 -52.506316 
L 148.444615 -51.837751 
L 148.889966 -51.138848 
L 149.335317 -50.408072 
L 149.780669 -49.643278 
L 150.22602 -48.841026 
L 150.671372 -47.993188 
L 151.116723 -47.121255 
L 151.562075 -46.27884 
L 152.007426 -45.487896 
L 152.452778 -44.73936 
L 152.898129 -44.029435 
L 153.343481 -43.355778 
L 153.788832 -42.716737 
L 154.234184 -42.112753 
L 154.679535 -41.538508 
L 155.124887 -40.992404 
L 155.570238 -40.47297 
L 156.01559 -39.978842 
L 156.460941 -39.508757 
L 156.906293 -39.061544 
L 157.351644 -38.636116 
L 157.796995 -38.231459 
L 158.242347 -37.846631 
L 158.687698 -37.480754 
L 159.13305 -37.133005 
L 159.578401 -36.802619 
L 160.023753 -36.488876 
L 160.469104 -36.191104 
L 160.914456 -35.908673 
L 161.359807 -35.64099 
L 161.805159 -35.387498 
L 162.25051 -35.147674 
L 162.695862 -34.921026 
L 163.141213 -34.707088 
L 163.586565 -34.505465 
L 164.031916 -34.317293 
L 164.477268 -34.140624 
L 164.922619 -33.97508 
L 165.367971 -33.820308 
L 165.813322 -33.67597 
L 166.258673 -33.541751 
L 166.704025 -33.417347 
L 167.149376 -33.303171 
L 167.594728 -33.199579 
L 168.040079 -33.10498 
L 168.485431 -33.019126 
L 168.930782 -32.941782 
L 169.376134 -32.872726 
L 169.821485 -32.812393 
L 170.266837 -32.76146 
L 170.712188 -32.71818 
L 171.15754 -32.682369 
L 171.602891 -32.653853 
L 172.048243 -32.632462 
L 172.493594 -32.620257 
L 172.938946 -32.614864 
L 173.384297 -32.616102 
L 173.829649 -32.623834 
L 174.275 -32.638182 
L 174.720351 -32.660779 
L 175.165703 -32.689446 
L 175.611054 -32.724067 
L 176.056406 -32.764531 
L 176.501757 -32.811947 
L 176.947109 -32.866036 
L 177.39246 -32.92562 
L 177.837812 -32.990605 
L 178.283163 -33.061268 
L 178.728515 -33.139047 
L 179.173866 -33.221927 
L 179.619218 -33.309831 
L 180.064569 -33.402686 
L 180.509921 -33.502523 
L 180.955272 -33.607254 
L 181.400624 -33.716687 
L 181.845975 -33.830759 
L 182.291327 -33.951263 
L 182.736678 -34.076593 
L 183.182029 -34.206347 
L 183.627381 -34.340474 
L 184.072732 -34.480718 
L 184.518084 -34.625558 
L 184.963435 -34.774586 
L 185.408787 -34.927759 
L 185.854138 -35.086909 
L 186.29949 -35.250317 
L 186.744841 -35.417711 
L 187.190193 -35.589054 
L 187.635544 -35.766361 
L 188.080896 -35.947521 
L 188.526247 -36.132494 
L 188.971599 -36.321527 
L 189.41695 -36.516044 
L 189.862302 -36.714253 
L 190.307653 -36.91613 
L 190.753005 -37.122238 
L 191.198356 -37.333328 
L 191.643707 -37.547984 
L 192.089059 -37.76619 
L 192.53441 -37.988816 
L 192.979762 -38.215947 
L 193.425113 -38.446541 
L 193.870465 -38.680587 
L 194.315816 -38.919237 
L 194.761168 -39.161963 
L 195.206519 -39.408071 
L 195.651871 -39.657553 
L 196.097222 -39.911792 
L 196.542574 -40.169749 
L 196.987925 -40.431025 
L 197.433277 -40.695616 
L 197.878628 -40.965066 
L 198.32398 -41.237964 
L 198.769331 -41.514137 
L 199.214683 -41.793585 
L 199.660034 -42.077922 
L 200.105385 -42.365544 
L 200.550737 -42.656415 
L 200.996088 -42.950538 
L 201.44144 -43.24949 
L 201.886791 -43.551691 
L 202.332143 -43.857131 
L 202.777494 -44.16582 
L 203.222846 -44.479167 
L 203.668197 -44.795871 
L 204.113549 -45.115824 
L 204.5589 -45.439039 
L 205.004252 -45.766614 
L 205.449603 -46.097818 
L 205.894955 -46.432299 
L 206.340306 -46.770075 
L 206.785658 -47.111761 
L 207.231009 -47.457537 
L 207.676361 -47.806638 
L 208.121712 -48.159087 
L 208.567063 -48.514908 
L 209.012415 -48.87532 
L 209.457766 -49.239215 
L 209.903118 -49.606534 
L 210.348469 -49.977306 
L 210.793821 -50.351766 
L 211.239172 -50.730717 
L 211.684524 -51.113193 
L 212.129875 -51.49923 
L 212.575227 -51.888866 
L 213.020578 -52.282176 
L 213.46593 -52.680199 
L 213.911281 -53.081921 
L 214.356633 -53.487389 
L 214.801984 -53.896652 
L 215.247336 -54.309759 
L 215.692687 -54.727033 
L 216.138039 -55.148912 
L 216.58339 -55.574779 
L 217.028741 -56.004697 
L 217.474093 -56.438731 
L 217.919444 -56.876952 
L 218.364796 -57.319431 
L 218.810147 -57.766506 
L 219.255499 -58.218443 
L 219.70085 -58.674851 
L 220.146202 -59.13582 
L 220.591553 -59.601446 
L 221.036905 -60.071829 
L 221.482256 -60.547075 
L 221.927608 -61.027299 
L 222.372959 -61.51262 
L 222.818311 -62.003166 
L 223.263662 -62.499072 
L 223.709014 -63.000483 
L 224.154365 -63.507584 
L 224.599717 -64.020623 
L 225.045068 -64.539597 
L 225.49042 -65.064687 
L 225.935771 -65.596088 
L 226.381122 -66.13401 
L 226.826474 -66.678835 
L 227.271825 -67.230811 
L 227.717177 -67.790134 
L 228.162528 -68.357091 
L 228.60788 -68.931992 
L 229.053231 -69.515173 
L 229.498583 -70.106995 
L 229.943934 -70.707852 
L 230.389286 -71.318172 
L 230.834637 -71.939043 
L 231.279989 -72.571409 
L 231.72534 -73.215021 
L 232.170692 -73.870517 
L 232.616043 -74.539795 
L 233.061395 -75.224131 
L 233.506746 -75.923108 
L 233.952098 -76.64049 
L 234.397449 -77.376277 
L 234.8428 -78.133858 
L 235.288152 -78.914464 
L 235.733503 -79.724109 
L 236.178855 -80.564612 
L 236.624206 -81.442388 
L 237.069558 -82.365982 
L 237.514909 -83.347051 
L 237.960261 -84.401973 
L 238.405612 -85.560849 
L 238.850964 -86.880804 
L 239.296315 -88.508928 
L 239.741667 -91.980476 
L 239.741667 -91.980476 
L 239.741667 -91.980476 
L 239.296315 -94.871248 
L 238.850964 -95.929954 
L 238.405612 -96.688307 
L 237.960261 -97.292165 
L 237.514909 -97.797943 
L 237.069558 -98.235221 
L 236.624206 -98.620123 
L 236.178855 -98.964046 
L 235.733503 -99.275258 
L 235.288152 -99.559893 
L 234.8428 -99.820029 
L 234.397449 -100.061157 
L 233.952098 -100.284656 
L 233.506746 -100.493601 
L 233.061395 -100.688314 
L 232.616043 -100.871972 
L 232.170692 -101.044524 
L 231.72534 -101.207168 
L 231.279989 -101.361484 
L 230.834637 -101.508107 
L 230.389286 -101.64708 
L 229.943934 -101.779232 
L 229.498583 -101.905443 
L 229.053231 -102.026137 
L 228.60788 -102.141707 
L 228.162528 -102.252513 
L 227.717177 -102.358891 
L 227.271825 -102.461148 
L 226.826474 -102.559572 
L 226.381122 -102.654392 
L 225.935771 -102.745859 
L 225.49042 -102.834276 
L 225.045068 -102.919848 
L 224.599717 -103.002769 
L 224.154365 -103.08322 
L 223.709014 -103.161302 
L 223.263662 -103.237214 
L 222.818311 -103.311122 
L 222.372959 -103.383168 
L 221.927608 -103.453486 
L 221.482256 -103.522204 
L 221.036905 -103.589438 
L 220.591553 -103.6553 
L 220.146202 -103.719896 
L 219.70085 -103.783324 
L 219.255499 -103.845679 
L 218.810147 -103.907047 
L 218.364796 -103.967423 
L 217.919444 -104.026944 
L 217.474093 -104.085737 
L 217.028741 -104.143874 
L 216.58339 -104.201425 
L 216.138039 -104.258453 
L 215.692687 -104.315019 
L 215.247336 -104.371127 
L 214.801984 -104.426891 
L 214.356633 -104.48239 
L 213.911281 -104.537676 
L 213.46593 -104.592797 
L 213.020578 -104.647798 
L 212.575227 -104.702726 
L 212.129875 -104.757655 
L 211.684524 -104.812626 
L 211.239172 -104.86768 
L 210.793821 -104.922851 
L 210.348469 -104.978241 
L 209.903118 -105.033868 
L 209.457766 -105.089754 
L 209.012415 -105.145931 
L 208.567063 -105.20244 
L 208.121712 -105.259454 
L 207.676361 -105.316889 
L 207.231009 -105.374771 
L 206.785658 -105.433127 
L 206.340306 -105.492114 
L 205.894955 -105.551761 
L 205.449603 -105.611999 
L 205.004252 -105.672852 
L 204.5589 -105.734419 
L 204.113549 -105.796904 
L 203.668197 -105.860115 
L 203.222846 -105.924072 
L 202.777494 -105.988827 
L 202.332143 -106.054748 
L 201.886791 -106.121524 
L 201.44144 -106.189173 
L 200.996088 -106.257719 
L 200.550737 -106.327658 
L 200.105385 -106.398576 
L 199.660034 -106.47049 
L 199.214683 -106.543433 
L 198.769331 -106.617963 
L 198.32398 -106.693595 
L 197.878628 -106.770345 
L 197.433277 -106.848296 
L 196.987925 -106.92799 
L 196.542574 -107.00891 
L 196.097222 -107.091073 
L 195.651871 -107.174651 
L 195.206519 -107.260093 
L 194.761168 -107.346885 
L 194.315816 -107.435049 
L 193.870465 -107.524892 
L 193.425113 -107.616678 
L 192.979762 -107.709948 
L 192.53441 -107.804723 
L 192.089059 -107.901486 
L 191.643707 -108.000241 
L 191.198356 -108.100621 
L 190.753005 -108.202646 
L 190.307653 -108.307008 
L 189.862302 -108.413391 
L 189.41695 -108.521548 
L 188.971599 -108.631503 
L 188.526247 -108.744173 
L 188.080896 -108.858886 
L 187.635544 -108.975535 
L 187.190193 -109.094154 
L 186.744841 -109.21587 
L 186.29949 -109.339668 
L 185.854138 -109.46558 
L 185.408787 -109.593769 
L 184.963435 -109.725197 
L 184.518084 -109.858901 
L 184.072732 -109.994917 
L 183.627381 -110.133491 
L 183.182029 -110.27551 
L 182.736678 -110.420019 
L 182.291327 -110.567063 
L 181.845975 -110.716889 
L 181.400624 -110.870465 
L 180.955272 -111.026774 
L 180.509921 -111.185866 
L 180.064569 -111.347872 
L 179.619218 -111.514079 
L 179.173866 -111.683291 
L 178.728515 -111.85557 
L 178.283163 -112.030979 
L 177.837812 -112.21079 
L 177.39246 -112.394143 
L 176.947109 -112.580887 
L 176.501757 -112.771095 
L 176.056406 -112.965537 
L 175.611054 -113.164427 
L 175.165703 -113.367077 
L 174.720351 -113.573577 
L 174.275 -113.78402 
L 173.829649 -113.999857 
L 173.384297 -114.220052 
L 172.938946 -114.444543 
L 172.493594 -114.673441 
L 172.048243 -114.906885 
L 171.602891 -115.146497 
L 171.15754 -115.390924 
L 170.712188 -115.6403 
L 170.266837 -115.894763 
L 169.821485 -116.154461 
L 169.376134 -116.420619 
L 168.930782 -116.692806 
L 168.485431 -116.970744 
L 168.040079 -117.254611 
L 167.594728 -117.544593 
L 167.149376 -117.840886 
L 166.704025 -118.144639 
L 166.258673 -118.455634 
L 165.813322 -118.773606 
L 165.367971 -119.098795 
L 164.922619 -119.431453 
L 164.477268 -119.771845 
L 164.031916 -120.120254 
L 163.586565 -120.476978 
L 163.141213 -120.843463 
L 162.695862 -121.218915 
L 162.25051 -121.603654 
L 161.805159 -121.998046 
L 161.359807 -122.402483 
L 160.914456 -122.81738 
L 160.469104 -123.243179 
L 160.023753 -123.68035 
L 159.578401 -124.129394 
L 159.13305 -124.590844 
L 158.687698 -125.065272 
L 158.242347 -125.553285 
L 157.796995 -126.055535 
L 157.351644 -126.572722 
L 156.906293 -127.105592 
L 156.460941 -127.65495 
L 156.01559 -128.22166 
L 155.570238 -128.806652 
L 155.124887 -129.410928 
L 154.679535 -130.035572 
L 154.234184 -130.681753 
L 153.788832 -131.350738 
L 153.343481 -132.046665 
L 152.898129 -132.76925 
L 152.452778 -133.519818 
L 152.007426 -134.300231 
L 151.562075 -135.113481 
L 151.116723 -135.966662 
L 150.671372 -136.8408 
L 150.22602 -137.688558 
L 149.780669 -138.4905 
L 149.335317 -139.254655 
L 148.889966 -139.984372 
L 148.444615 -140.68171 
L 147.999263 -141.348113 
L 147.553912 -141.983151 
L 147.10856 -142.591552 
L 146.663209 -143.174717 
L 146.217857 -143.733942 
L 145.772506 -144.270425 
L 145.327154 -144.785273 
L 144.881803 -145.279518 
L 144.436451 -145.754114 
L 143.9911 -146.209951 
L 143.545748 -146.647859 
L 143.100397 -147.068608 
L 142.655045 -147.472921 
L 142.209694 -147.861471 
L 141.764342 -148.234891 
L 141.318991 -148.593771 
L 140.873639 -148.938665 
L 140.428288 -149.270094 
L 139.982937 -149.588548 
L 139.537585 -149.894487 
L 139.092234 -150.188343 
L 138.646882 -150.470525 
L 138.201531 -150.74138 
L 137.756179 -150.999839 
L 137.310828 -151.247679 
L 136.865476 -151.485232 
L 136.420125 -151.712809 
L 135.974773 -151.930706 
L 135.529422 -152.139201 
L 135.08407 -152.33856 
L 134.638719 -152.528381 
L 134.193367 -152.708313 
L 133.748016 -152.879824 
L 133.302664 -153.043133 
L 132.857313 -153.198445 
L 132.411961 -153.345956 
L 131.96661 -153.48524 
L 131.521259 -153.615638 
L 131.075907 -153.738784 
L 130.630556 -153.85484 
L 130.185204 -153.963959 
L 129.739853 -154.066289 
L 129.294501 -154.159844 
L 128.84915 -154.246875 
L 128.403798 -154.327541 
L 127.958447 -154.401964 
L 127.513095 -154.470012 
L 127.067744 -154.53009 
L 126.622392 -154.584287 
L 126.177041 -154.632702 
L 125.731689 -154.675434 
L 125.286338 -154.711386 
L 124.840986 -154.740809 
L 124.395635 -154.764842 
L 123.950283 -154.783567 
L 123.504932 -154.7967 
L 123.05958 -154.8028 
L 122.614229 -154.803841 
L 122.168878 -154.799891 
L 121.723526 -154.791012 
L 121.278175 -154.775158 
L 120.832823 -154.754395 
L 120.387472 -154.728908 
L 119.94212 -154.698749 
L 119.496769 -154.662091 
L 119.051417 -154.620536 
L 118.606066 -154.574481 
L 118.160714 -154.523971 
L 117.715363 -154.467203 
L 117.270011 -154.405712 
L 116.82466 -154.33991 
L 116.379308 -154.26983 
L 115.933957 -154.193557 
L 115.488605 -154.112851 
L 115.043254 -154.027987 
L 114.597902 -153.938993 
L 114.152551 -153.843735 
L 113.7072 -153.744411 
L 113.261848 -153.641052 
L 112.816497 -153.53339 
L 112.371145 -153.419883 
L 111.925794 -153.302423 
L 111.480442 -153.181027 
L 111.035091 -153.055078 
L 110.589739 -152.92374 
L 110.144388 -152.788526 
L 109.699036 -152.649447 
L 109.253685 -152.505535 
L 108.808333 -152.356672 
L 108.362982 -152.203986 
L 107.91763 -152.047483 
L 107.472279 -151.885863 
L 107.026927 -151.719688 
L 106.581576 -151.549719 
L 106.136224 -151.375957 
L 105.690873 -151.196817 
L 105.245522 -151.01345 
L 104.80017 -150.826297 
L 104.354819 -150.635351 
L 103.909467 -150.438814 
L 103.464116 -150.238286 
L 103.018764 -150.033954 
L 102.573413 -149.825807 
L 102.128061 -149.611931 
L 101.68271 -149.39418 
L 101.237358 -149.172584 
L 100.792007 -148.947129 
L 100.346655 -148.715904 
L 99.901304 -148.480773 
L 99.455952 -148.241734 
L 99.010601 -147.998762 
L 98.565249 -147.750113 
L 98.119898 -147.497348 
L 97.674546 -147.240581 
L 97.229195 -146.979783 
L 96.783844 -146.713564 
L 96.338492 -146.442802 
L 95.893141 -146.167917 
L 95.447789 -145.888871 
L 95.002438 -145.604861 
L 94.557086 -145.315623 
L 94.111735 -145.022108 
L 93.666383 -144.72427 
L 93.221032 -144.422058 
L 92.77568 -144.11385 
L 92.330329 -143.801059 
L 91.884977 -143.483742 
L 91.439626 -143.16184 
L 90.994274 -142.835014 
L 90.548923 -142.50215 
L 90.103571 -142.164513 
L 89.65822 -141.82203 
L 89.212868 -141.474626 
L 88.767517 -141.122172 
L 88.322166 -140.76319 
L 87.876814 -140.399046 
L 87.431463 -140.02965 
L 86.986111 -139.654903 
L 86.54076 -139.274704 
L 86.095408 -138.888561 
L 85.650057 -138.495799 
L 85.204705 -138.097265 
L 84.759354 -137.692834 
L 84.314002 -137.282376 
L 83.868651 -136.865754 
L 83.423299 -136.44282 
L 82.977948 -136.013032 
L 82.532596 -135.57594 
L 82.087245 -135.132083 
L 81.641893 -134.681283 
L 81.196542 -134.223351 
L 80.75119 -133.758086 
L 80.305839 -133.285277 
L 79.860488 -132.804696 
L 79.415136 -132.316107 
L 78.969785 -131.819253 
L 78.524433 -131.313866 
L 78.079082 -130.799657 
L 77.63373 -130.276267 
L 77.188379 -129.743232 
L 76.743027 -129.200494 
L 76.297676 -128.647688 
L 75.852324 -128.084426 
L 75.406973 -127.510292 
L 74.961621 -126.924571 
L 74.51627 -126.326765 
L 74.070918 -125.716461 
L 73.625567 -125.093085 
L 73.180215 -124.456017 
L 72.734864 -123.804589 
L 72.289512 -123.138075 
L 71.844161 -122.45569 
L 71.39881 -121.756581 
L 70.953458 -121.038701 
L 70.508107 -120.300235 
L 70.062755 -119.541496 
L 69.617404 -118.761212 
L 69.172052 -117.955786 
L 68.726701 -117.122713 
L 68.281349 -116.2626 
L 67.835998 -115.368285 
L 67.390646 -114.439566 
L 66.945295 -113.469863 
L 66.499943 -112.456621 
L 66.054592 -111.388137 
L 65.60924 -110.260615 
L 65.163889 -109.061396 
L 64.718537 -107.773567 
L 64.273186 -106.373973 
L 63.827834 -104.830021 
L 63.382483 -103.08183 
L 62.937132 -101.015597 
L 62.49178 -98.337912 
L 62.046429 -91.980476 
z
" style="stroke: #1f77b4; stroke-opacity: 0.15"/>
    </defs>
    <g clip-path="url(#p5ba6e61c73)">
     <use xlink:href="#ma90d0b99aa" x="0" y="216" style="fill: #1f77b4; fill-opacity: 0.15; stroke: #1f77b4; stroke-opacity: 0.15"/>
    </g>
   </g>
   <g id="PolyCollection_2">
    <defs>
     <path id="mc200267ee8" d="M 144.970873 -91.980476 
L 144.970873 -91.980476 
L 145.090533 -90.795902 
L 145.210193 -90.313804 
L 145.329853 -89.949777 
L 145.449513 -89.647872 
L 145.569173 -89.386307 
L 145.688834 -89.153863 
L 145.808494 -88.943843 
L 145.928154 -88.75187 
L 146.047814 -88.57489 
L 146.167474 -88.410672 
L 146.287134 -88.257528 
L 146.406794 -88.11414 
L 146.526454 -87.979461 
L 146.646114 -87.852637 
L 146.765774 -87.732964 
L 146.885435 -87.619855 
L 147.005095 -87.51281 
L 147.124755 -87.411403 
L 147.244415 -87.315267 
L 147.364075 -87.224082 
L 147.483735 -87.137567 
L 147.603395 -87.055478 
L 147.723055 -86.977597 
L 147.842715 -86.903728 
L 147.962375 -86.833701 
L 148.082035 -86.76736 
L 148.201696 -86.704565 
L 148.321356 -86.645192 
L 148.441016 -86.589128 
L 148.560676 -86.536271 
L 148.680336 -86.486527 
L 148.799996 -86.439813 
L 148.919656 -86.396054 
L 149.039316 -86.355179 
L 149.158976 -86.317127 
L 149.278636 -86.281841 
L 149.398296 -86.24927 
L 149.517957 -86.219368 
L 149.637617 -86.192093 
L 149.757277 -86.167409 
L 149.876937 -86.145283 
L 149.996597 -86.125685 
L 150.116257 -86.108591 
L 150.235917 -86.093978 
L 150.355577 -86.081828 
L 150.475237 -86.072127 
L 150.594897 -86.064861 
L 150.714557 -86.060022 
L 150.834218 -86.057604 
L 150.953878 -86.057604 
L 151.073538 -86.060022 
L 151.193198 -86.064861 
L 151.312858 -86.072127 
L 151.432518 -86.081828 
L 151.552178 -86.093978 
L 151.671838 -86.108591 
L 151.791498 -86.125685 
L 151.911158 -86.145283 
L 152.030819 -86.167409 
L 152.150479 -86.192093 
L 152.270139 -86.219368 
L 152.389799 -86.24927 
L 152.509459 -86.281841 
L 152.629119 -86.317127 
L 152.748779 -86.355179 
L 152.868439 -86.396054 
L 152.988099 -86.439813 
L 153.107759 -86.486527 
L 153.227419 -86.536271 
L 153.34708 -86.589128 
L 153.46674 -86.645192 
L 153.5864 -86.704565 
L 153.70606 -86.76736 
L 153.82572 -86.833701 
L 153.94538 -86.903728 
L 154.06504 -86.977597 
L 154.1847 -87.055478 
L 154.30436 -87.137567 
L 154.42402 -87.224082 
L 154.54368 -87.315267 
L 154.663341 -87.411403 
L 154.783001 -87.51281 
L 154.902661 -87.619855 
L 155.022321 -87.732964 
L 155.141981 -87.852637 
L 155.261641 -87.979461 
L 155.381301 -88.11414 
L 155.500961 -88.257528 
L 155.620621 -88.410672 
L 155.740281 -88.57489 
L 155.859941 -88.75187 
L 155.979602 -88.943843 
L 156.099262 -89.153863 
L 156.218922 -89.386307 
L 156.338582 -89.647872 
L 156.458242 -89.949777 
L 156.577902 -90.313804 
L 156.697562 -90.795902 
L 156.817222 -91.980476 
L 156.817222 -91.980476 
L 156.817222 -91.980476 
L 156.697562 -93.165051 
L 156.577902 -93.647148 
L 156.458242 -94.011175 
L 156.338582 -94.313081 
L 156.218922 -94.574645 
L 156.099262 -94.80709 
L 155.979602 -95.017109 
L 155.859941 -95.209082 
L 155.740281 -95.386062 
L 155.620621 -95.55028 
L 155.500961 -95.703425 
L 155.381301 -95.846812 
L 155.261641 -95.981492 
L 155.141981 -96.108316 
L 155.022321 -96.227988 
L 154.902661 -96.341098 
L 154.783001 -96.448142 
L 154.663341 -96.549549 
L 154.54368 -96.645685 
L 154.42402 -96.736871 
L 154.30436 -96.823385 
L 154.1847 -96.905474 
L 154.06504 -96.983356 
L 153.94538 -97.057224 
L 153.82572 -97.127251 
L 153.70606 -97.193593 
L 153.5864 -97.256387 
L 153.46674 -97.31576 
L 153.34708 -97.371824 
L 153.227419 -97.424682 
L 153.107759 -97.474425 
L 152.988099 -97.521139 
L 152.868439 -97.564899 
L 152.748779 -97.605773 
L 152.629119 -97.643825 
L 152.509459 -97.679111 
L 152.389799 -97.711683 
L 152.270139 -97.741585 
L 152.150479 -97.768859 
L 152.030819 -97.793543 
L 151.911158 -97.81567 
L 151.791498 -97.835267 
L 151.671838 -97.852362 
L 151.552178 -97.866974 
L 151.432518 -97.879124 
L 151.312858 -97.888826 
L 151.193198 -97.896092 
L 151.073538 -97.900931 
L 150.953878 -97.903349 
L 150.834218 -97.903349 
L 150.714557 -97.900931 
L 150.594897 -97.896092 
L 150.475237 -97.888826 
L 150.355577 -97.879124 
L 150.235917 -97.866974 
L 150.116257 -97.852362 
L 149.996597 -97.835267 
L 149.876937 -97.81567 
L 149.757277 -97.793543 
L 149.637617 -97.768859 
L 149.517957 -97.741585 
L 149.398296 -97.711683 
L 149.278636 -97.679111 
L 149.158976 -97.643825 
L 149.039316 -97.605773 
L 148.919656 -97.564899 
L 148.799996 -97.521139 
L 148.680336 -97.474425 
L 148.560676 -97.424682 
L 148.441016 -97.371824 
L 148.321356 -97.31576 
L 148.201696 -97.256387 
L 148.082035 -97.193593 
L 147.962375 -97.127251 
L 147.842715 -97.057224 
L 147.723055 -96.983356 
L 147.603395 -96.905474 
L 147.483735 -96.823385 
L 147.364075 -96.736871 
L 147.244415 -96.645685 
L 147.124755 -96.549549 
L 147.005095 -96.448142 
L 146.885435 -96.341098 
L 146.765774 -96.227988 
L 146.646114 -96.108316 
L 146.526454 -95.981492 
L 146.406794 -95.846812 
L 146.287134 -95.703425 
L 146.167474 -95.55028 
L 146.047814 -95.386062 
L 145.928154 -95.209082 
L 145.808494 -95.017109 
L 145.688834 -94.80709 
L 145.569173 -94.574645 
L 145.449513 -94.313081 
L 145.329853 -94.011175 
L 145.210193 -93.647148 
L 145.090533 -93.165051 
L 144.970873 -91.980476 
z
" style="stroke: #ffffff"/>
    </defs>
    <g clip-path="url(#p5ba6e61c73)">
     <use xlink:href="#mc200267ee8" x="0" y="216" style="fill: #ffffff; stroke: #ffffff"/>
    </g>
   </g>
   <g id="patch_3">
    <path d="M 150.894048 129.942698 
C 152.464892 129.942698 153.97161 129.318595 155.082365 128.207841 
C 156.193119 127.097086 156.817222 125.590368 156.817222 124.019524 
C 156.817222 122.44868 156.193119 120.941962 155.082365 119.831207 
C 153.97161 118.720452 152.464892 118.096349 150.894048 118.096349 
C 149.323203 118.096349 147.816485 118.720452 146.705731 119.831207 
C 145.594976 120.941962 144.970873 122.44868 144.970873 124.019524 
C 144.970873 125.590368 145.594976 127.097086 146.705731 128.207841 
C 147.816485 129.318595 149.323203 129.942698 150.894048 129.942698 
L 150.894048 129.942698 
z
" clip-path="url(#p5ba6e61c73)" style="fill: none; stroke: #1f77b4; stroke-width: 1.5; stroke-linejoin: miter"/>
   </g>
   <g id="patch_4">
    <path d="M 106.470238 183.25127 
C 108.041082 183.25127 109.5478 182.627167 110.658555 181.516412 
C 111.76931 180.405658 112.393413 178.89894 112.393413 177.328095 
C 112.393413 175.757251 111.76931 174.250533 110.658555 173.139778 
C 109.5478 172.029024 108.041082 171.404921 106.470238 171.404921 
C 104.899394 171.404921 103.392676 172.029024 102.281921 173.139778 
C 101.171167 174.250533 100.547063 175.757251 100.547063 177.328095 
C 100.547063 178.89894 101.171167 180.405658 102.281921 181.516412 
C 103.392676 182.627167 104.899394 183.25127 106.470238 183.25127 
L 106.470238 183.25127 
z
" clip-path="url(#p5ba6e61c73)" style="fill: none; stroke: #1f77b4; stroke-width: 1.5; stroke-linejoin: miter"/>
   </g>
   <g id="patch_5">
    <path d="M 106.470238 183.25127 
C 108.041082 183.25127 109.5478 182.627167 110.658555 181.516412 
C 111.76931 180.405658 112.393413 178.89894 112.393413 177.328095 
C 112.393413 175.757251 111.76931 174.250533 110.658555 173.139778 
C 109.5478 172.029024 108.041082 171.404921 106.470238 171.404921 
C 104.899394 171.404921 103.392676 172.029024 102.281921 173.139778 
C 101.171167 174.250533 100.547063 175.757251 100.547063 177.328095 
C 100.547063 178.89894 101.171167 180.405658 102.281921 181.516412 
C 103.392676 182.627167 104.899394 183.25127 106.470238 183.25127 
z
" clip-path="url(#p5ba6e61c73)" style="fill: #1f77b4; opacity: 0.15"/>
   </g>
   <g id="patch_6">
    <path d="M 62.046429 57.38381 
C 64.402695 57.38381 66.662772 56.447655 68.328904 54.781523 
C 69.995036 53.115391 70.93119 50.855314 70.93119 48.499048 
C 70.93119 46.142781 69.995036 43.882704 68.328904 42.216572 
C 66.662772 40.55044 64.402695 39.614286 62.046429 39.614286 
C 59.690162 39.614286 57.430085 40.55044 55.763953 42.216572 
C 54.097821 43.882704 53.161667 46.142781 53.161667 48.499048 
C 53.161667 50.855314 54.097821 53.115391 55.763953 54.781523 
C 57.430085 56.447655 59.690162 57.38381 62.046429 57.38381 
L 62.046429 57.38381 
z
" clip-path="url(#p5ba6e61c73)" style="fill: none; stroke: #ff0000; stroke-width: 2; stroke-linejoin: miter"/>
   </g>
   <g id="patch_7">
    <path d="M 62.046429 57.38381 
C 64.402695 57.38381 66.662772 56.447655 68.328904 54.781523 
C 69.995036 53.115391 70.93119 50.855314 70.93119 48.499048 
C 70.93119 46.142781 69.995036 43.882704 68.328904 42.216572 
C 66.662772 40.55044 64.402695 39.614286 62.046429 39.614286 
C 59.690162 39.614286 57.430085 40.55044 55.763953 42.216572 
C 54.097821 43.882704 53.161667 46.142781 53.161667 48.499048 
C 53.161667 50.855314 54.097821 53.115391 55.763953 54.781523 
C 57.430085 56.447655 59.690162 57.38381 62.046429 57.38381 
z
" clip-path="url(#p5ba6e61c73)" style="fill: #ff0000; opacity: 0.15"/>
   </g>
   <g id="PathCollection_1">
    <defs>
     <path id="mbd99de486c" d="M -3 3 
L 3 -3 
M -3 -3 
L 3 3 
" style="stroke: #ff0000; stroke-width: 1.5"/>
    </defs>
    <g clip-path="url(#p5ba6e61c73)">
     <use xlink:href="#mbd99de486c" x="62.046429" y="48.499048" style="fill: #ff0000; stroke: #ff0000; stroke-width: 1.5"/>
    </g>
   </g>
   <g id="PolyCollection_3">
    <defs>
     <path id="m09c8781ff3" d="M 53.161918 -92.047259 
L 53.161918 -91.913019 
L 53.651801 -85.212578 
L 54.141685 -82.664881 
L 54.631568 -80.799033 
L 55.121451 -79.297559 
L 55.611335 -78.018747 
L 56.101218 -76.897868 
L 56.591102 -75.905366 
L 57.080985 -75.004145 
L 57.570868 -74.185257 
L 58.060752 -73.427816 
L 58.550635 -72.729891 
L 59.040519 -72.081936 
L 59.530402 -71.475694 
L 60.020286 -70.907136 
L 60.510169 -70.372762 
L 61.000052 -69.869519 
L 61.489936 -69.394738 
L 61.979819 -68.946077 
L 62.469703 -68.521475 
L 62.959586 -68.119113 
L 63.44947 -67.737379 
L 63.939353 -67.374843 
L 64.429236 -67.030229 
L 64.91912 -66.702399 
L 65.409003 -66.390328 
L 65.898887 -66.093094 
L 66.38877 -65.809866 
L 66.878654 -65.539885 
L 67.368537 -65.282464 
L 67.85842 -65.03697 
L 68.348304 -64.803694 
L 68.838187 -64.581906 
L 69.328071 -64.370344 
L 69.817954 -64.168546 
L 70.307838 -63.976082 
L 70.797721 -63.792553 
L 71.287604 -63.617581 
L 71.777488 -63.450815 
L 72.267371 -63.29277 
L 72.757255 -63.142734 
L 73.247138 -62.999855 
L 73.737022 -62.863853 
L 74.226905 -62.734462 
L 74.716788 -62.611428 
L 75.206672 -62.494509 
L 75.696555 -62.383973 
L 76.186439 -62.279656 
L 76.676322 -62.180698 
L 77.166206 -62.086896 
L 77.656089 -61.998057 
L 78.145972 -61.913994 
L 78.635856 -61.834526 
L 79.125739 -61.760016 
L 79.615623 -61.690053 
L 80.105506 -61.624106 
L 80.595389 -61.562021 
L 81.085273 -61.503649 
L 81.575156 -61.448844 
L 82.06504 -61.397468 
L 82.554923 -61.350064 
L 83.044807 -61.30576 
L 83.53469 -61.264422 
L 84.024573 -61.225927 
L 84.514457 -61.190156 
L 85.00434 -61.156992 
L 85.494224 -61.126636 
L 85.984107 -61.098845 
L 86.473991 -61.073273 
L 86.963874 -61.049815 
L 87.453757 -61.028372 
L 87.943641 -61.008844 
L 88.433524 -60.99127 
L 88.923408 -60.975655 
L 89.413291 -60.961621 
L 89.903175 -60.949076 
L 90.393058 -60.937936 
L 90.882941 -60.928114 
L 91.372825 -60.919581 
L 91.862708 -60.912389 
L 92.352592 -60.906217 
L 92.842475 -60.900986 
L 93.332359 -60.89662 
L 93.822242 -60.893042 
L 94.312125 -60.890198 
L 94.802009 -60.888093 
L 95.291892 -60.886505 
L 95.781776 -60.885361 
L 96.271659 -60.884591 
L 96.761543 -60.884123 
L 97.251426 -60.883891 
L 97.741309 -60.883826 
L 98.231193 -60.883809 
L 98.721076 -60.883771 
L 99.21096 -60.883644 
L 99.700843 -60.883359 
L 100.190726 -60.882848 
L 100.68061 -60.881948 
L 101.170493 -60.880642 
L 101.660377 -60.878862 
L 102.15026 -60.876541 
L 102.640144 -60.873608 
L 103.130027 -60.869994 
L 103.61991 -60.865499 
L 104.109794 -60.860089 
L 104.599677 -60.853748 
L 105.089561 -60.846403 
L 105.579444 -60.837981 
L 106.069328 -60.828409 
L 106.559211 -60.817603 
L 107.049094 -60.805215 
L 107.538978 -60.791413 
L 108.028861 -60.776119 
L 108.518745 -60.759251 
L 109.008628 -60.740727 
L 109.498512 -60.720461 
L 109.988395 -60.698367 
L 110.478278 -60.674117 
L 110.968162 -60.647735 
L 111.458045 -60.619229 
L 111.947929 -60.588502 
L 112.437812 -60.555457 
L 112.927696 -60.519991 
L 113.417579 -60.482001 
L 113.907462 -60.441377 
L 114.397346 -60.398008 
L 114.887229 -60.351498 
L 115.377113 -60.301938 
L 115.866996 -60.249269 
L 116.35688 -60.193365 
L 116.846763 -60.134094 
L 117.336646 -60.071322 
L 117.82653 -60.004906 
L 118.316413 -59.9347 
L 118.806297 -59.860551 
L 119.29618 -59.782299 
L 119.786064 -59.69978 
L 120.275947 -59.612822 
L 120.76583 -59.521245 
L 121.255714 -59.424861 
L 121.745597 -59.323476 
L 122.235481 -59.216887 
L 122.725364 -59.10488 
L 123.215247 -58.987234 
L 123.705131 -58.863718 
L 124.195014 -58.73409 
L 124.684898 -58.598096 
L 125.174781 -58.455473 
L 125.664665 -58.305944 
L 126.154548 -58.149221 
L 126.644431 -57.985001 
L 127.134315 -57.812967 
L 127.624198 -57.632789 
L 128.114082 -57.44412 
L 128.603965 -57.245753 
L 129.093849 -57.037815 
L 129.583732 -56.820088 
L 130.073615 -56.592144 
L 130.563499 -56.353531 
L 131.053382 -56.103159 
L 131.543266 -55.839793 
L 132.033149 -55.564052 
L 132.523033 -55.275373 
L 133.012916 -54.971842 
L 133.502799 -54.652624 
L 133.992683 -54.318313 
L 134.482566 -53.966762 
L 134.97245 -53.596396 
L 135.462333 -53.208335 
L 135.952217 -52.798268 
L 136.4421 -52.367406 
L 136.931983 -51.913262 
L 137.421867 -51.433952 
L 137.91175 -50.928842 
L 138.401634 -50.394441 
L 138.891517 -49.8301 
L 139.381401 -49.232698 
L 139.871284 -48.599046 
L 140.361167 -47.929091 
L 140.851051 -47.213613 
L 141.340934 -46.45426 
L 141.830818 -45.646213 
L 142.320701 -44.77897 
L 142.810584 -43.850961 
L 143.300468 -42.892547 
L 143.790351 -41.972541 
L 144.280235 -41.102028 
L 144.770118 -40.273003 
L 145.260002 -39.482677 
L 145.749885 -38.728499 
L 146.239768 -38.008132 
L 146.729652 -37.319436 
L 147.219535 -36.660442 
L 147.709419 -36.029341 
L 148.199302 -35.424466 
L 148.689186 -34.844282 
L 149.179069 -34.287584 
L 149.668952 -33.75609 
L 150.158836 -33.245651 
L 150.648719 -32.755111 
L 151.138603 -32.283401 
L 151.628486 -31.829537 
L 152.11837 -31.39261 
L 152.608253 -30.975647 
L 153.098136 -30.575433 
L 153.58802 -30.189883 
L 154.077903 -29.818316 
L 154.567787 -29.461248 
L 155.05767 -29.121767 
L 155.547554 -28.7945 
L 156.037437 -28.478947 
L 156.52732 -28.17638 
L 157.017204 -27.889181 
L 157.507087 -27.612327 
L 157.996971 -27.345457 
L 158.486854 -27.092727 
L 158.976738 -26.851199 
L 159.466621 -26.618601 
L 159.956504 -26.396808 
L 160.446388 -26.187733 
L 160.936271 -25.986719 
L 161.426155 -25.794219 
L 161.916038 -25.615151 
L 162.405922 -25.443428 
L 162.895805 -25.278917 
L 163.385688 -25.127566 
L 163.875572 -24.983181 
L 164.365455 -24.845463 
L 164.855339 -24.719861 
L 165.345222 -24.601139 
L 165.835105 -24.488641 
L 166.324989 -24.387564 
L 166.814872 -24.293071 
L 167.304756 -24.204435 
L 167.794639 -24.126757 
L 168.284523 -24.055252 
L 168.774406 -23.989303 
L 169.264289 -23.93398 
L 169.754173 -23.884386 
L 170.244056 -23.840097 
L 170.73394 -23.806165 
L 171.223823 -23.777538 
L 171.713707 -23.754005 
L 172.20359 -23.74057 
L 172.693473 -23.732075 
L 173.183357 -23.728575 
L 173.67324 -23.734728 
L 174.163124 -23.74562 
L 174.653007 -23.761395 
L 175.142891 -23.786403 
L 175.632774 -23.816012 
L 176.122657 -23.85032 
L 176.612541 -23.893557 
L 177.102424 -23.941273 
L 177.592308 -23.993492 
L 178.082191 -24.054319 
L 178.572075 -24.119585 
L 179.061958 -24.189244 
L 179.551841 -24.266966 
L 180.041725 -24.349268 
L 180.531608 -24.435864 
L 181.021492 -24.529902 
L 181.511375 -24.628765 
L 182.001259 -24.731831 
L 182.491142 -24.841645 
L 182.981025 -24.956628 
L 183.470909 -25.075727 
L 183.960792 -25.200816 
L 184.450676 -25.331507 
L 184.940559 -25.466235 
L 185.430443 -25.606129 
L 185.920326 -25.752146 
L 186.410209 -25.902123 
L 186.900093 -26.056385 
L 187.389976 -26.217369 
L 187.87986 -26.382245 
L 188.369743 -26.551027 
L 188.859626 -26.726086 
L 189.34951 -26.905531 
L 189.839393 -27.088818 
L 190.329277 -27.277278 
L 190.81916 -27.470989 
L 191.309044 -27.66848 
L 191.798927 -27.870001 
L 192.28881 -28.077695 
L 192.778694 -28.289115 
L 193.268577 -28.504273 
L 193.758461 -28.724798 
L 194.248344 -28.949893 
L 194.738228 -29.178677 
L 195.228111 -29.411512 
L 195.717994 -29.650051 
L 196.207878 -29.892235 
L 196.697761 -30.138076 
L 197.187645 -30.388893 
L 197.677528 -30.644275 
L 198.167412 -30.903276 
L 198.657295 -31.165908 
L 199.147178 -31.434185 
L 199.637062 -31.706173 
L 200.126945 -31.981763 
L 200.616829 -32.261422 
L 201.106712 -32.546246 
L 201.596596 -32.834649 
L 202.086479 -33.126645 
L 202.576362 -33.423036 
L 203.066246 -33.724131 
L 203.556129 -34.028806 
L 204.046013 -34.337073 
L 204.535896 -34.64984 
L 205.02578 -34.967104 
L 205.515663 -35.287957 
L 206.005546 -35.612417 
L 206.49543 -35.94126 
L 206.985313 -36.274643 
L 207.475197 -36.61164 
L 207.96508 -36.952267 
L 208.454963 -37.296946 
L 208.944847 -37.646458 
L 209.43473 -37.99962 
L 209.924614 -38.356455 
L 210.414497 -38.716983 
L 210.904381 -39.082498 
L 211.394264 -39.451917 
L 211.884147 -39.825065 
L 212.374031 -40.20197 
L 212.863914 -40.582977 
L 213.353798 -40.968815 
L 213.843681 -41.35846 
L 214.333565 -41.751944 
L 214.823448 -42.149299 
L 215.313331 -42.550896 
L 215.803215 -42.957305 
L 216.293098 -43.36766 
L 216.782982 -43.781998 
L 217.272865 -44.20036 
L 217.762749 -44.622787 
L 218.252632 -45.050219 
L 218.742515 -45.481961 
L 219.232399 -45.917876 
L 219.722282 -46.358014 
L 220.212166 -46.80243 
L 220.702049 -47.251177 
L 221.191933 -47.704848 
L 221.681816 -48.163312 
L 222.171699 -48.62626 
L 222.661583 -49.093758 
L 223.151466 -49.565879 
L 223.64135 -50.042694 
L 224.131233 -50.524283 
L 224.621117 -51.010727 
L 225.111 -51.502506 
L 225.600883 -51.999527 
L 226.090767 -52.501639 
L 226.58065 -53.008945 
L 227.070534 -53.521551 
L 227.560417 -54.039569 
L 228.050301 -54.563119 
L 228.540184 -55.092327 
L 229.030067 -55.627328 
L 229.519951 -56.168263 
L 230.009834 -56.715284 
L 230.499718 -57.268552 
L 230.989601 -57.828239 
L 231.479484 -58.394527 
L 231.969368 -58.967612 
L 232.459251 -59.547701 
L 232.949135 -60.135018 
L 233.439018 -60.729801 
L 233.928902 -61.332307 
L 234.418785 -61.94281 
L 234.908668 -62.561607 
L 235.398552 -63.189014 
L 235.888435 -63.825376 
L 236.378319 -64.471062 
L 236.868202 -65.12766 
L 237.358086 -65.79461 
L 237.847969 -66.472396 
L 238.337852 -67.161551 
L 238.827736 -67.862659 
L 239.317619 -68.578446 
L 239.807503 -69.308034 
L 240.297386 -70.052042 
L 240.78727 -70.813309 
L 241.277153 -71.592719 
L 241.767036 -72.390231 
L 242.25692 -73.211756 
L 242.746803 -74.054717 
L 243.236687 -74.927399 
L 243.72657 -75.828689 
L 244.216454 -76.765384 
L 244.706337 -77.744273 
L 245.19622 -78.7714 
L 245.686104 -79.858049 
L 246.175987 -81.019883 
L 246.665871 -82.279418 
L 247.155754 -83.682436 
L 247.645638 -85.30278 
L 248.135521 -87.341981 
L 248.625404 -91.845867 
L 248.625404 -92.115378 
L 248.625404 -92.115378 
L 248.135521 -96.247919 
L 247.645638 -97.913311 
L 247.155754 -99.151238 
L 246.665871 -100.158826 
L 246.175987 -101.020216 
L 245.686104 -101.784372 
L 245.19622 -102.459368 
L 244.706337 -103.074741 
L 244.216454 -103.639287 
L 243.72657 -104.153746 
L 243.236687 -104.630946 
L 242.746803 -105.075274 
L 242.25692 -105.490198 
L 241.767036 -105.878659 
L 241.277153 -106.242953 
L 240.78727 -106.583886 
L 240.297386 -106.905309 
L 239.807503 -107.208799 
L 239.317619 -107.495755 
L 238.827736 -107.767426 
L 238.337852 -108.02493 
L 237.847969 -108.269275 
L 237.358086 -108.501376 
L 236.868202 -108.722062 
L 236.378319 -108.932092 
L 235.888435 -109.132162 
L 235.398552 -109.322909 
L 234.908668 -109.504891 
L 234.418785 -109.678384 
L 233.928902 -109.844253 
L 233.439018 -110.002961 
L 232.949135 -110.15494 
L 232.459251 -110.300592 
L 231.969368 -110.440293 
L 231.479484 -110.574395 
L 230.989601 -110.703229 
L 230.499718 -110.827105 
L 230.009834 -110.946315 
L 229.519951 -111.061134 
L 229.030067 -111.171821 
L 228.540184 -111.27862 
L 228.050301 -111.381761 
L 227.560417 -111.481464 
L 227.070534 -111.577935 
L 226.58065 -111.671369 
L 226.090767 -111.761953 
L 225.600883 -111.849862 
L 225.111 -111.935264 
L 224.621117 -112.018318 
L 224.131233 -112.099176 
L 223.64135 -112.177983 
L 223.151466 -112.254875 
L 222.661583 -112.329944 
L 222.171699 -112.403305 
L 221.681816 -112.475138 
L 221.191933 -112.545557 
L 220.702049 -112.614673 
L 220.212166 -112.682594 
L 219.722282 -112.749421 
L 219.232399 -112.815252 
L 218.742515 -112.880182 
L 218.252632 -112.944301 
L 217.762749 -113.007697 
L 217.272865 -113.070453 
L 216.782982 -113.132652 
L 216.293098 -113.194371 
L 215.803215 -113.25565 
L 215.313331 -113.316618 
L 214.823448 -113.377347 
L 214.333565 -113.437906 
L 213.843681 -113.498363 
L 213.353798 -113.558784 
L 212.863914 -113.619232 
L 212.374031 -113.67977 
L 211.884147 -113.74046 
L 211.394264 -113.801388 
L 210.904381 -113.862619 
L 210.414497 -113.924199 
L 209.924614 -113.986184 
L 209.43473 -114.048628 
L 208.944847 -114.111588 
L 208.454963 -114.175116 
L 207.96508 -114.239265 
L 207.475197 -114.30415 
L 206.985313 -114.369844 
L 206.49543 -114.436338 
L 206.005546 -114.503684 
L 205.515663 -114.571932 
L 205.02578 -114.641132 
L 204.535896 -114.711335 
L 204.046013 -114.782592 
L 203.556129 -114.855137 
L 203.066246 -114.928888 
L 202.576362 -115.003866 
L 202.086479 -115.080123 
L 201.596596 -115.157709 
L 201.106712 -115.236676 
L 200.616829 -115.317075 
L 200.126945 -115.399071 
L 199.637062 -115.482791 
L 199.147178 -115.568124 
L 198.657295 -115.655124 
L 198.167412 -115.743846 
L 197.677528 -115.834345 
L 197.187645 -115.926678 
L 196.697761 -116.020903 
L 196.207878 -116.117353 
L 195.717994 -116.215905 
L 195.228111 -116.316548 
L 194.738228 -116.419345 
L 194.248344 -116.524358 
L 193.758461 -116.631655 
L 193.268577 -116.741301 
L 192.778694 -116.853366 
L 192.28881 -116.968162 
L 191.798927 -117.085675 
L 191.309044 -117.205838 
L 190.81916 -117.328728 
L 190.329277 -117.454425 
L 189.839393 -117.583008 
L 189.34951 -117.714562 
L 188.859626 -117.849174 
L 188.369743 -117.986933 
L 187.87986 -118.127937 
L 187.389976 -118.272641 
L 186.900093 -118.420783 
L 186.410209 -118.572463 
L 185.920326 -118.727787 
L 185.430443 -118.886863 
L 184.940559 -119.049805 
L 184.450676 -119.216731 
L 183.960792 -119.387761 
L 183.470909 -119.563023 
L 182.981025 -119.742647 
L 182.491142 -119.926772 
L 182.001259 -120.115539 
L 181.511375 -120.309097 
L 181.021492 -120.507599 
L 180.531608 -120.711208 
L 180.041725 -120.92009 
L 179.551841 -121.13442 
L 179.061958 -121.354381 
L 178.572075 -121.580163 
L 178.082191 -121.811964 
L 177.592308 -122.049993 
L 177.102424 -122.294467 
L 176.612541 -122.545611 
L 176.122657 -122.803664 
L 175.632774 -123.068873 
L 175.142891 -123.341499 
L 174.653007 -123.621813 
L 174.163124 -123.910101 
L 173.67324 -124.206663 
L 173.183357 -124.51181 
L 172.693473 -124.825874 
L 172.20359 -125.149199 
L 171.713707 -125.482148 
L 171.223823 -125.826075 
L 170.73394 -126.180723 
L 170.244056 -126.546358 
L 169.754173 -126.92344 
L 169.264289 -127.312449 
L 168.774406 -127.714084 
L 168.284523 -128.130585 
L 167.794639 -128.560862 
L 167.304756 -129.005534 
L 166.814872 -129.465324 
L 166.324989 -129.943802 
L 165.835105 -130.43909 
L 165.345222 -130.952004 
L 164.855339 -131.486539 
L 164.365455 -132.041717 
L 163.875572 -132.618127 
L 163.385688 -133.221333 
L 162.895805 -133.848232 
L 162.405922 -134.504829 
L 161.916038 -135.19014 
L 161.426155 -135.909462 
L 160.936271 -136.662471 
L 160.446388 -137.456852 
L 159.956504 -138.291366 
L 159.466621 -139.174534 
L 158.976738 -140.110782 
L 158.486854 -141.071635 
L 157.996971 -141.996163 
L 157.507087 -142.8766 
L 157.017204 -143.719313 
L 156.52732 -144.526727 
L 156.037437 -145.301055 
L 155.547554 -146.044323 
L 155.05767 -146.75839 
L 154.567787 -147.444961 
L 154.077903 -148.105607 
L 153.58802 -148.741773 
L 153.098136 -149.354793 
L 152.608253 -149.9459 
L 152.11837 -150.516233 
L 151.628486 -151.066846 
L 151.138603 -151.598717 
L 150.648719 -152.112753 
L 150.158836 -152.607988 
L 149.668952 -153.08575 
L 149.179069 -153.547906 
L 148.689186 -153.995151 
L 148.199302 -154.428133 
L 147.709419 -154.847454 
L 147.219535 -155.25205 
L 146.729652 -155.64173 
L 146.239768 -156.019302 
L 145.749885 -156.385229 
L 145.260002 -156.739944 
L 144.770118 -157.08111 
L 144.280235 -157.410226 
L 143.790351 -157.729297 
L 143.300468 -158.038654 
L 142.810584 -158.336596 
L 142.320701 -158.622873 
L 141.830818 -158.900374 
L 141.340934 -159.169354 
L 140.851051 -159.427262 
L 140.361167 -159.67525 
L 139.871284 -159.915471 
L 139.381401 -160.148117 
L 138.891517 -160.36878 
L 138.401634 -160.582176 
L 137.91175 -160.788605 
L 137.421867 -160.985816 
L 136.931983 -161.174078 
L 136.4421 -161.355893 
L 135.952217 -161.530649 
L 135.462333 -161.695256 
L 134.97245 -161.853861 
L 134.482566 -162.006559 
L 133.992683 -162.149326 
L 133.502799 -162.285954 
L 133.012916 -162.417034 
L 132.523033 -162.539503 
L 132.033149 -162.655235 
L 131.543266 -162.765729 
L 131.053382 -162.868644 
L 130.563499 -162.964434 
L 130.073615 -163.05525 
L 129.583732 -163.139299 
L 129.093849 -163.215986 
L 128.603965 -163.287925 
L 128.114082 -163.353742 
L 127.624198 -163.412068 
L 127.134315 -163.46584 
L 126.644431 -163.51401 
L 126.154548 -163.554629 
L 125.664665 -163.590861 
L 125.174781 -163.621922 
L 124.684898 -163.645415 
L 124.195014 -163.664663 
L 123.705131 -163.679113 
L 123.215247 -163.685992 
L 122.725364 -163.688749 
L 122.235481 -163.687046 
L 121.745597 -163.677766 
L 121.255714 -163.664469 
L 120.76583 -163.647033 
L 120.275947 -163.621996 
L 119.786064 -163.59303 
L 119.29618 -163.56013 
L 118.806297 -163.51981 
L 118.316413 -163.475517 
L 117.82653 -163.427362 
L 117.336646 -163.372217 
L 116.846763 -163.312897 
L 116.35688 -163.249775 
L 115.866996 -163.180113 
L 115.377113 -163.106028 
L 114.887229 -163.02819 
L 114.397346 -162.944293 
L 113.907462 -162.85567 
L 113.417579 -162.763333 
L 112.927696 -162.665456 
L 112.437812 -162.562489 
L 111.947929 -162.455838 
L 111.458045 -162.344209 
L 110.968162 -162.227061 
L 110.478278 -162.106249 
L 109.988395 -161.981074 
L 109.498512 -161.849877 
L 109.008628 -161.715027 
L 108.518745 -161.576487 
L 108.028861 -161.431345 
L 107.538978 -161.282552 
L 107.049094 -161.130091 
L 106.559211 -160.971791 
L 106.069328 -160.809122 
L 105.579444 -160.642776 
L 105.089561 -160.471464 
L 104.599677 -160.294955 
L 104.109794 -160.114753 
L 103.61991 -159.930531 
L 103.130027 -159.740191 
L 102.640144 -159.546132 
L 102.15026 -159.34833 
L 101.660377 -159.144889 
L 101.170493 -158.936943 
L 100.68061 -158.725215 
L 100.190726 -158.509028 
L 99.700843 -158.287133 
L 99.21096 -158.061408 
L 98.721076 -157.831826 
L 98.231193 -157.596565 
L 97.741309 -157.35674 
L 97.251426 -157.112995 
L 96.761543 -156.865017 
L 96.271659 -156.610953 
L 95.781776 -156.352893 
L 95.291892 -156.090804 
L 94.802009 -155.823696 
L 94.312125 -155.551136 
L 93.822242 -155.274453 
L 93.332359 -154.993607 
L 92.842475 -154.707233 
L 92.352592 -154.415716 
L 91.862708 -154.119924 
L 91.372825 -153.819809 
L 90.882941 -153.513956 
L 90.393058 -153.202916 
L 89.903175 -152.887418 
L 89.413291 -152.567409 
L 88.923408 -152.241778 
L 88.433524 -151.910528 
L 87.943641 -151.574604 
L 87.453757 -151.233945 
L 86.963874 -150.888147 
L 86.473991 -150.535861 
L 85.984107 -150.178646 
L 85.494224 -149.816429 
L 85.00434 -149.449131 
L 84.514457 -149.07567 
L 84.024573 -148.69613 
L 83.53469 -148.31127 
L 83.044807 -147.920999 
L 82.554923 -147.525219 
L 82.06504 -147.12297 
L 81.575156 -146.714176 
L 81.085273 -146.299574 
L 80.595389 -145.87905 
L 80.105506 -145.452484 
L 79.615623 -145.01975 
L 79.125739 -144.579477 
L 78.635856 -144.132511 
L 78.145972 -143.678982 
L 77.656089 -143.218739 
L 77.166206 -142.751621 
L 76.676322 -142.277458 
L 76.186439 -141.796074 
L 75.696555 -141.306229 
L 75.206672 -140.808658 
L 74.716788 -140.303311 
L 74.226905 -139.789969 
L 73.737022 -139.268401 
L 73.247138 -138.738362 
L 72.757255 -138.199593 
L 72.267371 -137.65182 
L 71.777488 -137.094748 
L 71.287604 -136.528068 
L 70.797721 -135.951449 
L 70.307838 -135.364539 
L 69.817954 -134.76696 
L 69.328071 -134.158312 
L 68.838187 -133.538164 
L 68.348304 -132.906056 
L 67.85842 -132.261495 
L 67.368537 -131.603951 
L 66.878654 -130.932854 
L 66.38877 -130.247591 
L 65.898887 -129.547501 
L 65.409003 -128.831869 
L 64.91912 -128.099922 
L 64.429236 -127.350825 
L 63.939353 -126.583667 
L 63.44947 -125.797462 
L 62.959586 -124.989639 
L 62.469703 -124.158604 
L 61.979819 -123.304413 
L 61.489936 -122.425582 
L 61.000052 -121.518267 
L 60.510169 -120.579058 
L 60.020286 -119.608795 
L 59.530402 -118.600224 
L 59.040519 -117.551136 
L 58.550635 -116.456594 
L 58.060752 -115.309987 
L 57.570868 -114.10227 
L 57.080985 -112.827194 
L 56.591102 -111.470039 
L 56.101218 -110.009241 
L 55.611335 -108.422317 
L 55.121451 -106.664832 
L 54.631568 -104.680108 
L 54.141685 -102.328404 
L 53.651801 -99.271317 
L 53.161918 -92.047259 
z
" style="stroke: #008000; stroke-opacity: 0.15"/>
    </defs>
    <g clip-path="url(#p5ba6e61c73)">
     <use xlink:href="#m09c8781ff3" x="0" y="216" style="fill: #008000; fill-opacity: 0.15; stroke: #008000; stroke-opacity: 0.15"/>
    </g>
   </g>
   <g id="patch_8">
    <path d="M 106.470238 192.136032 
C 110.397349 192.136032 114.164144 190.575774 116.94103 187.798888 
C 119.717917 185.022001 121.278175 181.255206 121.278175 177.328095 
C 121.278175 173.400985 119.717917 169.63419 116.94103 166.857303 
C 114.164144 164.080416 110.397349 162.520159 106.470238 162.520159 
C 102.543127 162.520159 98.776332 164.080416 95.999446 166.857303 
C 93.222559 169.63419 91.662302 173.400985 91.662302 177.328095 
C 91.662302 181.255206 93.222559 185.022001 95.999446 187.798888 
C 98.776332 190.575774 102.543127 192.136032 106.470238 192.136032 
L 106.470238 192.136032 
z
" clip-path="url(#p5ba6e61c73)" style="fill: none; stroke-dasharray: 5.55,2.4; stroke-dashoffset: 0; stroke: #008000; stroke-width: 1.5; stroke-linejoin: miter"/>
   </g>
   <g id="patch_9">
    <path d="M 106.470238 192.136032 
C 110.397349 192.136032 114.164144 190.575774 116.94103 187.798888 
C 119.717917 185.022001 121.278175 181.255206 121.278175 177.328095 
C 121.278175 173.400985 119.717917 169.63419 116.94103 166.857303 
C 114.164144 164.080416 110.397349 162.520159 106.470238 162.520159 
C 102.543127 162.520159 98.776332 164.080416 95.999446 166.857303 
C 93.222559 169.63419 91.662302 173.400985 91.662302 177.328095 
C 91.662302 181.255206 93.222559 185.022001 95.999446 187.798888 
C 98.776332 190.575774 102.543127 192.136032 106.470238 192.136032 
z
" clip-path="url(#p5ba6e61c73)" style="fill: #008000; opacity: 0.15"/>
   </g>
   <g id="matplotlib.axis_1"/>
   <g id="matplotlib.axis_2"/>
   <g id="line2d_1">
    <path d="M 62.046429 124.019524 
L 62.170868 120.672405 
L 62.537139 117.333741 
L 63.134673 114.011989 
L 63.952899 110.715604 
L 64.981249 107.453042 
L 66.209153 104.232758 
L 67.626041 101.063208 
L 69.560883 97.338622 
L 71.734378 93.713881 
L 74.128262 90.203596 
L 76.72427 86.822378 
L 79.504138 83.584838 
L 82.449602 80.505589 
L 85.542397 77.599241 
L 88.764259 74.880406 
L 92.096925 72.363696 
L 95.522129 70.063721 
L 99.021608 67.995093 
L 102.577097 66.172423 
L 106.170333 64.610323 
L 109.78305 63.323405 
L 112.795353 62.471722 
L 115.797931 61.82974 
L 118.780217 61.405913 
L 121.731639 61.208699 
L 124.641628 61.246552 
L 127.499615 61.527929 
L 130.29503 62.061284 
L 133.017304 62.855074 
L 135.135358 63.683301 
L 137.194425 64.687946 
L 139.189094 65.873341 
L 141.113954 67.243812 
L 142.963591 68.803691 
L 144.732595 70.557306 
L 146.415555 72.508987 
L 148.007058 74.663062 
L 149.501693 77.023861 
L 150.894048 79.595714 
L 150.894048 79.595714 
L 152.650684 82.819803 
L 154.565019 85.802061 
L 156.626482 88.553055 
L 158.824504 91.083357 
L 161.148516 93.403535 
L 163.587947 95.52416 
L 166.132229 97.455801 
L 168.770792 99.209027 
L 172.046635 101.092273 
L 175.424758 102.752086 
L 178.886897 104.206731 
L 183.007878 105.668874 
L 187.189352 106.905622 
L 192.005046 108.080261 
L 197.417957 109.149023 
L 203.940106 110.178731 
L 213.569001 111.419933 
L 222.283957 112.602486 
L 226.816054 113.438131 
L 230.053717 114.252356 
L 232.566752 115.108041 
L 234.460043 115.970975 
L 236.093374 116.972718 
L 237.242724 117.926715 
L 238.188293 119.000359 
L 238.919511 120.20422 
L 239.425808 121.548868 
L 239.696615 123.044873 
L 239.721587 124.702533 
L 239.499147 126.521629 
L 239.039102 128.488276 
L 238.188293 131.022185 
L 237.028818 133.72169 
L 235.578942 136.561222 
L 233.544751 140.016872 
L 231.169154 143.587705 
L 228.481155 147.233118 
L 225.509755 150.912505 
L 222.283957 154.585263 
L 218.832766 158.210788 
L 215.185183 161.748475 
L 211.370212 165.157721 
L 207.416856 168.397921 
L 203.354117 171.428471 
L 199.210998 174.208767 
L 195.617763 176.361918 
L 192.005046 178.275807 
L 188.391111 179.924865 
L 185.391745 181.078331 
L 182.414787 182.015331 
L 179.470806 182.72107 
L 176.570371 183.180748 
L 173.724053 183.379569 
L 171.493065 183.340864 
L 169.308888 183.118165 
L 167.176932 182.703893 
L 165.102611 182.090474 
L 163.091335 181.270331 
L 161.148516 180.235887 
L 159.279566 178.979567 
L 157.489896 177.493794 
L 155.784918 175.770991 
L 154.170043 173.803583 
L 152.650684 171.583993 
L 151.232252 169.104645 
L 149.501693 165.870759 
L 148.007058 163.504909 
L 146.415555 161.337124 
L 144.732595 159.358746 
L 142.963591 157.561116 
L 140.639579 155.555066 
L 138.200148 153.800994 
L 135.655866 152.28199 
L 133.017304 150.981143 
L 130.29503 149.88154 
L 127.499615 148.96627 
L 124.063452 148.087456 
L 120.55545 147.420507 
L 116.39635 146.871187 
L 111.591006 146.488269 
L 106.170333 146.286906 
L 97.84799 146.231426 
L 88.764259 146.130138 
L 83.978724 145.857544 
L 80.468461 145.457383 
L 77.631366 144.944665 
L 74.972042 144.244434 
L 72.904913 143.496587 
L 70.98449 142.581318 
L 69.221343 141.481715 
L 67.626041 140.180867 
L 66.47775 138.983928 
L 65.449056 137.63871 
L 64.545371 136.136555 
L 63.772106 134.468805 
L 63.134673 132.6268 
L 62.638483 130.601882 
L 62.288948 128.385393 
L 62.066508 125.332193 
L 62.046429 124.019524 
L 62.046429 124.019524 
" clip-path="url(#p5ba6e61c73)" style="fill: none; stroke: #1f77b4; stroke-width: 1.5; stroke-linecap: square"/>
   </g>
   <g id="line2d_2">
    <path d="M 53.161918 123.952741 
L 53.257124 120.815309 
L 53.53764 117.635859 
L 54.135033 113.705922 
L 54.990664 109.83473 
L 56.088043 106.030858 
L 57.411496 102.301665 
L 58.946251 98.65368 
L 60.678439 95.092916 
L 62.595038 91.625128 
L 64.683787 88.255994 
L 66.933102 84.991239 
L 69.828787 81.219582 
L 72.921873 77.617193 
L 76.195298 74.195067 
L 79.632867 70.964751 
L 83.219205 67.938406 
L 86.939746 65.128884 
L 90.780739 62.549852 
L 94.064235 60.587266 
L 97.415353 58.804026 
L 100.827417 57.209998 
L 104.294045 55.815959 
L 107.809006 54.633803 
L 111.36597 53.676772 
L 114.958112 52.959671 
L 118.577529 52.499019 
L 121.486212 52.327328 
L 124.39986 52.34138 
L 127.310669 52.551501 
L 130.208992 52.967977 
L 133.083126 53.600518 
L 135.919296 54.457608 
L 138.701913 55.545815 
L 141.414154 56.869194 
L 144.038818 58.428935 
L 146.559355 60.223371 
L 148.960847 62.248395 
L 151.230785 64.49822 
L 153.359465 66.966325 
L 155.339997 69.64639 
L 157.167969 72.533072 
L 158.812659 75.566497 
L 160.294968 78.291678 
L 161.862633 80.73414 
L 163.538344 82.970479 
L 165.318782 85.020078 
L 167.202276 86.900384 
L 169.597352 88.954304 
L 172.138056 90.807275 
L 174.821058 92.476012 
L 177.640192 93.973827 
L 180.586104 95.311972 
L 184.166626 96.685189 
L 187.879088 97.871841 
L 192.248925 99.022491 
L 197.275647 100.090236 
L 202.925415 101.049858 
L 210.240293 102.053871 
L 224.191877 103.910599 
L 228.696875 104.754727 
L 232.081311 105.590654 
L 234.910727 106.49584 
L 237.226116 107.437104 
L 239.502439 108.609079 
L 241.282726 109.760949 
L 242.998007 111.145817 
L 244.598595 112.79432 
L 245.681598 114.20879 
L 246.62669 115.764474 
L 247.403724 117.436945 
L 247.992361 119.192352 
L 248.385619 120.994346 
L 248.5892 122.811409 
L 248.591704 125.212453 
L 248.338542 127.534249 
L 247.882285 129.79179 
L 247.075713 132.562071 
L 246.041357 135.310454 
L 244.530466 138.613658 
L 242.748459 141.942415 
L 240.713674 145.302919 
L 238.04137 149.257893 
L 235.070381 153.233053 
L 231.824186 157.20365 
L 228.326201 161.140324 
L 224.599701 165.010771 
L 220.667575 168.780749 
L 216.551987 172.414662 
L 212.273965 175.875856 
L 208.49255 178.676609 
L 204.616969 181.298399 
L 200.656564 183.715894 
L 196.618771 185.902366 
L 193.198675 187.527194 
L 189.730333 188.953139 
L 186.214632 190.159463 
L 182.652053 191.122285 
L 179.768968 191.698586 
L 176.85833 192.084712 
L 173.923937 192.262082 
L 170.972892 192.210386 
L 168.016947 191.908493 
L 165.07359 191.336097 
L 162.166349 190.476019 
L 160.026666 189.634957 
L 157.93642 188.623305 
L 155.908683 187.441531 
L 153.95556 186.09251 
L 152.087383 184.581016 
L 150.312162 182.912963 
L 148.63539 181.094585 
L 147.060156 179.131669 
L 145.119396 176.297665 
L 143.359381 173.222521 
L 141.546469 169.877244 
L 140.061767 167.655568 
L 138.500074 165.715078 
L 136.861916 164.019333 
L 135.141924 162.534663 
L 133.330798 161.232577 
L 131.418112 160.090987 
L 128.976647 158.910899 
L 126.368097 157.920632 
L 123.593147 157.107012 
L 120.660732 156.458288 
L 117.060903 155.892397 
L 112.748549 155.466381 
L 107.703494 155.213319 
L 100.772621 155.118221 
L 87.880367 154.988886 
L 83.223084 154.710115 
L 79.177391 154.24784 
L 75.732958 153.624241 
L 72.881829 152.895203 
L 70.057042 151.928057 
L 67.829558 150.949286 
L 65.651039 149.760505 
L 63.55006 148.340289 
L 61.563914 146.67622 
L 59.734565 144.769121 
L 58.489603 143.187971 
L 57.368727 141.489111 
L 56.380955 139.684999 
L 55.277788 137.136742 
L 54.417482 134.446281 
L 53.790608 131.627207 
L 53.384298 128.682921 
L 53.186044 125.608503 
L 53.161923 124.086981 
L 53.161923 124.086981 
" clip-path="url(#p5ba6e61c73)" style="fill: none; stroke-dasharray: 5.55,2.4; stroke-dashoffset: 0; stroke: #008000; stroke-width: 1.5"/>
   </g>
   <g id="patch_10">
    <path d="M 39.834524 199.54 
L 39.834524 12.96 
" style="fill: none; stroke: #000000; stroke-width: 0.8; stroke-linejoin: miter; stroke-linecap: square"/>
   </g>
   <g id="patch_11">
    <path d="M 284.165476 199.54 
L 284.165476 12.96 
" style="fill: none; stroke: #000000; stroke-width: 0.8; stroke-linejoin: miter; stroke-linecap: square"/>
   </g>
   <g id="patch_12">
    <path d="M 39.834524 199.54 
L 284.165476 199.54 
" style="fill: none; stroke: #000000; stroke-width: 0.8; stroke-linejoin: miter; stroke-linecap: square"/>
   </g>
   <g id="patch_13">
    <path d="M 39.834524 12.96 
L 284.165476 12.96 
" style="fill: none; stroke: #000000; stroke-width: 0.8; stroke-linejoin: miter; stroke-linecap: square"/>
   </g>
   <g id="legend_1">
    <g id="patch_14">
     <path d="M 205.685476 93.015 
L 275.765476 93.015 
Q 278.165476 93.015 278.165476 90.615 
L 278.165476 21.36 
Q 278.165476 18.96 275.765476 18.96 
L 205.685476 18.96 
Q 203.285476 18.96 203.285476 21.36 
L 203.285476 90.615 
Q 203.285476 93.015 205.685476 93.015 
z
" style="fill: #ffffff; opacity: 0.8; stroke: #cccccc; stroke-linejoin: miter"/>
    </g>
    <g id="patch_15">
     <path d="M 208.085476 32.878125 
L 232.085476 32.878125 
L 232.085476 24.478125 
L 208.085476 24.478125 
L 208.085476 32.878125 
z
" style="fill: none; stroke: #1f77b4; stroke-linejoin: miter"/>
    </g>
    <g id="patch_16">
     <path d="M 208.085476 32.878125 
L 232.085476 32.878125 
L 232.085476 24.478125 
L 208.085476 24.478125 
z
" style="fill: #1f77b4; opacity: 0.1"/>
    </g>
    <g id="text_1">
     <!-- $A$ -->
     <g transform="translate(241.685476 32.878125)scale(0.12 -0.12)">
      <defs>
       <path id="Cmmi10-41" d="M 288 0 
Q 225 0 225 84 
Q 250 225 306 225 
Q 566 225 755 328 
Q 944 431 1081 647 
Q 1094 659 1094 659 
L 3378 4513 
Q 3428 4581 3500 4581 
L 3584 4581 
Q 3603 4581 3622 4573 
Q 3641 4566 3655 4548 
Q 3669 4531 3669 4513 
L 4056 378 
Q 4056 350 4084 294 
Q 4147 225 4563 225 
Q 4628 225 4628 141 
Q 4606 56 4592 28 
Q 4578 0 4519 0 
L 2919 0 
Q 2859 0 2859 84 
Q 2894 225 2944 225 
Q 3450 225 3481 397 
L 3384 1453 
L 1806 1453 
L 1294 594 
Q 1247 525 1247 434 
Q 1247 322 1355 273 
Q 1463 225 1594 225 
Q 1656 225 1656 141 
Q 1634 50 1621 25 
Q 1609 0 1550 0 
L 288 0 
z
M 1931 1678 
L 3359 1678 
L 3169 3750 
L 1931 1678 
z
" transform="scale(0.015625)"/>
      </defs>
      <use xlink:href="#Cmmi10-41" transform="translate(0 0.421875)"/>
     </g>
    </g>
    <g id="patch_17">
     <path d="M 208.085476 50.491875 
L 232.085476 50.491875 
L 232.085476 42.091875 
L 208.085476 42.091875 
L 208.085476 50.491875 
z
" style="fill: none; stroke-dasharray: 3.7,1.6; stroke-dashoffset: 0; stroke: #008000; stroke-linejoin: miter"/>
    </g>
    <g id="patch_18">
     <path d="M 208.085476 50.491875 
L 232.085476 50.491875 
L 232.085476 42.091875 
L 208.085476 42.091875 
z
" style="fill: #008000; opacity: 0.1"/>
    </g>
    <g id="text_2">
     <!-- $A \oplus B$ -->
     <g transform="translate(241.685476 50.491875)scale(0.12 -0.12)">
      <defs>
       <path id="Cmsy10-a9" d="M 2491 -531 
Q 2053 -531 1668 -365 
Q 1284 -200 986 95 
Q 688 391 523 780 
Q 359 1169 359 1600 
Q 359 2038 521 2422 
Q 684 2806 984 3106 
Q 1284 3406 1668 3568 
Q 2053 3731 2491 3731 
Q 2925 3731 3312 3565 
Q 3700 3400 3994 3104 
Q 4288 2809 4452 2421 
Q 4616 2034 4616 1600 
Q 4616 1172 4450 780 
Q 4284 388 3992 95 
Q 3700 -197 3312 -364 
Q 2925 -531 2491 -531 
z
M 2394 -347 
L 2394 1509 
L 544 1509 
Q 544 1047 806 617 
Q 1069 188 1500 -79 
Q 1931 -347 2394 -347 
z
M 2578 -347 
Q 2928 -347 3259 -195 
Q 3591 -44 3859 228 
Q 4128 500 4278 831 
Q 4428 1163 4428 1509 
L 2578 1509 
L 2578 -347 
z
M 544 1697 
L 2394 1697 
L 2394 3547 
Q 1931 3547 1501 3283 
Q 1072 3019 808 2589 
Q 544 2159 544 1697 
z
M 2578 1697 
L 4428 1697 
Q 4428 2047 4279 2376 
Q 4131 2706 3859 2978 
Q 3588 3250 3258 3398 
Q 2928 3547 2578 3547 
L 2578 1697 
z
" transform="scale(0.015625)"/>
       <path id="Cmmi10-42" d="M 319 0 
Q 256 0 256 84 
Q 259 100 268 137 
Q 278 175 293 200 
Q 309 225 341 225 
Q 522 225 656 234 
Q 791 244 884 269 
Q 959 297 1006 441 
L 1881 3956 
Q 1894 4019 1894 4044 
Q 1894 4113 1819 4122 
Q 1697 4147 1356 4147 
Q 1294 4147 1294 4231 
Q 1297 4247 1306 4286 
Q 1316 4325 1333 4348 
Q 1350 4372 1375 4372 
L 3669 4372 
Q 3878 4372 4083 4320 
Q 4288 4269 4461 4156 
Q 4634 4044 4736 3876 
Q 4838 3709 4838 3488 
Q 4838 3247 4714 3040 
Q 4591 2834 4395 2681 
Q 4200 2528 3973 2429 
Q 3747 2331 3500 2284 
Q 3675 2284 3854 2215 
Q 4034 2147 4175 2028 
Q 4316 1909 4402 1743 
Q 4488 1578 4488 1388 
Q 4488 1003 4219 684 
Q 3950 366 3542 183 
Q 3134 0 2753 0 
L 319 0 
z
M 1497 275 
Q 1497 225 1716 225 
L 2631 225 
Q 2944 225 3231 398 
Q 3519 572 3692 859 
Q 3866 1147 3866 1459 
Q 3866 1650 3786 1820 
Q 3706 1991 3556 2089 
Q 3406 2188 3213 2188 
L 1966 2188 
L 1522 416 
Q 1497 328 1497 275 
z
M 2009 2356 
L 2981 2356 
Q 3288 2356 3577 2512 
Q 3866 2669 4048 2937 
Q 4231 3206 4231 3506 
Q 4231 3784 4057 3965 
Q 3884 4147 3609 4147 
L 2731 4147 
Q 2559 4147 2500 4115 
Q 2441 4084 2400 3928 
L 2009 2356 
z
" transform="scale(0.015625)"/>
      </defs>
      <use xlink:href="#Cmmi10-41" transform="translate(0 0.421875)"/>
      <use xlink:href="#Cmsy10-a9" transform="translate(92.558594 0.421875)"/>
      <use xlink:href="#Cmmi10-42" transform="translate(187.802734 0.421875)"/>
     </g>
    </g>
    <g id="patch_19">
     <path d="M 220.085476 70.905625 
C 221.941898 70.905625 223.722535 70.168061 225.035224 68.855372 
C 226.347912 67.542684 227.085476 65.762047 227.085476 63.905625 
C 227.085476 62.049203 226.347912 60.268566 225.035224 58.955878 
C 223.722535 57.643189 221.941898 56.905625 220.085476 56.905625 
C 218.229054 56.905625 216.448417 57.643189 215.135729 58.955878 
C 213.82304 60.268566 213.085476 62.049203 213.085476 63.905625 
C 213.085476 65.762047 213.82304 67.542684 215.135729 68.855372 
C 216.448417 70.168061 218.229054 70.905625 220.085476 70.905625 
z
" style="fill: #ff0000; opacity: 0.15"/>
    </g>
    <g id="patch_20">
     <path d="M 220.085476 70.905625 
C 221.941898 70.905625 223.722535 70.168061 225.035224 68.855372 
C 226.347912 67.542684 227.085476 65.762047 227.085476 63.905625 
C 227.085476 62.049203 226.347912 60.268566 225.035224 58.955878 
C 223.722535 57.643189 221.941898 56.905625 220.085476 56.905625 
C 218.229054 56.905625 216.448417 57.643189 215.135729 58.955878 
C 213.82304 60.268566 213.085476 62.049203 213.085476 63.905625 
C 213.085476 65.762047 213.82304 67.542684 215.135729 68.855372 
C 216.448417 70.168061 218.229054 70.905625 220.085476 70.905625 
L 220.085476 70.905625 
z
" style="fill: none; stroke: #ff0000; stroke-width: 2; stroke-linejoin: miter"/>
    </g>
    <g id="text_3">
     <!-- $A$ -->
     <g transform="translate(241.685476 68.105625)scale(0.12 -0.12)">
      <use xlink:href="#Cmmi10-41" transform="translate(0 0.421875)"/>
     </g>
    </g>
    <g id="PathCollection_2">
     <g>
      <use xlink:href="#mbd99de486c" x="220.085476" y="82.569375" style="fill: #ff0000; stroke: #ff0000; stroke-width: 1.5"/>
     </g>
    </g>
    <g id="text_4">
     <!-- $0$ -->
     <g transform="translate(241.685476 85.719375)scale(0.12 -0.12)">
      <defs>
       <path id="Cmr10-30" d="M 1600 -141 
Q 816 -141 533 504 
Q 250 1150 250 2041 
Q 250 2597 351 3087 
Q 453 3578 754 3920 
Q 1056 4263 1600 4263 
Q 2022 4263 2290 4056 
Q 2559 3850 2700 3523 
Q 2841 3197 2892 2823 
Q 2944 2450 2944 2041 
Q 2944 1491 2842 1011 
Q 2741 531 2444 195 
Q 2147 -141 1600 -141 
z
M 1600 25 
Q 1956 25 2131 390 
Q 2306 756 2347 1200 
Q 2388 1644 2388 2144 
Q 2388 2625 2347 3031 
Q 2306 3438 2132 3767 
Q 1959 4097 1600 4097 
Q 1238 4097 1063 3765 
Q 888 3434 847 3029 
Q 806 2625 806 2144 
Q 806 1788 823 1472 
Q 841 1156 916 820 
Q 991 484 1158 254 
Q 1325 25 1600 25 
z
" transform="scale(0.015625)"/>
      </defs>
      <use xlink:href="#Cmr10-30" transform="translate(0 0.390625)"/>
     </g>
    </g>
   </g>
  </g>
 </g>
 <defs>
  <clipPath id="p5ba6e61c73">
   <rect x="39.834524" y="12.96" width="244.330952" height="186.58"/>
  </clipPath>
 </defs>
</svg>
