<?xml version="1.0" encoding="utf-8" standalone="no"?>
<!DOCTYPE svg PUBLIC "-//W3C//DTD SVG 1.1//EN"
  "http://www.w3.org/Graphics/SVG/1.1/DTD/svg11.dtd">
<svg xmlns:xlink="http://www.w3.org/1999/xlink" width="324pt" height="216pt" viewBox="0 0 324 216" xmlns="http://www.w3.org/2000/svg" version="1.1">
 <metadata>
  <rdf:RDF xmlns:dc="http://purl.org/dc/elements/1.1/" xmlns:cc="http://creativecommons.org/ns#" xmlns:rdf="http://www.w3.org/1999/02/22-rdf-syntax-ns#">
   <cc:Work>
    <dc:type rdf:resource="http://purl.org/dc/dcmitype/StillImage"/>
    <dc:date>2024-02-14T11:40:11.713381</dc:date>
    <dc:format>image/svg+xml</dc:format>
    <dc:creator>
     <cc:Agent>
      <dc:title>Matplotlib v3.5.3, https://matplotlib.org/</dc:title>
     </cc:Agent>
    </dc:creator>
   </cc:Work>
  </rdf:RDF>
 </metadata>
 <defs>
  <style type="text/css">*{stroke-linejoin: round; stroke-linecap: butt}</style>
 </defs>
 <g id="figure_1">
  <g id="patch_1">
   <path d="M 0 216 
L 324 216 
L 324 0 
L 0 0 
L 0 216 
z
" style="fill: none"/>
  </g>
  <g id="axes_1">
   <g id="patch_2">
    <path d="M 39.834524 199.54 
L 284.165476 199.54 
L 284.165476 12.96 
L 39.834524 12.96 
L 39.834524 199.54 
z
" style="fill: none"/>
   </g>
   <g id="PolyCollection_1">
    <defs>
     <path id="mc312f2cecc" d="M 62.046429 -91.980476 
L 62.046429 -91.980476 
L 62.49178 -86.203817 
L 62.937132 -84.09555 
L 63.382483 -82.590919 
L 63.827834 -81.397745 
L 64.273186 -80.402937 
L 64.718537 -79.547135 
L 65.163889 -78.797997 
L 65.60924 -78.132632 
L 66.054592 -77.5344 
L 66.499943 -76.990927 
L 66.945295 -76.498155 
L 67.390646 -76.044905 
L 67.835998 -75.628474 
L 68.281349 -75.242596 
L 68.726701 -74.886746 
L 69.172052 -74.554352 
L 69.617404 -74.245651 
L 70.062755 -73.95822 
L 70.508107 -73.688778 
L 70.953458 -73.436054 
L 71.39881 -73.200072 
L 71.844161 -72.97913 
L 72.289512 -72.771392 
L 72.734864 -72.576006 
L 73.180215 -72.392189 
L 73.625567 -72.219216 
L 74.070918 -72.056419 
L 74.51627 -71.90318 
L 74.961621 -71.758927 
L 75.406973 -71.623211 
L 75.852324 -71.495531 
L 76.297676 -71.375254 
L 76.743027 -71.261966 
L 77.188379 -71.15528 
L 77.63373 -71.054834 
L 78.079082 -70.960464 
L 78.524433 -70.871753 
L 78.969785 -70.788364 
L 79.415136 -70.71001 
L 79.860488 -70.636423 
L 80.305839 -70.567349 
L 80.75119 -70.502552 
L 81.196542 -70.441808 
L 81.641893 -70.384905 
L 82.087245 -70.331647 
L 82.532596 -70.281844 
L 82.977948 -70.23532 
L 83.423299 -70.192231 
L 83.868651 -70.152256 
L 84.314002 -70.115061 
L 84.759354 -70.0805 
L 85.204705 -70.048437 
L 85.650057 -70.018742 
L 86.095408 -69.991292 
L 86.54076 -69.966315 
L 86.986111 -69.94346 
L 87.431463 -69.922476 
L 87.876814 -69.903261 
L 88.322166 -69.88572 
L 88.767517 -69.869759 
L 89.212868 -69.855687 
L 89.65822 -69.84299 
L 90.103571 -69.831572 
L 90.548923 -69.821358 
L 90.994274 -69.812273 
L 91.439626 -69.804518 
L 91.884977 -69.797761 
L 92.330329 -69.791877 
L 92.77568 -69.786804 
L 93.221032 -69.782499 
L 93.666383 -69.779094 
L 94.111735 -69.77627 
L 94.557086 -69.773974 
L 95.002438 -69.772156 
L 95.447789 -69.770845 
L 95.893141 -69.769929 
L 96.338492 -69.769287 
L 96.783844 -69.768875 
L 97.229195 -69.768664 
L 97.674546 -69.768596 
L 98.119898 -69.768572 
L 98.565249 -69.768552 
L 99.010601 -69.768497 
L 99.455952 -69.768292 
L 99.901304 -69.767917 
L 100.346655 -69.767338 
L 100.792007 -69.766519 
L 101.237358 -69.765247 
L 101.68271 -69.763605 
L 102.128061 -69.761562 
L 102.573413 -69.759079 
L 103.018764 -69.75585 
L 103.464116 -69.75206 
L 103.909467 -69.747679 
L 104.354819 -69.742642 
L 104.80017 -69.736592 
L 105.245522 -69.729795 
L 105.690873 -69.722223 
L 106.136224 -69.713743 
L 106.581576 -69.704022 
L 107.026927 -69.693369 
L 107.472279 -69.681756 
L 107.91763 -69.668943 
L 108.362982 -69.654699 
L 108.808333 -69.639338 
L 109.253685 -69.622831 
L 109.699036 -69.604782 
L 110.144388 -69.585153 
L 110.589739 -69.564216 
L 111.035091 -69.541942 
L 111.480442 -69.517739 
L 111.925794 -69.491838 
L 112.371145 -69.464431 
L 112.816497 -69.435485 
L 113.261848 -69.404185 
L 113.7072 -69.371087 
L 114.152551 -69.336274 
L 114.597902 -69.299703 
L 115.043254 -69.260337 
L 115.488605 -69.219069 
L 115.933957 -69.175859 
L 116.379308 -69.130547 
L 116.82466 -69.082211 
L 117.270011 -69.031733 
L 117.715363 -68.979067 
L 118.160714 -68.923969 
L 118.606066 -68.865566 
L 119.051417 -68.804756 
L 119.496769 -68.741488 
L 119.94212 -68.675507 
L 120.387472 -68.605844 
L 120.832823 -68.533482 
L 121.278175 -68.458359 
L 121.723526 -68.380335 
L 122.168878 -68.298105 
L 122.614229 -68.212846 
L 123.05958 -68.124488 
L 123.504932 -68.032958 
L 123.950283 -67.936943 
L 124.395635 -67.837299 
L 124.840986 -67.734173 
L 125.286338 -67.627477 
L 125.731689 -67.516403 
L 126.177041 -67.400709 
L 126.622392 -67.281095 
L 127.067744 -67.157459 
L 127.513095 -67.029691 
L 127.958447 -66.89625 
L 128.403798 -66.75821 
L 128.84915 -66.615623 
L 129.294501 -66.468362 
L 129.739853 -66.316269 
L 130.185204 -66.157596 
L 130.630556 -65.993771 
L 131.075907 -65.824641 
L 131.521259 -65.650044 
L 131.96661 -65.469811 
L 132.411961 -65.282604 
L 132.857313 -65.088872 
L 133.302664 -64.888902 
L 133.748016 -64.682489 
L 134.193367 -64.469419 
L 134.638719 -64.249466 
L 135.08407 -64.02136 
L 135.529422 -63.785319 
L 135.974773 -63.541622 
L 136.420125 -63.289992 
L 136.865476 -63.03014 
L 137.310828 -62.761756 
L 137.756179 -62.484519 
L 138.201531 -62.198083 
L 138.646882 -61.900829 
L 139.092234 -61.593621 
L 139.537585 -61.27609 
L 139.982937 -60.947813 
L 140.428288 -60.608338 
L 140.873639 -60.257187 
L 141.318991 -59.893851 
L 141.764342 -59.517788 
L 142.209694 -59.128421 
L 142.655045 -58.725135 
L 143.100397 -58.307272 
L 143.545748 -57.87413 
L 143.9911 -57.424959 
L 144.436451 -56.958954 
L 144.881803 -56.475251 
L 145.327154 -55.972924 
L 145.772506 -55.450978 
L 146.217857 -54.90834 
L 146.663209 -54.343854 
L 147.10856 -53.756273 
L 147.553912 -53.144247 
L 147.999263 -52.506316 
L 148.444615 -51.837751 
L 148.889966 -51.138848 
L 149.335317 -50.408072 
L 149.780669 -49.643278 
L 150.22602 -48.841026 
L 150.671372 -47.993188 
L 151.116723 -47.121255 
L 151.562075 -46.27884 
L 152.007426 -45.487896 
L 152.452778 -44.73936 
L 152.898129 -44.029435 
L 153.343481 -43.355778 
L 153.788832 -42.716737 
L 154.234184 -42.112753 
L 154.679535 -41.538508 
L 155.124887 -40.992404 
L 155.570238 -40.47297 
L 156.01559 -39.978842 
L 156.460941 -39.508757 
L 156.906293 -39.061544 
L 157.351644 -38.636116 
L 157.796995 -38.231459 
L 158.242347 -37.846631 
L 158.687698 -37.480754 
L 159.13305 -37.133005 
L 159.578401 -36.802619 
L 160.023753 -36.488876 
L 160.469104 -36.191104 
L 160.914456 -35.908673 
L 161.359807 -35.64099 
L 161.805159 -35.387498 
L 162.25051 -35.147674 
L 162.695862 -34.921026 
L 163.141213 -34.707088 
L 163.586565 -34.505465 
L 164.031916 -34.317293 
L 164.477268 -34.140624 
L 164.922619 -33.97508 
L 165.367971 -33.820308 
L 165.813322 -33.67597 
L 166.258673 -33.541751 
L 166.704025 -33.417347 
L 167.149376 -33.303171 
L 167.594728 -33.199579 
L 168.040079 -33.10498 
L 168.485431 -33.019126 
L 168.930782 -32.941782 
L 169.376134 -32.872726 
L 169.821485 -32.812393 
L 170.266837 -32.76146 
L 170.712188 -32.71818 
L 171.15754 -32.682369 
L 171.602891 -32.653853 
L 172.048243 -32.632462 
L 172.493594 -32.620257 
L 172.938946 -32.614864 
L 173.384297 -32.616102 
L 173.829649 -32.623834 
L 174.275 -32.638182 
L 174.720351 -32.660779 
L 175.165703 -32.689446 
L 175.611054 -32.724067 
L 176.056406 -32.764531 
L 176.501757 -32.811947 
L 176.947109 -32.866036 
L 177.39246 -32.92562 
L 177.837812 -32.990605 
L 178.283163 -33.061268 
L 178.728515 -33.139047 
L 179.173866 -33.221927 
L 179.619218 -33.309831 
L 180.064569 -33.402686 
L 180.509921 -33.502523 
L 180.955272 -33.607254 
L 181.400624 -33.716687 
L 181.845975 -33.830759 
L 182.291327 -33.951263 
L 182.736678 -34.076593 
L 183.182029 -34.206347 
L 183.627381 -34.340474 
L 184.072732 -34.480718 
L 184.518084 -34.625558 
L 184.963435 -34.774586 
L 185.408787 -34.927759 
L 185.854138 -35.086909 
L 186.29949 -35.250317 
L 186.744841 -35.417711 
L 187.190193 -35.589054 
L 187.635544 -35.766361 
L 188.080896 -35.947521 
L 188.526247 -36.132494 
L 188.971599 -36.321527 
L 189.41695 -36.516044 
L 189.862302 -36.714253 
L 190.307653 -36.91613 
L 190.753005 -37.122238 
L 191.198356 -37.333328 
L 191.643707 -37.547984 
L 192.089059 -37.76619 
L 192.53441 -37.988816 
L 192.979762 -38.215947 
L 193.425113 -38.446541 
L 193.870465 -38.680587 
L 194.315816 -38.919237 
L 194.761168 -39.161963 
L 195.206519 -39.408071 
L 195.651871 -39.657553 
L 196.097222 -39.911792 
L 196.542574 -40.169749 
L 196.987925 -40.431025 
L 197.433277 -40.695616 
L 197.878628 -40.965066 
L 198.32398 -41.237964 
L 198.769331 -41.514137 
L 199.214683 -41.793585 
L 199.660034 -42.077922 
L 200.105385 -42.365544 
L 200.550737 -42.656415 
L 200.996088 -42.950538 
L 201.44144 -43.24949 
L 201.886791 -43.551691 
L 202.332143 -43.857131 
L 202.777494 -44.16582 
L 203.222846 -44.479167 
L 203.668197 -44.795871 
L 204.113549 -45.115824 
L 204.5589 -45.439039 
L 205.004252 -45.766614 
L 205.449603 -46.097818 
L 205.894955 -46.432299 
L 206.340306 -46.770075 
L 206.785658 -47.111761 
L 207.231009 -47.457537 
L 207.676361 -47.806638 
L 208.121712 -48.159087 
L 208.567063 -48.514908 
L 209.012415 -48.87532 
L 209.457766 -49.239215 
L 209.903118 -49.606534 
L 210.348469 -49.977306 
L 210.793821 -50.351766 
L 211.239172 -50.730717 
L 211.684524 -51.113193 
L 212.129875 -51.49923 
L 212.575227 -51.888866 
L 213.020578 -52.282176 
L 213.46593 -52.680199 
L 213.911281 -53.081921 
L 214.356633 -53.487389 
L 214.801984 -53.896652 
L 215.247336 -54.309759 
L 215.692687 -54.727033 
L 216.138039 -55.148912 
L 216.58339 -55.574779 
L 217.028741 -56.004697 
L 217.474093 -56.438731 
L 217.919444 -56.876952 
L 218.364796 -57.319431 
L 218.810147 -57.766506 
L 219.255499 -58.218443 
L 219.70085 -58.674851 
L 220.146202 -59.13582 
L 220.591553 -59.601446 
L 221.036905 -60.071829 
L 221.482256 -60.547075 
L 221.927608 -61.027299 
L 222.372959 -61.51262 
L 222.818311 -62.003166 
L 223.263662 -62.499072 
L 223.709014 -63.000483 
L 224.154365 -63.507584 
L 224.599717 -64.020623 
L 225.045068 -64.539597 
L 225.49042 -65.064687 
L 225.935771 -65.596088 
L 226.381122 -66.13401 
L 226.826474 -66.678835 
L 227.271825 -67.230811 
L 227.717177 -67.790134 
L 228.162528 -68.357091 
L 228.60788 -68.931992 
L 229.053231 -69.515173 
L 229.498583 -70.106995 
L 229.943934 -70.707852 
L 230.389286 -71.318172 
L 230.834637 -71.939043 
L 231.279989 -72.571409 
L 231.72534 -73.215021 
L 232.170692 -73.870517 
L 232.616043 -74.539795 
L 233.061395 -75.224131 
L 233.506746 -75.923108 
L 233.952098 -76.64049 
L 234.397449 -77.376277 
L 234.8428 -78.133858 
L 235.288152 -78.914464 
L 235.733503 -79.724109 
L 236.178855 -80.564612 
L 236.624206 -81.442388 
L 237.069558 -82.365982 
L 237.514909 -83.347051 
L 237.960261 -84.401973 
L 238.405612 -85.560849 
L 238.850964 -86.880804 
L 239.296315 -88.508928 
L 239.741667 -91.980476 
L 239.741667 -91.980476 
L 239.741667 -91.980476 
L 239.296315 -94.871248 
L 238.850964 -95.929954 
L 238.405612 -96.688307 
L 237.960261 -97.292165 
L 237.514909 -97.797943 
L 237.069558 -98.235221 
L 236.624206 -98.620123 
L 236.178855 -98.964046 
L 235.733503 -99.275258 
L 235.288152 -99.559893 
L 234.8428 -99.820029 
L 234.397449 -100.061157 
L 233.952098 -100.284656 
L 233.506746 -100.493601 
L 233.061395 -100.688314 
L 232.616043 -100.871972 
L 232.170692 -101.044524 
L 231.72534 -101.207168 
L 231.279989 -101.361484 
L 230.834637 -101.508107 
L 230.389286 -101.64708 
L 229.943934 -101.779232 
L 229.498583 -101.905443 
L 229.053231 -102.026137 
L 228.60788 -102.141707 
L 228.162528 -102.252513 
L 227.717177 -102.358891 
L 227.271825 -102.461148 
L 226.826474 -102.559572 
L 226.381122 -102.654392 
L 225.935771 -102.745859 
L 225.49042 -102.834276 
L 225.045068 -102.919848 
L 224.599717 -103.002769 
L 224.154365 -103.08322 
L 223.709014 -103.161302 
L 223.263662 -103.237214 
L 222.818311 -103.311122 
L 222.372959 -103.383168 
L 221.927608 -103.453486 
L 221.482256 -103.522204 
L 221.036905 -103.589438 
L 220.591553 -103.6553 
L 220.146202 -103.719896 
L 219.70085 -103.783324 
L 219.255499 -103.845679 
L 218.810147 -103.907047 
L 218.364796 -103.967423 
L 217.919444 -104.026944 
L 217.474093 -104.085737 
L 217.028741 -104.143874 
L 216.58339 -104.201425 
L 216.138039 -104.258453 
L 215.692687 -104.315019 
L 215.247336 -104.371127 
L 214.801984 -104.426891 
L 214.356633 -104.48239 
L 213.911281 -104.537676 
L 213.46593 -104.592797 
L 213.020578 -104.647798 
L 212.575227 -104.702726 
L 212.129875 -104.757655 
L 211.684524 -104.812626 
L 211.239172 -104.86768 
L 210.793821 -104.922851 
L 210.348469 -104.978241 
L 209.903118 -105.033868 
L 209.457766 -105.089754 
L 209.012415 -105.145931 
L 208.567063 -105.20244 
L 208.121712 -105.259454 
L 207.676361 -105.316889 
L 207.231009 -105.374771 
L 206.785658 -105.433127 
L 206.340306 -105.492114 
L 205.894955 -105.551761 
L 205.449603 -105.611999 
L 205.004252 -105.672852 
L 204.5589 -105.734419 
L 204.113549 -105.796904 
L 203.668197 -105.860115 
L 203.222846 -105.924072 
L 202.777494 -105.988827 
L 202.332143 -106.054748 
L 201.886791 -106.121524 
L 201.44144 -106.189173 
L 200.996088 -106.257719 
L 200.550737 -106.327658 
L 200.105385 -106.398576 
L 199.660034 -106.47049 
L 199.214683 -106.543433 
L 198.769331 -106.617963 
L 198.32398 -106.693595 
L 197.878628 -106.770345 
L 197.433277 -106.848296 
L 196.987925 -106.92799 
L 196.542574 -107.00891 
L 196.097222 -107.091073 
L 195.651871 -107.174651 
L 195.206519 -107.260093 
L 194.761168 -107.346885 
L 194.315816 -107.435049 
L 193.870465 -107.524892 
L 193.425113 -107.616678 
L 192.979762 -107.709948 
L 192.53441 -107.804723 
L 192.089059 -107.901486 
L 191.643707 -108.000241 
L 191.198356 -108.100621 
L 190.753005 -108.202646 
L 190.307653 -108.307008 
L 189.862302 -108.413391 
L 189.41695 -108.521548 
L 188.971599 -108.631503 
L 188.526247 -108.744173 
L 188.080896 -108.858886 
L 187.635544 -108.975535 
L 187.190193 -109.094154 
L 186.744841 -109.21587 
L 186.29949 -109.339668 
L 185.854138 -109.46558 
L 185.408787 -109.593769 
L 184.963435 -109.725197 
L 184.518084 -109.858901 
L 184.072732 -109.994917 
L 183.627381 -110.133491 
L 183.182029 -110.27551 
L 182.736678 -110.420019 
L 182.291327 -110.567063 
L 181.845975 -110.716889 
L 181.400624 -110.870465 
L 180.955272 -111.026774 
L 180.509921 -111.185866 
L 180.064569 -111.347872 
L 179.619218 -111.514079 
L 179.173866 -111.683291 
L 178.728515 -111.85557 
L 178.283163 -112.030979 
L 177.837812 -112.21079 
L 177.39246 -112.394143 
L 176.947109 -112.580887 
L 176.501757 -112.771095 
L 176.056406 -112.965537 
L 175.611054 -113.164427 
L 175.165703 -113.367077 
L 174.720351 -113.573577 
L 174.275 -113.78402 
L 173.829649 -113.999857 
L 173.384297 -114.220052 
L 172.938946 -114.444543 
L 172.493594 -114.673441 
L 172.048243 -114.906885 
L 171.602891 -115.146497 
L 171.15754 -115.390924 
L 170.712188 -115.6403 
L 170.266837 -115.894763 
L 169.821485 -116.154461 
L 169.376134 -116.420619 
L 168.930782 -116.692806 
L 168.485431 -116.970744 
L 168.040079 -117.254611 
L 167.594728 -117.544593 
L 167.149376 -117.840886 
L 166.704025 -118.144639 
L 166.258673 -118.455634 
L 165.813322 -118.773606 
L 165.367971 -119.098795 
L 164.922619 -119.431453 
L 164.477268 -119.771845 
L 164.031916 -120.120254 
L 163.586565 -120.476978 
L 163.141213 -120.843463 
L 162.695862 -121.218915 
L 162.25051 -121.603654 
L 161.805159 -121.998046 
L 161.359807 -122.402483 
L 160.914456 -122.81738 
L 160.469104 -123.243179 
L 160.023753 -123.68035 
L 159.578401 -124.129394 
L 159.13305 -124.590844 
L 158.687698 -125.065272 
L 158.242347 -125.553285 
L 157.796995 -126.055535 
L 157.351644 -126.572722 
L 156.906293 -127.105592 
L 156.460941 -127.65495 
L 156.01559 -128.22166 
L 155.570238 -128.806652 
L 155.124887 -129.410928 
L 154.679535 -130.035572 
L 154.234184 -130.681753 
L 153.788832 -131.350738 
L 153.343481 -132.046665 
L 152.898129 -132.76925 
L 152.452778 -133.519818 
L 152.007426 -134.300231 
L 151.562075 -135.113481 
L 151.116723 -135.966662 
L 150.671372 -136.8408 
L 150.22602 -137.688558 
L 149.780669 -138.4905 
L 149.335317 -139.254655 
L 148.889966 -139.984372 
L 148.444615 -140.68171 
L 147.999263 -141.348113 
L 147.553912 -141.983151 
L 147.10856 -142.591552 
L 146.663209 -143.174717 
L 146.217857 -143.733942 
L 145.772506 -144.270425 
L 145.327154 -144.785273 
L 144.881803 -145.279518 
L 144.436451 -145.754114 
L 143.9911 -146.209951 
L 143.545748 -146.647859 
L 143.100397 -147.068608 
L 142.655045 -147.472921 
L 142.209694 -147.861471 
L 141.764342 -148.234891 
L 141.318991 -148.593771 
L 140.873639 -148.938665 
L 140.428288 -149.270094 
L 139.982937 -149.588548 
L 139.537585 -149.894487 
L 139.092234 -150.188343 
L 138.646882 -150.470525 
L 138.201531 -150.74138 
L 137.756179 -150.999839 
L 137.310828 -151.247679 
L 136.865476 -151.485232 
L 136.420125 -151.712809 
L 135.974773 -151.930706 
L 135.529422 -152.139201 
L 135.08407 -152.33856 
L 134.638719 -152.528381 
L 134.193367 -152.708313 
L 133.748016 -152.879824 
L 133.302664 -153.043133 
L 132.857313 -153.198445 
L 132.411961 -153.345956 
L 131.96661 -153.48524 
L 131.521259 -153.615638 
L 131.075907 -153.738784 
L 130.630556 -153.85484 
L 130.185204 -153.963959 
L 129.739853 -154.066289 
L 129.294501 -154.159844 
L 128.84915 -154.246875 
L 128.403798 -154.327541 
L 127.958447 -154.401964 
L 127.513095 -154.470012 
L 127.067744 -154.53009 
L 126.622392 -154.584287 
L 126.177041 -154.632702 
L 125.731689 -154.675434 
L 125.286338 -154.711386 
L 124.840986 -154.740809 
L 124.395635 -154.764842 
L 123.950283 -154.783567 
L 123.504932 -154.7967 
L 123.05958 -154.8028 
L 122.614229 -154.803841 
L 122.168878 -154.799891 
L 121.723526 -154.791012 
L 121.278175 -154.775158 
L 120.832823 -154.754395 
L 120.387472 -154.728908 
L 119.94212 -154.698749 
L 119.496769 -154.662091 
L 119.051417 -154.620536 
L 118.606066 -154.574481 
L 118.160714 -154.523971 
L 117.715363 -154.467203 
L 117.270011 -154.405712 
L 116.82466 -154.33991 
L 116.379308 -154.26983 
L 115.933957 -154.193557 
L 115.488605 -154.112851 
L 115.043254 -154.027987 
L 114.597902 -153.938993 
L 114.152551 -153.843735 
L 113.7072 -153.744411 
L 113.261848 -153.641052 
L 112.816497 -153.53339 
L 112.371145 -153.419883 
L 111.925794 -153.302423 
L 111.480442 -153.181027 
L 111.035091 -153.055078 
L 110.589739 -152.92374 
L 110.144388 -152.788526 
L 109.699036 -152.649447 
L 109.253685 -152.505535 
L 108.808333 -152.356672 
L 108.362982 -152.203986 
L 107.91763 -152.047483 
L 107.472279 -151.885863 
L 107.026927 -151.719688 
L 106.581576 -151.549719 
L 106.136224 -151.375957 
L 105.690873 -151.196817 
L 105.245522 -151.01345 
L 104.80017 -150.826297 
L 104.354819 -150.635351 
L 103.909467 -150.438814 
L 103.464116 -150.238286 
L 103.018764 -150.033954 
L 102.573413 -149.825807 
L 102.128061 -149.611931 
L 101.68271 -149.39418 
L 101.237358 -149.172584 
L 100.792007 -148.947129 
L 100.346655 -148.715904 
L 99.901304 -148.480773 
L 99.455952 -148.241734 
L 99.010601 -147.998762 
L 98.565249 -147.750113 
L 98.119898 -147.497348 
L 97.674546 -147.240581 
L 97.229195 -146.979783 
L 96.783844 -146.713564 
L 96.338492 -146.442802 
L 95.893141 -146.167917 
L 95.447789 -145.888871 
L 95.002438 -145.604861 
L 94.557086 -145.315623 
L 94.111735 -145.022108 
L 93.666383 -144.72427 
L 93.221032 -144.422058 
L 92.77568 -144.11385 
L 92.330329 -143.801059 
L 91.884977 -143.483742 
L 91.439626 -143.16184 
L 90.994274 -142.835014 
L 90.548923 -142.50215 
L 90.103571 -142.164513 
L 89.65822 -141.82203 
L 89.212868 -141.474626 
L 88.767517 -141.122172 
L 88.322166 -140.76319 
L 87.876814 -140.399046 
L 87.431463 -140.02965 
L 86.986111 -139.654903 
L 86.54076 -139.274704 
L 86.095408 -138.888561 
L 85.650057 -138.495799 
L 85.204705 -138.097265 
L 84.759354 -137.692834 
L 84.314002 -137.282376 
L 83.868651 -136.865754 
L 83.423299 -136.44282 
L 82.977948 -136.013032 
L 82.532596 -135.57594 
L 82.087245 -135.132083 
L 81.641893 -134.681283 
L 81.196542 -134.223351 
L 80.75119 -133.758086 
L 80.305839 -133.285277 
L 79.860488 -132.804696 
L 79.415136 -132.316107 
L 78.969785 -131.819253 
L 78.524433 -131.313866 
L 78.079082 -130.799657 
L 77.63373 -130.276267 
L 77.188379 -129.743232 
L 76.743027 -129.200494 
L 76.297676 -128.647688 
L 75.852324 -128.084426 
L 75.406973 -127.510292 
L 74.961621 -126.924571 
L 74.51627 -126.326765 
L 74.070918 -125.716461 
L 73.625567 -125.093085 
L 73.180215 -124.456017 
L 72.734864 -123.804589 
L 72.289512 -123.138075 
L 71.844161 -122.45569 
L 71.39881 -121.756581 
L 70.953458 -121.038701 
L 70.508107 -120.300235 
L 70.062755 -119.541496 
L 69.617404 -118.761212 
L 69.172052 -117.955786 
L 68.726701 -117.122713 
L 68.281349 -116.2626 
L 67.835998 -115.368285 
L 67.390646 -114.439566 
L 66.945295 -113.469863 
L 66.499943 -112.456621 
L 66.054592 -111.388137 
L 65.60924 -110.260615 
L 65.163889 -109.061396 
L 64.718537 -107.773567 
L 64.273186 -106.373973 
L 63.827834 -104.830021 
L 63.382483 -103.08183 
L 62.937132 -101.015597 
L 62.49178 -98.337912 
L 62.046429 -91.980476 
z
" style="stroke: #1f77b4; stroke-opacity: 0.15"/>
    </defs>
    <g clip-path="url(#p900b6ec98a)">
     <use xlink:href="#mc312f2cecc" x="0" y="216" style="fill: #1f77b4; fill-opacity: 0.15; stroke: #1f77b4; stroke-opacity: 0.15"/>
    </g>
   </g>
   <g id="PolyCollection_2">
    <defs>
     <path id="m280f04c8d2" d="M 144.970873 -91.980476 
L 144.970873 -91.980476 
L 145.090533 -90.795902 
L 145.210193 -90.313804 
L 145.329853 -89.949777 
L 145.449513 -89.647872 
L 145.569173 -89.386307 
L 145.688834 -89.153863 
L 145.808494 -88.943843 
L 145.928154 -88.75187 
L 146.047814 -88.57489 
L 146.167474 -88.410672 
L 146.287134 -88.257528 
L 146.406794 -88.11414 
L 146.526454 -87.979461 
L 146.646114 -87.852637 
L 146.765774 -87.732964 
L 146.885435 -87.619855 
L 147.005095 -87.51281 
L 147.124755 -87.411403 
L 147.244415 -87.315267 
L 147.364075 -87.224082 
L 147.483735 -87.137567 
L 147.603395 -87.055478 
L 147.723055 -86.977597 
L 147.842715 -86.903728 
L 147.962375 -86.833701 
L 148.082035 -86.76736 
L 148.201696 -86.704565 
L 148.321356 -86.645192 
L 148.441016 -86.589128 
L 148.560676 -86.536271 
L 148.680336 -86.486527 
L 148.799996 -86.439813 
L 148.919656 -86.396054 
L 149.039316 -86.355179 
L 149.158976 -86.317127 
L 149.278636 -86.281841 
L 149.398296 -86.24927 
L 149.517957 -86.219368 
L 149.637617 -86.192093 
L 149.757277 -86.167409 
L 149.876937 -86.145283 
L 149.996597 -86.125685 
L 150.116257 -86.108591 
L 150.235917 -86.093978 
L 150.355577 -86.081828 
L 150.475237 -86.072127 
L 150.594897 -86.064861 
L 150.714557 -86.060022 
L 150.834218 -86.057604 
L 150.953878 -86.057604 
L 151.073538 -86.060022 
L 151.193198 -86.064861 
L 151.312858 -86.072127 
L 151.432518 -86.081828 
L 151.552178 -86.093978 
L 151.671838 -86.108591 
L 151.791498 -86.125685 
L 151.911158 -86.145283 
L 152.030819 -86.167409 
L 152.150479 -86.192093 
L 152.270139 -86.219368 
L 152.389799 -86.24927 
L 152.509459 -86.281841 
L 152.629119 -86.317127 
L 152.748779 -86.355179 
L 152.868439 -86.396054 
L 152.988099 -86.439813 
L 153.107759 -86.486527 
L 153.227419 -86.536271 
L 153.34708 -86.589128 
L 153.46674 -86.645192 
L 153.5864 -86.704565 
L 153.70606 -86.76736 
L 153.82572 -86.833701 
L 153.94538 -86.903728 
L 154.06504 -86.977597 
L 154.1847 -87.055478 
L 154.30436 -87.137567 
L 154.42402 -87.224082 
L 154.54368 -87.315267 
L 154.663341 -87.411403 
L 154.783001 -87.51281 
L 154.902661 -87.619855 
L 155.022321 -87.732964 
L 155.141981 -87.852637 
L 155.261641 -87.979461 
L 155.381301 -88.11414 
L 155.500961 -88.257528 
L 155.620621 -88.410672 
L 155.740281 -88.57489 
L 155.859941 -88.75187 
L 155.979602 -88.943843 
L 156.099262 -89.153863 
L 156.218922 -89.386307 
L 156.338582 -89.647872 
L 156.458242 -89.949777 
L 156.577902 -90.313804 
L 156.697562 -90.795902 
L 156.817222 -91.980476 
L 156.817222 -91.980476 
L 156.817222 -91.980476 
L 156.697562 -93.165051 
L 156.577902 -93.647148 
L 156.458242 -94.011175 
L 156.338582 -94.313081 
L 156.218922 -94.574645 
L 156.099262 -94.80709 
L 155.979602 -95.017109 
L 155.859941 -95.209082 
L 155.740281 -95.386062 
L 155.620621 -95.55028 
L 155.500961 -95.703425 
L 155.381301 -95.846812 
L 155.261641 -95.981492 
L 155.141981 -96.108316 
L 155.022321 -96.227988 
L 154.902661 -96.341098 
L 154.783001 -96.448142 
L 154.663341 -96.549549 
L 154.54368 -96.645685 
L 154.42402 -96.736871 
L 154.30436 -96.823385 
L 154.1847 -96.905474 
L 154.06504 -96.983356 
L 153.94538 -97.057224 
L 153.82572 -97.127251 
L 153.70606 -97.193593 
L 153.5864 -97.256387 
L 153.46674 -97.31576 
L 153.34708 -97.371824 
L 153.227419 -97.424682 
L 153.107759 -97.474425 
L 152.988099 -97.521139 
L 152.868439 -97.564899 
L 152.748779 -97.605773 
L 152.629119 -97.643825 
L 152.509459 -97.679111 
L 152.389799 -97.711683 
L 152.270139 -97.741585 
L 152.150479 -97.768859 
L 152.030819 -97.793543 
L 151.911158 -97.81567 
L 151.791498 -97.835267 
L 151.671838 -97.852362 
L 151.552178 -97.866974 
L 151.432518 -97.879124 
L 151.312858 -97.888826 
L 151.193198 -97.896092 
L 151.073538 -97.900931 
L 150.953878 -97.903349 
L 150.834218 -97.903349 
L 150.714557 -97.900931 
L 150.594897 -97.896092 
L 150.475237 -97.888826 
L 150.355577 -97.879124 
L 150.235917 -97.866974 
L 150.116257 -97.852362 
L 149.996597 -97.835267 
L 149.876937 -97.81567 
L 149.757277 -97.793543 
L 149.637617 -97.768859 
L 149.517957 -97.741585 
L 149.398296 -97.711683 
L 149.278636 -97.679111 
L 149.158976 -97.643825 
L 149.039316 -97.605773 
L 148.919656 -97.564899 
L 148.799996 -97.521139 
L 148.680336 -97.474425 
L 148.560676 -97.424682 
L 148.441016 -97.371824 
L 148.321356 -97.31576 
L 148.201696 -97.256387 
L 148.082035 -97.193593 
L 147.962375 -97.127251 
L 147.842715 -97.057224 
L 147.723055 -96.983356 
L 147.603395 -96.905474 
L 147.483735 -96.823385 
L 147.364075 -96.736871 
L 147.244415 -96.645685 
L 147.124755 -96.549549 
L 147.005095 -96.448142 
L 146.885435 -96.341098 
L 146.765774 -96.227988 
L 146.646114 -96.108316 
L 146.526454 -95.981492 
L 146.406794 -95.846812 
L 146.287134 -95.703425 
L 146.167474 -95.55028 
L 146.047814 -95.386062 
L 145.928154 -95.209082 
L 145.808494 -95.017109 
L 145.688834 -94.80709 
L 145.569173 -94.574645 
L 145.449513 -94.313081 
L 145.329853 -94.011175 
L 145.210193 -93.647148 
L 145.090533 -93.165051 
L 144.970873 -91.980476 
z
" style="stroke: #ffffff"/>
    </defs>
    <g clip-path="url(#p900b6ec98a)">
     <use xlink:href="#m280f04c8d2" x="0" y="216" style="fill: #ffffff; stroke: #ffffff"/>
    </g>
   </g>
   <g id="patch_3">
    <path d="M 150.894048 129.942698 
C 152.464892 129.942698 153.97161 129.318595 155.082365 128.207841 
C 156.193119 127.097086 156.817222 125.590368 156.817222 124.019524 
C 156.817222 122.44868 156.193119 120.941962 155.082365 119.831207 
C 153.97161 118.720452 152.464892 118.096349 150.894048 118.096349 
C 149.323203 118.096349 147.816485 118.720452 146.705731 119.831207 
C 145.594976 120.941962 144.970873 122.44868 144.970873 124.019524 
C 144.970873 125.590368 145.594976 127.097086 146.705731 128.207841 
C 147.816485 129.318595 149.323203 129.942698 150.894048 129.942698 
L 150.894048 129.942698 
z
" clip-path="url(#p900b6ec98a)" style="fill: none; stroke: #1f77b4; stroke-width: 1.5; stroke-linejoin: miter"/>
   </g>
   <g id="patch_4">
    <path d="M 106.470238 183.25127 
C 108.041082 183.25127 109.5478 182.627167 110.658555 181.516412 
C 111.76931 180.405658 112.393413 178.89894 112.393413 177.328095 
C 112.393413 175.757251 111.76931 174.250533 110.658555 173.139778 
C 109.5478 172.029024 108.041082 171.404921 106.470238 171.404921 
C 104.899394 171.404921 103.392676 172.029024 102.281921 173.139778 
C 101.171167 174.250533 100.547063 175.757251 100.547063 177.328095 
C 100.547063 178.89894 101.171167 180.405658 102.281921 181.516412 
C 103.392676 182.627167 104.899394 183.25127 106.470238 183.25127 
L 106.470238 183.25127 
z
" clip-path="url(#p900b6ec98a)" style="fill: none; stroke: #1f77b4; stroke-width: 1.5; stroke-linejoin: miter"/>
   </g>
   <g id="patch_5">
    <path d="M 106.470238 183.25127 
C 108.041082 183.25127 109.5478 182.627167 110.658555 181.516412 
C 111.76931 180.405658 112.393413 178.89894 112.393413 177.328095 
C 112.393413 175.757251 111.76931 174.250533 110.658555 173.139778 
C 109.5478 172.029024 108.041082 171.404921 106.470238 171.404921 
C 104.899394 171.404921 103.392676 172.029024 102.281921 173.139778 
C 101.171167 174.250533 100.547063 175.757251 100.547063 177.328095 
C 100.547063 178.89894 101.171167 180.405658 102.281921 181.516412 
C 103.392676 182.627167 104.899394 183.25127 106.470238 183.25127 
z
" clip-path="url(#p900b6ec98a)" style="fill: #1f77b4; opacity: 0.15"/>
   </g>
   <g id="patch_6">
    <path d="M 62.046429 57.38381 
C 64.402695 57.38381 66.662772 56.447655 68.328904 54.781523 
C 69.995036 53.115391 70.93119 50.855314 70.93119 48.499048 
C 70.93119 46.142781 69.995036 43.882704 68.328904 42.216572 
C 66.662772 40.55044 64.402695 39.614286 62.046429 39.614286 
C 59.690162 39.614286 57.430085 40.55044 55.763953 42.216572 
C 54.097821 43.882704 53.161667 46.142781 53.161667 48.499048 
C 53.161667 50.855314 54.097821 53.115391 55.763953 54.781523 
C 57.430085 56.447655 59.690162 57.38381 62.046429 57.38381 
L 62.046429 57.38381 
z
" clip-path="url(#p900b6ec98a)" style="fill: none; stroke: #ff0000; stroke-width: 2; stroke-linejoin: miter"/>
   </g>
   <g id="patch_7">
    <path d="M 62.046429 57.38381 
C 64.402695 57.38381 66.662772 56.447655 68.328904 54.781523 
C 69.995036 53.115391 70.93119 50.855314 70.93119 48.499048 
C 70.93119 46.142781 69.995036 43.882704 68.328904 42.216572 
C 66.662772 40.55044 64.402695 39.614286 62.046429 39.614286 
C 59.690162 39.614286 57.430085 40.55044 55.763953 42.216572 
C 54.097821 43.882704 53.161667 46.142781 53.161667 48.499048 
C 53.161667 50.855314 54.097821 53.115391 55.763953 54.781523 
C 57.430085 56.447655 59.690162 57.38381 62.046429 57.38381 
z
" clip-path="url(#p900b6ec98a)" style="fill: #ff0000; opacity: 0.15"/>
   </g>
   <g id="PathCollection_1">
    <defs>
     <path id="m0b8821b52c" d="M -3 3 
L 3 -3 
M -3 -3 
L 3 3 
" style="stroke: #ff0000; stroke-width: 1.5"/>
    </defs>
    <g clip-path="url(#p900b6ec98a)">
     <use xlink:href="#m0b8821b52c" x="62.046429" y="48.499048" style="fill: #ff0000; stroke: #ff0000; stroke-width: 1.5"/>
    </g>
   </g>
   <g id="PolyCollection_3">
    <defs>
     <path id="m319402ff1f" d="M 70.930939 -91.913693 
L 70.930939 -92.047221 
L 71.331759 -87.240804 
L 71.732579 -85.638114 
L 72.133398 -84.567748 
L 72.534218 -83.775617 
L 72.935037 -83.161832 
L 73.335857 -82.671271 
L 73.736676 -82.270447 
L 74.137496 -81.932982 
L 74.538315 -81.642535 
L 74.939135 -81.389706 
L 75.339954 -81.165061 
L 75.740774 -80.963737 
L 76.141593 -80.781686 
L 76.542413 -80.615866 
L 76.943232 -80.46516 
L 77.344052 -80.325709 
L 77.744871 -80.198464 
L 78.145691 -80.08029 
L 78.54651 -79.970633 
L 78.94733 -79.869774 
L 79.348149 -79.775881 
L 79.748969 -79.688471 
L 80.149789 -79.607094 
L 80.550608 -79.531334 
L 80.951428 -79.460807 
L 81.352247 -79.395158 
L 81.753067 -79.334057 
L 82.153886 -79.277199 
L 82.554706 -79.2243 
L 82.955525 -79.175098 
L 83.356345 -79.129351 
L 83.757164 -79.086831 
L 84.157984 -79.047331 
L 84.558803 -79.010655 
L 84.959623 -78.976623 
L 85.360442 -78.945067 
L 85.761262 -78.915833 
L 86.162081 -78.888775 
L 86.562901 -78.863944 
L 86.96372 -78.841283 
L 87.36454 -78.820405 
L 87.765359 -78.801198 
L 88.166179 -78.783558 
L 88.566998 -78.767391 
L 88.967818 -78.753015 
L 89.368638 -78.739943 
L 89.769457 -78.728051 
L 90.170277 -78.717268 
L 90.571096 -78.707675 
L 90.971916 -78.699295 
L 91.372735 -78.691782 
L 91.773555 -78.685079 
L 92.174374 -78.679243 
L 92.575194 -78.674336 
L 92.976013 -78.670039 
L 93.376833 -78.666311 
L 93.777652 -78.663262 
L 94.178472 -78.660791 
L 94.579291 -78.658719 
L 94.980111 -78.65702 
L 95.38093 -78.655841 
L 95.78175 -78.654915 
L 96.182569 -78.654218 
L 96.583389 -78.653794 
L 96.984208 -78.653543 
L 97.385028 -78.653394 
L 97.785847 -78.653344 
L 98.186667 -78.653333 
L 98.587487 -78.653311 
L 98.988306 -78.653261 
L 99.389126 -78.653086 
L 99.789945 -78.652799 
L 100.190765 -78.652382 
L 100.591584 -78.651664 
L 100.992404 -78.650745 
L 101.393223 -78.649598 
L 101.794043 -78.647983 
L 102.194862 -78.646087 
L 102.595682 -78.643852 
L 102.996501 -78.641005 
L 103.397321 -78.637805 
L 103.79814 -78.634126 
L 104.19896 -78.629729 
L 104.599779 -78.624916 
L 105.000599 -78.619438 
L 105.401418 -78.613189 
L 105.802238 -78.606466 
L 106.203057 -78.598833 
L 106.603877 -78.590442 
L 107.004697 -78.581525 
L 107.405516 -78.571382 
L 107.806336 -78.56057 
L 108.207155 -78.549037 
L 108.607975 -78.536172 
L 109.008794 -78.522667 
L 109.409614 -78.508084 
L 109.810433 -78.492303 
L 110.211253 -78.475843 
L 110.612072 -78.457844 
L 111.012892 -78.438886 
L 111.413711 -78.419041 
L 111.814531 -78.397428 
L 112.21535 -78.375036 
L 112.61617 -78.351218 
L 113.016989 -78.325949 
L 113.417809 -78.299868 
L 113.818628 -78.271696 
L 114.219448 -78.242515 
L 114.620267 -78.21202 
L 115.021087 -78.179578 
L 115.421906 -78.146232 
L 115.822726 -78.110795 
L 116.223546 -78.07396 
L 116.624365 -78.035901 
L 117.025185 -77.995411 
L 117.426004 -77.953925 
L 117.826824 -77.910312 
L 118.227643 -77.864935 
L 118.628463 -77.818387 
L 119.029282 -77.768946 
L 119.430102 -77.718417 
L 119.830921 -77.665673 
L 120.231741 -77.610834 
L 120.63256 -77.554826 
L 121.03338 -77.495495 
L 121.434199 -77.434979 
L 121.835019 -77.372098 
L 122.235838 -77.306831 
L 122.636658 -77.240338 
L 123.037477 -77.170125 
L 123.438297 -77.098623 
L 123.839116 -77.024541 
L 124.239936 -76.947816 
L 124.640755 -76.869752 
L 125.041575 -76.787596 
L 125.442395 -76.704037 
L 125.843214 -76.617619 
L 126.244034 -76.528328 
L 126.644853 -76.437532 
L 127.045673 -76.342285 
L 127.446492 -76.245507 
L 127.847312 -76.145535 
L 128.248131 -76.042471 
L 128.648951 -75.937695 
L 129.04977 -75.828099 
L 129.45059 -75.716822 
L 129.851409 -75.601985 
L 130.252229 -75.483811 
L 130.653048 -75.363709 
L 131.053868 -75.238366 
L 131.454687 -75.111163 
L 131.855507 -74.980039 
L 132.256326 -74.845257 
L 132.657146 -74.708367 
L 133.057965 -74.5657 
L 133.458785 -74.420955 
L 133.859605 -74.271996 
L 134.260424 -74.118901 
L 134.661244 -73.963619 
L 135.062063 -73.801836 
L 135.462883 -73.637696 
L 135.863702 -73.469203 
L 136.264522 -73.29583 
L 136.665341 -73.119961 
L 137.066161 -72.937418 
L 137.46698 -72.751726 
L 137.8678 -72.561829 
L 138.268619 -72.36588 
L 138.669439 -72.16704 
L 139.070258 -71.961736 
L 139.471078 -71.751944 
L 139.871897 -71.538571 
L 140.272717 -71.317322 
L 140.673536 -71.092674 
L 141.074356 -70.862382 
L 141.475175 -70.625449 
L 141.875995 -70.38479 
L 142.276814 -70.136474 
L 142.677634 -69.8826 
L 143.078454 -69.624611 
L 143.479273 -69.357074 
L 143.880093 -69.084821 
L 144.280912 -68.807194 
L 144.681732 -68.519931 
L 145.082551 -68.227643 
L 145.483371 -67.928808 
L 145.88419 -67.620229 
L 146.28501 -67.305994 
L 146.685829 -66.984478 
L 147.086649 -66.652491 
L 147.487468 -66.314092 
L 147.888288 -65.968285 
L 148.289107 -65.610464 
L 148.689927 -65.245323 
L 149.090746 -64.872586 
L 149.491566 -64.486979 
L 149.892385 -64.092091 
L 150.293205 -63.68844 
L 150.694024 -63.273792 
L 151.094844 -62.845639 
L 151.495664 -62.407321 
L 151.896483 -61.958347 
L 152.297303 -61.495835 
L 152.698122 -61.01844 
L 153.098942 -60.528574 
L 153.499761 -60.025561 
L 153.900581 -59.508668 
L 154.3014 -58.972895 
L 154.70222 -58.421049 
L 155.103039 -57.852769 
L 155.503859 -57.267045 
L 155.904678 -56.662776 
L 156.305498 -56.038756 
L 156.706317 -55.392277 
L 157.107137 -54.721925 
L 157.507956 -54.02785 
L 157.908776 -53.308376 
L 158.309595 -52.561665 
L 158.710415 -51.786158 
L 159.111234 -51.001805 
L 159.512054 -50.264103 
L 159.912873 -49.569359 
L 160.313693 -48.923892 
L 160.714513 -48.315492 
L 161.115332 -47.74917 
L 161.516152 -47.216375 
L 161.916971 -46.719241 
L 162.317791 -46.253365 
L 162.71861 -45.817833 
L 163.11943 -45.411802 
L 163.520249 -45.031729 
L 163.921069 -44.67963 
L 164.321888 -44.349968 
L 164.722708 -44.046542 
L 165.123527 -43.763652 
L 165.524347 -43.503383 
L 165.925166 -43.262995 
L 166.325986 -43.041752 
L 166.726805 -42.839974 
L 167.127625 -42.654414 
L 167.528444 -42.486995 
L 167.929264 -42.334986 
L 168.330083 -42.197174 
L 168.730903 -42.075156 
L 169.131722 -41.966388 
L 169.532542 -41.870039 
L 169.933362 -41.785726 
L 170.334181 -41.714428 
L 170.735001 -41.653994 
L 171.13582 -41.604018 
L 171.53664 -41.564111 
L 171.937459 -41.533902 
L 172.338279 -41.513034 
L 172.739098 -41.501168 
L 173.139918 -41.498035 
L 173.540737 -41.503479 
L 173.941557 -41.516865 
L 174.342376 -41.537921 
L 174.743196 -41.566386 
L 175.144015 -41.602012 
L 175.544835 -41.644698 
L 175.945654 -41.69435 
L 176.346474 -41.750579 
L 176.747293 -41.813177 
L 177.148113 -41.881946 
L 177.548932 -41.956701 
L 177.949752 -42.037263 
L 178.350572 -42.123465 
L 178.751391 -42.215148 
L 179.152211 -42.312161 
L 179.55303 -42.414519 
L 179.95385 -42.522822 
L 180.354669 -42.636085 
L 180.755489 -42.754183 
L 181.156308 -42.876999 
L 181.557128 -43.00442 
L 181.957947 -43.136396 
L 182.358767 -43.273988 
L 182.759586 -43.415903 
L 183.160406 -43.562049 
L 183.561225 -43.71234 
L 183.962045 -43.866694 
L 184.362864 -44.026275 
L 184.763684 -44.189925 
L 185.164503 -44.357423 
L 185.565323 -44.528703 
L 185.966142 -44.70402 
L 186.366962 -44.884142 
L 186.767781 -45.067867 
L 187.168601 -45.255141 
L 187.569421 -45.445916 
L 187.97024 -45.64138 
L 188.37106 -45.84051 
L 188.771879 -46.042999 
L 189.172699 -46.248806 
L 189.573518 -46.458834 
L 189.974338 -46.672685 
L 190.375157 -46.88974 
L 190.775977 -47.109968 
L 191.176796 -47.334151 
L 191.577616 -47.562161 
L 191.978435 -47.793252 
L 192.379255 -48.027401 
L 192.780074 -48.265381 
L 193.180894 -48.507096 
L 193.581713 -48.751797 
L 193.982533 -48.999469 
L 194.383352 -49.250938 
L 194.784172 -49.506003 
L 195.184991 -49.763984 
L 195.585811 -50.024872 
L 195.986631 -50.289572 
L 196.38745 -50.557719 
L 196.78827 -50.828737 
L 197.189089 -51.102622 
L 197.589909 -51.380339 
L 197.990728 -51.661388 
L 198.391548 -51.945284 
L 198.792367 -52.232027 
L 199.193187 -52.522594 
L 199.594006 -52.816444 
L 199.994826 -53.113137 
L 200.395645 -53.412681 
L 200.796465 -53.715977 
L 201.197284 -54.022605 
L 201.598104 -54.332095 
L 201.998923 -54.64446 
L 202.399743 -54.960413 
L 202.800562 -55.279878 
L 203.201382 -55.602245 
L 203.602201 -55.927533 
L 204.003021 -56.256118 
L 204.40384 -56.58856 
L 204.80466 -56.923969 
L 205.20548 -57.262367 
L 205.606299 -57.603782 
L 206.007119 -57.94926 
L 206.407938 -58.297963 
L 206.808758 -58.649753 
L 207.209577 -59.004661 
L 207.610397 -59.362916 
L 208.011216 -59.725269 
L 208.412036 -60.090832 
L 208.812855 -60.459646 
L 209.213675 -60.831755 
L 209.614494 -61.207305 
L 210.015314 -61.58714 
L 210.416133 -61.970395 
L 210.816953 -62.357122 
L 211.217772 -62.747379 
L 211.618592 -63.141226 
L 212.019411 -63.539033 
L 212.420231 -63.941097 
L 212.82105 -64.346926 
L 213.22187 -64.756595 
L 213.622689 -65.170181 
L 214.023509 -65.587768 
L 214.424329 -66.009443 
L 214.825148 -66.435383 
L 215.225968 -66.866129 
L 215.626787 -67.301225 
L 216.027607 -67.740778 
L 216.428426 -68.184907 
L 216.829246 -68.633736 
L 217.230065 -69.087395 
L 217.630885 -69.546026 
L 218.031704 -70.00978 
L 218.432524 -70.478817 
L 218.833343 -70.953308 
L 219.234163 -71.433438 
L 219.634982 -71.919405 
L 220.035802 -72.41142 
L 220.436621 -72.909711 
L 220.837441 -73.414523 
L 221.23826 -73.926123 
L 221.63908 -74.444794 
L 222.039899 -74.970847 
L 222.440719 -75.504617 
L 222.841539 -76.046468 
L 223.242358 -76.597057 
L 223.643178 -77.157586 
L 224.043997 -77.727717 
L 224.444817 -78.307994 
L 224.845636 -78.899009 
L 225.246456 -79.503726 
L 225.647275 -80.120989 
L 226.048095 -80.752377 
L 226.448914 -81.400957 
L 226.849734 -82.066335 
L 227.250553 -82.753094 
L 227.651373 -83.462868 
L 228.052192 -84.199269 
L 228.453012 -84.968152 
L 228.853831 -85.777318 
L 229.254651 -86.6374 
L 229.65547 -87.565546 
L 230.05629 -88.598003 
L 230.457109 -89.818036 
L 230.857929 -92.112707 
L 230.857929 -91.847743 
L 230.857929 -91.847743 
L 230.457109 -92.093734 
L 230.05629 -92.3 
L 229.65547 -92.482329 
L 229.254651 -92.647194 
L 228.853831 -92.798752 
L 228.453012 -92.938598 
L 228.052192 -93.069695 
L 227.651373 -93.192577 
L 227.250553 -93.309018 
L 226.849734 -93.418682 
L 226.448914 -93.523236 
L 226.048095 -93.6231 
L 225.647275 -93.718657 
L 225.246456 -93.809864 
L 224.845636 -93.89753 
L 224.444817 -93.981945 
L 224.043997 -94.063362 
L 223.643178 -94.142012 
L 223.242358 -94.218109 
L 222.841539 -94.291848 
L 222.440719 -94.363412 
L 222.039899 -94.432966 
L 221.63908 -94.500663 
L 221.23826 -94.566646 
L 220.837441 -94.631044 
L 220.436621 -94.693979 
L 220.035802 -94.755397 
L 219.634982 -94.81555 
L 219.234163 -94.874559 
L 218.833343 -94.932516 
L 218.432524 -94.989505 
L 218.031704 -95.045605 
L 217.630885 -95.100883 
L 217.230065 -95.155226 
L 216.829246 -95.208908 
L 216.428426 -95.261989 
L 216.027607 -95.314523 
L 215.626787 -95.366559 
L 215.225968 -95.418009 
L 214.825148 -95.469079 
L 214.424329 -95.51982 
L 214.023509 -95.570268 
L 213.622689 -95.620405 
L 213.22187 -95.670308 
L 212.82105 -95.720058 
L 212.420231 -95.769679 
L 212.019411 -95.819181 
L 211.618592 -95.86863 
L 211.217772 -95.918066 
L 210.816953 -95.967506 
L 210.416133 -96.017014 
L 210.015314 -96.066613 
L 209.614494 -96.116312 
L 209.213675 -96.166164 
L 208.812855 -96.216245 
L 208.412036 -96.266513 
L 208.011216 -96.316972 
L 207.610397 -96.36783 
L 207.209577 -96.41895 
L 206.808758 -96.470332 
L 206.407938 -96.522181 
L 206.007119 -96.574417 
L 205.606299 -96.62698 
L 205.20548 -96.680069 
L 204.80466 -96.733669 
L 204.40384 -96.787651 
L 204.003021 -96.842227 
L 203.602201 -96.897421 
L 203.201382 -96.953049 
L 202.800562 -97.009356 
L 202.399743 -97.066364 
L 201.998923 -97.12385 
L 201.598104 -97.18213 
L 201.197284 -97.24116 
L 200.796465 -97.300708 
L 200.395645 -97.361202 
L 199.994826 -97.422453 
L 199.594006 -97.484257 
L 199.193187 -97.547208 
L 198.792367 -97.610871 
L 198.391548 -97.675141 
L 197.990728 -97.740769 
L 197.589909 -97.807028 
L 197.189089 -97.874119 
L 196.78827 -97.942496 
L 196.38745 -98.011533 
L 195.986631 -98.08169 
L 195.585811 -98.152995 
L 195.184991 -98.224986 
L 194.784172 -98.298457 
L 194.383352 -98.372866 
L 193.982533 -98.448089 
L 193.581713 -98.525024 
L 193.180894 -98.602713 
L 192.780074 -98.68163 
L 192.379255 -98.761996 
L 191.978435 -98.843139 
L 191.577616 -98.926009 
L 191.176796 -99.009982 
L 190.775977 -99.094928 
L 190.375157 -99.181843 
L 189.974338 -99.269602 
L 189.573518 -99.358901 
L 189.172699 -99.449759 
L 188.771879 -99.541482 
L 188.37106 -99.63541 
L 187.97024 -99.730395 
L 187.569421 -99.826743 
L 187.168601 -99.925107 
L 186.767781 -100.024407 
L 186.366962 -100.125812 
L 185.966142 -100.228661 
L 185.565323 -100.332705 
L 185.164503 -100.439229 
L 184.763684 -100.546762 
L 184.362864 -100.656314 
L 183.962045 -100.767702 
L 183.561225 -100.880128 
L 183.160406 -100.9955 
L 182.759586 -101.111968 
L 182.358767 -101.230373 
L 181.957947 -101.351022 
L 181.557128 -101.472795 
L 181.156308 -101.597514 
L 180.755489 -101.723672 
L 180.354669 -101.851677 
L 179.95385 -101.982368 
L 179.55303 -102.114282 
L 179.152211 -102.249128 
L 178.751391 -102.385796 
L 178.350572 -102.524202 
L 177.949752 -102.665787 
L 177.548932 -102.808708 
L 177.148113 -102.954517 
L 176.747293 -103.102599 
L 176.346474 -103.252258 
L 175.945654 -103.405679 
L 175.544835 -103.560567 
L 175.144015 -103.718236 
L 174.743196 -103.878733 
L 174.342376 -104.040762 
L 173.941557 -104.20687 
L 173.540737 -104.374797 
L 173.139918 -104.545294 
L 172.739098 -104.71933 
L 172.338279 -104.895069 
L 171.937459 -105.074696 
L 171.53664 -105.256869 
L 171.13582 -105.441244 
L 170.735001 -105.630086 
L 170.334181 -105.820838 
L 169.933362 -106.015095 
L 169.532542 -106.212885 
L 169.131722 -106.412699 
L 168.730903 -106.617379 
L 168.330083 -106.824632 
L 167.929264 -107.034735 
L 167.528444 -107.249715 
L 167.127625 -107.466997 
L 166.726805 -107.688398 
L 166.325986 -107.913868 
L 165.925166 -108.141807 
L 165.524347 -108.375139 
L 165.123527 -108.611769 
L 164.722708 -108.851317 
L 164.321888 -109.096998 
L 163.921069 -109.345534 
L 163.520249 -109.598045 
L 163.11943 -109.856221 
L 162.71861 -110.117494 
L 162.317791 -110.38372 
L 161.916971 -110.655283 
L 161.516152 -110.930223 
L 161.115332 -111.210973 
L 160.714513 -111.496924 
L 160.313693 -111.786576 
L 159.912873 -112.082722 
L 159.512054 -112.384188 
L 159.111234 -112.689732 
L 158.710415 -113.002216 
L 158.309595 -113.320469 
L 157.908776 -113.643238 
L 157.507956 -113.973081 
L 157.107137 -114.309565 
L 156.706317 -114.651075 
L 156.305498 -114.999386 
L 155.904678 -115.355741 
L 155.503859 -115.71772 
L 155.103039 -116.085708 
L 154.70222 -116.463808 
L 154.3014 -116.848232 
L 153.900581 -117.239192 
L 153.499761 -117.639209 
L 153.098942 -118.048346 
L 152.698122 -118.464893 
L 152.297303 -118.889134 
L 151.896483 -119.324596 
L 151.495664 -119.769501 
L 151.094844 -120.223199 
L 150.694024 -120.686069 
L 150.293205 -121.160929 
L 149.892385 -121.647503 
L 149.491566 -122.144642 
L 149.090746 -122.652856 
L 148.689927 -123.172696 
L 148.289107 -123.707397 
L 147.888288 -124.255926 
L 147.487468 -124.817998 
L 147.086649 -125.394358 
L 146.685829 -125.985812 
L 146.28501 -126.593239 
L 145.88419 -127.217598 
L 145.483371 -127.862073 
L 145.082551 -128.525602 
L 144.681732 -129.209229 
L 144.280912 -129.914271 
L 143.880093 -130.642176 
L 143.479273 -131.394535 
L 143.078454 -132.172746 
L 142.677634 -132.959481 
L 142.276814 -133.7059 
L 141.875995 -134.414708 
L 141.475175 -135.083663 
L 141.074356 -135.717641 
L 140.673536 -136.321101 
L 140.272717 -136.890114 
L 139.871897 -137.432331 
L 139.471078 -137.949047 
L 139.070258 -138.437134 
L 138.669439 -138.90251 
L 138.268619 -139.346191 
L 137.8678 -139.766994 
L 137.46698 -140.166794 
L 137.066161 -140.547831 
L 136.665341 -140.910852 
L 136.264522 -141.254592 
L 135.863702 -141.581163 
L 135.462883 -141.891915 
L 135.062063 -142.187422 
L 134.661244 -142.467819 
L 134.260424 -142.732528 
L 133.859605 -142.983703 
L 133.458785 -143.2218 
L 133.057965 -143.447253 
L 132.657146 -143.660474 
L 132.256326 -143.861328 
L 131.855507 -144.050078 
L 131.454687 -144.227851 
L 131.053868 -144.394985 
L 130.653048 -144.551805 
L 130.252229 -144.698622 
L 129.851409 -144.835733 
L 129.45059 -144.963424 
L 129.04977 -145.081969 
L 128.648951 -145.191628 
L 128.248131 -145.292655 
L 127.847312 -145.385291 
L 127.446492 -145.469767 
L 127.045673 -145.546304 
L 126.644853 -145.615117 
L 126.244034 -145.676409 
L 125.843214 -145.730376 
L 125.442395 -145.777207 
L 125.041575 -145.81708 
L 124.640755 -145.85017 
L 124.239936 -145.87664 
L 123.839116 -145.896649 
L 123.438297 -145.910349 
L 123.037477 -145.917886 
L 122.636658 -145.919397 
L 122.235838 -145.915017 
L 121.835019 -145.904871 
L 121.434199 -145.889081 
L 121.03338 -145.867765 
L 120.63256 -145.840935 
L 120.231741 -145.808034 
L 119.830921 -145.769892 
L 119.430102 -145.726607 
L 119.029282 -145.678272 
L 118.628463 -145.624977 
L 118.227643 -145.566805 
L 117.826824 -145.503838 
L 117.426004 -145.435188 
L 117.025185 -145.36176 
L 116.624365 -145.283736 
L 116.223546 -145.201183 
L 115.822726 -145.114164 
L 115.421906 -145.022741 
L 115.021087 -144.925841 
L 114.620267 -144.824547 
L 114.219448 -144.718996 
L 113.818628 -144.609236 
L 113.417809 -144.495313 
L 113.016989 -144.376537 
L 112.61617 -144.253105 
L 112.21535 -144.125621 
L 111.814531 -143.99412 
L 111.413711 -143.858635 
L 111.012892 -143.718465 
L 110.612072 -143.573736 
L 110.211253 -143.425101 
L 109.810433 -143.272584 
L 109.409614 -143.116206 
L 109.008794 -142.954978 
L 108.607975 -142.789531 
L 108.207155 -142.620271 
L 107.806336 -142.447211 
L 107.405516 -142.270325 
L 107.004697 -142.088271 
L 106.603877 -141.902442 
L 106.203057 -141.712842 
L 105.802238 -141.519475 
L 105.401418 -141.321783 
L 105.000599 -141.119447 
L 104.599779 -140.913339 
L 104.19896 -140.703455 
L 103.79814 -140.489788 
L 103.397321 -140.27124 
L 102.996501 -140.048543 
L 102.595682 -139.822029 
L 102.194862 -139.591684 
L 101.794043 -139.357374 
L 101.393223 -139.117891 
L 100.992404 -138.87452 
L 100.591584 -138.627236 
L 100.190765 -138.376014 
L 99.789945 -138.120402 
L 99.389126 -137.859821 
L 98.988306 -137.595211 
L 98.587487 -137.326536 
L 98.186667 -137.05376 
L 97.785847 -136.776369 
L 97.385028 -136.493909 
L 96.984208 -136.207219 
L 96.583389 -135.916248 
L 96.182569 -135.620945 
L 95.78175 -135.321117 
L 95.38093 -135.01569 
L 94.980111 -134.705758 
L 94.579291 -134.391256 
L 94.178472 -134.072112 
L 93.777652 -133.748254 
L 93.376833 -133.419136 
L 92.976013 -133.084424 
L 92.575194 -132.744759 
L 92.174374 -132.400049 
L 91.773555 -132.050196 
L 91.372735 -131.695097 
L 90.971916 -131.334644 
L 90.571096 -130.967926 
L 90.170277 -130.595413 
L 89.769457 -130.217202 
L 89.368638 -129.833159 
L 88.967818 -129.44314 
L 88.566998 -129.046994 
L 88.166179 -128.644561 
L 87.765359 -128.23567 
L 87.36454 -127.820141 
L 86.96372 -127.39739 
L 86.562901 -126.967414 
L 86.162081 -126.530243 
L 85.761262 -126.08565 
L 85.360442 -125.633396 
L 84.959623 -125.173224 
L 84.558803 -124.704861 
L 84.157984 -124.228016 
L 83.757164 -123.742377 
L 83.356345 -123.247611 
L 82.955525 -122.743361 
L 82.554706 -122.229246 
L 82.153886 -121.704855 
L 81.753067 -121.169746 
L 81.352247 -120.623448 
L 80.951428 -120.065247 
L 80.550608 -119.493788 
L 80.149789 -118.909239 
L 79.748969 -118.310927 
L 79.348149 -117.698125 
L 78.94733 -117.070041 
L 78.54651 -116.425386 
L 78.145691 -115.761025 
L 77.744871 -115.078068 
L 77.344052 -114.375329 
L 76.943232 -113.648125 
L 76.542413 -112.896415 
L 76.141593 -112.11831 
L 75.740774 -111.307696 
L 75.339954 -110.464698 
L 74.939135 -109.58177 
L 74.538315 -108.65402 
L 74.137496 -107.675525 
L 73.736676 -106.635556 
L 73.335857 -105.519902 
L 72.935037 -104.309329 
L 72.534218 -102.977123 
L 72.133398 -101.469379 
L 71.732579 -99.694484 
L 71.331759 -97.403143 
L 70.930939 -91.913693 
z
" style="stroke: #008000; stroke-opacity: 0.15"/>
    </defs>
    <g clip-path="url(#p900b6ec98a)">
     <use xlink:href="#m319402ff1f" x="0" y="216" style="fill: #008000; fill-opacity: 0.15; stroke: #008000; stroke-opacity: 0.15"/>
    </g>
   </g>
   <g id="patch_8">
    <path d="M 150.894048 138.82746 
C 154.821158 138.82746 158.587953 137.267203 161.36484 134.490316 
C 164.141727 131.71343 165.701984 127.946634 165.701984 124.019524 
C 165.701984 120.092413 164.141727 116.325618 161.36484 113.548731 
C 158.587953 110.771845 154.821158 109.211587 150.894048 109.211587 
C 146.966937 109.211587 143.200142 110.771845 140.423255 113.548731 
C 137.646369 116.325618 136.086111 120.092413 136.086111 124.019524 
C 136.086111 127.946634 137.646369 131.71343 140.423255 134.490316 
C 143.200142 137.267203 146.966937 138.82746 150.894048 138.82746 
z
" clip-path="url(#p900b6ec98a)" style="fill: #ffffff"/>
   </g>
   <g id="patch_9">
    <path d="M 150.894048 138.82746 
C 154.821158 138.82746 158.587953 137.267203 161.36484 134.490316 
C 164.141727 131.71343 165.701984 127.946634 165.701984 124.019524 
C 165.701984 120.092413 164.141727 116.325618 161.36484 113.548731 
C 158.587953 110.771845 154.821158 109.211587 150.894048 109.211587 
C 146.966937 109.211587 143.200142 110.771845 140.423255 113.548731 
C 137.646369 116.325618 136.086111 120.092413 136.086111 124.019524 
C 136.086111 127.946634 137.646369 131.71343 140.423255 134.490316 
C 143.200142 137.267203 146.966937 138.82746 150.894048 138.82746 
z
" clip-path="url(#p900b6ec98a)" style="fill: #1f77b4; opacity: 0.15"/>
   </g>
   <g id="patch_10">
    <path d="M 150.894048 138.82746 
C 154.821158 138.82746 158.587953 137.267203 161.36484 134.490316 
C 164.141727 131.71343 165.701984 127.946634 165.701984 124.019524 
C 165.701984 120.092413 164.141727 116.325618 161.36484 113.548731 
C 158.587953 110.771845 154.821158 109.211587 150.894048 109.211587 
C 146.966937 109.211587 143.200142 110.771845 140.423255 113.548731 
C 137.646369 116.325618 136.086111 120.092413 136.086111 124.019524 
C 136.086111 127.946634 137.646369 131.71343 140.423255 134.490316 
C 143.200142 137.267203 146.966937 138.82746 150.894048 138.82746 
L 150.894048 138.82746 
z
" clip-path="url(#p900b6ec98a)" style="fill: none; stroke-dasharray: 5.55,2.4; stroke-dashoffset: 0; stroke: #008000; stroke-width: 1.5; stroke-linejoin: miter"/>
   </g>
   <g id="PolyCollection_4">
    <g clip-path="url(#p900b6ec98a)">
     <use xlink:href="#m280f04c8d2" x="0" y="216" style="fill: #ffffff; stroke: #ffffff"/>
    </g>
   </g>
   <g id="patch_11">
    <path d="M 150.894048 129.942698 
C 152.464892 129.942698 153.97161 129.318595 155.082365 128.207841 
C 156.193119 127.097086 156.817222 125.590368 156.817222 124.019524 
C 156.817222 122.44868 156.193119 120.941962 155.082365 119.831207 
C 153.97161 118.720452 152.464892 118.096349 150.894048 118.096349 
C 149.323203 118.096349 147.816485 118.720452 146.705731 119.831207 
C 145.594976 120.941962 144.970873 122.44868 144.970873 124.019524 
C 144.970873 125.590368 145.594976 127.097086 146.705731 128.207841 
C 147.816485 129.318595 149.323203 129.942698 150.894048 129.942698 
L 150.894048 129.942698 
z
" clip-path="url(#p900b6ec98a)" style="fill: none; stroke: #1f77b4; stroke-width: 1.5; stroke-linejoin: miter"/>
   </g>
   <g id="matplotlib.axis_1"/>
   <g id="matplotlib.axis_2"/>
   <g id="line2d_1">
    <path d="M 62.046429 124.019524 
L 62.170868 120.672405 
L 62.537139 117.333741 
L 63.134673 114.011989 
L 63.952899 110.715604 
L 64.981249 107.453042 
L 66.209153 104.232758 
L 67.626041 101.063208 
L 69.560883 97.338622 
L 71.734378 93.713881 
L 74.128262 90.203596 
L 76.72427 86.822378 
L 79.504138 83.584838 
L 82.449602 80.505589 
L 85.542397 77.599241 
L 88.764259 74.880406 
L 92.096925 72.363696 
L 95.522129 70.063721 
L 99.021608 67.995093 
L 102.577097 66.172423 
L 106.170333 64.610323 
L 109.78305 63.323405 
L 112.795353 62.471722 
L 115.797931 61.82974 
L 118.780217 61.405913 
L 121.731639 61.208699 
L 124.641628 61.246552 
L 127.499615 61.527929 
L 130.29503 62.061284 
L 133.017304 62.855074 
L 135.135358 63.683301 
L 137.194425 64.687946 
L 139.189094 65.873341 
L 141.113954 67.243812 
L 142.963591 68.803691 
L 144.732595 70.557306 
L 146.415555 72.508987 
L 148.007058 74.663062 
L 149.501693 77.023861 
L 150.894048 79.595714 
L 150.894048 79.595714 
L 152.650684 82.819803 
L 154.565019 85.802061 
L 156.626482 88.553055 
L 158.824504 91.083357 
L 161.148516 93.403535 
L 163.587947 95.52416 
L 166.132229 97.455801 
L 168.770792 99.209027 
L 172.046635 101.092273 
L 175.424758 102.752086 
L 178.886897 104.206731 
L 183.007878 105.668874 
L 187.189352 106.905622 
L 192.005046 108.080261 
L 197.417957 109.149023 
L 203.940106 110.178731 
L 213.569001 111.419933 
L 222.283957 112.602486 
L 226.816054 113.438131 
L 230.053717 114.252356 
L 232.566752 115.108041 
L 234.460043 115.970975 
L 236.093374 116.972718 
L 237.242724 117.926715 
L 238.188293 119.000359 
L 238.919511 120.20422 
L 239.425808 121.548868 
L 239.696615 123.044873 
L 239.721587 124.702533 
L 239.499147 126.521629 
L 239.039102 128.488276 
L 238.188293 131.022185 
L 237.028818 133.72169 
L 235.578942 136.561222 
L 233.544751 140.016872 
L 231.169154 143.587705 
L 228.481155 147.233118 
L 225.509755 150.912505 
L 222.283957 154.585263 
L 218.832766 158.210788 
L 215.185183 161.748475 
L 211.370212 165.157721 
L 207.416856 168.397921 
L 203.354117 171.428471 
L 199.210998 174.208767 
L 195.617763 176.361918 
L 192.005046 178.275807 
L 188.391111 179.924865 
L 185.391745 181.078331 
L 182.414787 182.015331 
L 179.470806 182.72107 
L 176.570371 183.180748 
L 173.724053 183.379569 
L 171.493065 183.340864 
L 169.308888 183.118165 
L 167.176932 182.703893 
L 165.102611 182.090474 
L 163.091335 181.270331 
L 161.148516 180.235887 
L 159.279566 178.979567 
L 157.489896 177.493794 
L 155.784918 175.770991 
L 154.170043 173.803583 
L 152.650684 171.583993 
L 151.232252 169.104645 
L 149.501693 165.870759 
L 148.007058 163.504909 
L 146.415555 161.337124 
L 144.732595 159.358746 
L 142.963591 157.561116 
L 140.639579 155.555066 
L 138.200148 153.800994 
L 135.655866 152.28199 
L 133.017304 150.981143 
L 130.29503 149.88154 
L 127.499615 148.96627 
L 124.063452 148.087456 
L 120.55545 147.420507 
L 116.39635 146.871187 
L 111.591006 146.488269 
L 106.170333 146.286906 
L 97.84799 146.231426 
L 88.764259 146.130138 
L 83.978724 145.857544 
L 80.468461 145.457383 
L 77.631366 144.944665 
L 74.972042 144.244434 
L 72.904913 143.496587 
L 70.98449 142.581318 
L 69.221343 141.481715 
L 67.626041 140.180867 
L 66.47775 138.983928 
L 65.449056 137.63871 
L 64.545371 136.136555 
L 63.772106 134.468805 
L 63.134673 132.6268 
L 62.638483 130.601882 
L 62.288948 128.385393 
L 62.066508 125.332193 
L 62.046429 124.019524 
L 62.046429 124.019524 
" clip-path="url(#p900b6ec98a)" style="fill: none; stroke: #1f77b4; stroke-width: 1.5; stroke-linecap: square"/>
   </g>
   <g id="line2d_2">
    <path d="M 70.930939 124.086307 
L 71.031486 121.326957 
L 71.329753 118.610036 
L 71.822109 115.874095 
L 72.663091 112.576396 
L 73.768671 109.277555 
L 75.128317 105.995117 
L 76.729625 102.747818 
L 78.558439 99.554946 
L 80.599057 96.435899 
L 82.83445 93.409893 
L 85.246445 90.495789 
L 87.815881 87.711985 
L 90.522706 85.076348 
L 93.346038 82.60615 
L 96.264185 80.318004 
L 99.25464 78.227753 
L 102.294073 76.350319 
L 105.358324 74.699472 
L 108.422464 73.28751 
L 111.460968 72.124839 
L 114.4481 71.219447 
L 117.358635 70.57635 
L 120.169087 70.197124 
L 122.859533 70.079823 
L 125.416005 70.219727 
L 127.833024 70.611425 
L 129.743777 71.128265 
L 131.568803 71.820786 
L 133.319487 72.697373 
L 135.008093 73.773319 
L 136.644694 75.070638 
L 138.234405 76.616392 
L 139.775734 78.440024 
L 141.260398 80.570518 
L 142.674396 83.034164 
L 144.577959 86.612689 
L 146.33973 89.491978 
L 148.224898 92.206946 
L 150.224874 94.758117 
L 152.330227 97.146636 
L 155.094755 99.906687 
L 157.987892 102.421868 
L 160.98933 104.70077 
L 164.079502 106.754276 
L 167.24009 108.595125 
L 170.454288 110.237372 
L 174.360699 111.966831 
L 178.298664 113.457874 
L 182.904402 114.930811 
L 187.492888 116.154861 
L 192.678109 117.298295 
L 198.385312 118.323859 
L 205.6829 119.383166 
L 223.41076 121.813273 
L 226.642169 122.526164 
L 229.07769 123.284229 
L 230.566108 123.96805 
L 231.080295 124.327115 
L 230.913305 124.054656 
L 230.848836 123.860918 
L 230.85147 124.192613 
L 230.672796 125.350868 
L 230.128004 127.203255 
L 229.164319 129.562931 
L 227.786507 132.29309 
L 226.019832 135.29304 
L 223.896346 138.484251 
L 221.076306 142.28217 
L 217.886234 146.159797 
L 214.377773 150.04003 
L 210.602872 153.850539 
L 206.614292 157.521989 
L 202.991626 160.567505 
L 199.284745 163.411032 
L 195.533494 166.009678 
L 191.780398 168.322075 
L 188.596714 170.046687 
L 185.476659 171.510077 
L 182.453782 172.693382 
L 179.56336 173.582843 
L 176.84066 174.172007 
L 174.317068 174.463853 
L 172.013238 174.471343 
L 170.262474 174.274207 
L 168.650692 173.902202 
L 167.149229 173.355366 
L 165.720158 172.617549 
L 164.326059 171.653407 
L 162.940802 170.412026 
L 161.556187 168.835848 
L 160.181972 166.870322 
L 159.105122 164.986769 
L 157.169723 161.382964 
L 155.348978 158.501389 
L 153.384956 155.826549 
L 151.286536 153.360008 
L 149.065266 151.1029 
L 146.735027 149.054986 
L 144.311329 147.213874 
L 141.810385 145.574563 
L 139.248158 144.129386 
L 135.981768 142.580428 
L 132.66838 141.29547 
L 129.329154 140.248386 
L 125.981108 139.412112 
L 121.970888 138.649217 
L 117.986814 138.107097 
L 113.393762 137.698442 
L 107.613449 137.43388 
L 100.214239 137.347643 
L 88.557821 137.23228 
L 84.286745 136.965126 
L 80.981499 136.544435 
L 78.53688 136.026911 
L 76.55684 135.389961 
L 75.048201 134.674695 
L 73.94664 133.913846 
L 73.111769 133.067858 
L 72.494181 132.155754 
L 71.921816 130.913215 
L 71.422344 129.199082 
L 71.111983 127.339903 
L 70.946972 125.055882 
L 70.930934 123.952066 
L 70.930934 123.952066 
" clip-path="url(#p900b6ec98a)" style="fill: none; stroke-dasharray: 5.55,2.4; stroke-dashoffset: 0; stroke: #008000; stroke-width: 1.5"/>
   </g>
   <g id="patch_12">
    <path d="M 39.834524 199.54 
L 39.834524 12.96 
" style="fill: none; stroke: #000000; stroke-width: 0.8; stroke-linejoin: miter; stroke-linecap: square"/>
   </g>
   <g id="patch_13">
    <path d="M 284.165476 199.54 
L 284.165476 12.96 
" style="fill: none; stroke: #000000; stroke-width: 0.8; stroke-linejoin: miter; stroke-linecap: square"/>
   </g>
   <g id="patch_14">
    <path d="M 39.834524 199.54 
L 284.165476 199.54 
" style="fill: none; stroke: #000000; stroke-width: 0.8; stroke-linejoin: miter; stroke-linecap: square"/>
   </g>
   <g id="patch_15">
    <path d="M 39.834524 12.96 
L 284.165476 12.96 
" style="fill: none; stroke: #000000; stroke-width: 0.8; stroke-linejoin: miter; stroke-linecap: square"/>
   </g>
   <g id="legend_1">
    <g id="patch_16">
     <path d="M 205.685476 93.015 
L 275.765476 93.015 
Q 278.165476 93.015 278.165476 90.615 
L 278.165476 21.36 
Q 278.165476 18.96 275.765476 18.96 
L 205.685476 18.96 
Q 203.285476 18.96 203.285476 21.36 
L 203.285476 90.615 
Q 203.285476 93.015 205.685476 93.015 
z
" style="fill: #ffffff; opacity: 0.8; stroke: #cccccc; stroke-linejoin: miter"/>
    </g>
    <g id="patch_17">
     <path d="M 208.085476 32.878125 
L 232.085476 32.878125 
L 232.085476 24.478125 
L 208.085476 24.478125 
L 208.085476 32.878125 
z
" style="fill: none; stroke: #1f77b4; stroke-linejoin: miter"/>
    </g>
    <g id="patch_18">
     <path d="M 208.085476 32.878125 
L 232.085476 32.878125 
L 232.085476 24.478125 
L 208.085476 24.478125 
z
" style="fill: #1f77b4; opacity: 0.1"/>
    </g>
    <g id="text_1">
     <!-- $A$ -->
     <g transform="translate(241.685476 32.878125)scale(0.12 -0.12)">
      <defs>
       <path id="Cmmi10-41" d="M 288 0 
Q 225 0 225 84 
Q 250 225 306 225 
Q 566 225 755 328 
Q 944 431 1081 647 
Q 1094 659 1094 659 
L 3378 4513 
Q 3428 4581 3500 4581 
L 3584 4581 
Q 3603 4581 3622 4573 
Q 3641 4566 3655 4548 
Q 3669 4531 3669 4513 
L 4056 378 
Q 4056 350 4084 294 
Q 4147 225 4563 225 
Q 4628 225 4628 141 
Q 4606 56 4592 28 
Q 4578 0 4519 0 
L 2919 0 
Q 2859 0 2859 84 
Q 2894 225 2944 225 
Q 3450 225 3481 397 
L 3384 1453 
L 1806 1453 
L 1294 594 
Q 1247 525 1247 434 
Q 1247 322 1355 273 
Q 1463 225 1594 225 
Q 1656 225 1656 141 
Q 1634 50 1621 25 
Q 1609 0 1550 0 
L 288 0 
z
M 1931 1678 
L 3359 1678 
L 3169 3750 
L 1931 1678 
z
" transform="scale(0.015625)"/>
      </defs>
      <use xlink:href="#Cmmi10-41" transform="translate(0 0.421875)"/>
     </g>
    </g>
    <g id="patch_19">
     <path d="M 208.085476 50.491875 
L 232.085476 50.491875 
L 232.085476 42.091875 
L 208.085476 42.091875 
L 208.085476 50.491875 
z
" style="fill: none; stroke-dasharray: 3.7,1.6; stroke-dashoffset: 0; stroke: #008000; stroke-linejoin: miter"/>
    </g>
    <g id="patch_20">
     <path d="M 208.085476 50.491875 
L 232.085476 50.491875 
L 232.085476 42.091875 
L 208.085476 42.091875 
z
" style="fill: #008000; opacity: 0.1"/>
    </g>
    <g id="text_2">
     <!-- $A \ominus B$ -->
     <g transform="translate(241.685476 50.491875)scale(0.12 -0.12)">
      <defs>
       <path id="Cmsy10-aa" d="M 2491 -531 
Q 2053 -531 1668 -365 
Q 1284 -200 986 95 
Q 688 391 523 780 
Q 359 1169 359 1600 
Q 359 2038 521 2422 
Q 684 2806 984 3106 
Q 1284 3406 1668 3568 
Q 2053 3731 2491 3731 
Q 2925 3731 3312 3565 
Q 3700 3400 3994 3104 
Q 4288 2809 4452 2421 
Q 4616 2034 4616 1600 
Q 4616 1172 4450 780 
Q 4284 388 3992 95 
Q 3700 -197 3312 -364 
Q 2925 -531 2491 -531 
z
M 544 1509 
Q 544 1141 701 802 
Q 859 463 1140 200 
Q 1422 -63 1770 -205 
Q 2119 -347 2491 -347 
Q 2859 -347 3211 -201 
Q 3563 -56 3836 200 
Q 4109 456 4268 798 
Q 4428 1141 4428 1509 
L 544 1509 
z
M 544 1697 
L 4428 1697 
Q 4428 2066 4268 2409 
Q 4109 2753 3839 3004 
Q 3569 3256 3214 3401 
Q 2859 3547 2491 3547 
Q 2119 3547 1767 3403 
Q 1416 3259 1137 3003 
Q 859 2747 701 2406 
Q 544 2066 544 1697 
z
" transform="scale(0.015625)"/>
       <path id="Cmmi10-42" d="M 319 0 
Q 256 0 256 84 
Q 259 100 268 137 
Q 278 175 293 200 
Q 309 225 341 225 
Q 522 225 656 234 
Q 791 244 884 269 
Q 959 297 1006 441 
L 1881 3956 
Q 1894 4019 1894 4044 
Q 1894 4113 1819 4122 
Q 1697 4147 1356 4147 
Q 1294 4147 1294 4231 
Q 1297 4247 1306 4286 
Q 1316 4325 1333 4348 
Q 1350 4372 1375 4372 
L 3669 4372 
Q 3878 4372 4083 4320 
Q 4288 4269 4461 4156 
Q 4634 4044 4736 3876 
Q 4838 3709 4838 3488 
Q 4838 3247 4714 3040 
Q 4591 2834 4395 2681 
Q 4200 2528 3973 2429 
Q 3747 2331 3500 2284 
Q 3675 2284 3854 2215 
Q 4034 2147 4175 2028 
Q 4316 1909 4402 1743 
Q 4488 1578 4488 1388 
Q 4488 1003 4219 684 
Q 3950 366 3542 183 
Q 3134 0 2753 0 
L 319 0 
z
M 1497 275 
Q 1497 225 1716 225 
L 2631 225 
Q 2944 225 3231 398 
Q 3519 572 3692 859 
Q 3866 1147 3866 1459 
Q 3866 1650 3786 1820 
Q 3706 1991 3556 2089 
Q 3406 2188 3213 2188 
L 1966 2188 
L 1522 416 
Q 1497 328 1497 275 
z
M 2009 2356 
L 2981 2356 
Q 3288 2356 3577 2512 
Q 3866 2669 4048 2937 
Q 4231 3206 4231 3506 
Q 4231 3784 4057 3965 
Q 3884 4147 3609 4147 
L 2731 4147 
Q 2559 4147 2500 4115 
Q 2441 4084 2400 3928 
L 2009 2356 
z
" transform="scale(0.015625)"/>
      </defs>
      <use xlink:href="#Cmmi10-41" transform="translate(0 0.421875)"/>
      <use xlink:href="#Cmsy10-aa" transform="translate(92.558594 0.421875)"/>
      <use xlink:href="#Cmmi10-42" transform="translate(187.802734 0.421875)"/>
     </g>
    </g>
    <g id="patch_21">
     <path d="M 220.085476 70.905625 
C 221.941898 70.905625 223.722535 70.168061 225.035224 68.855372 
C 226.347912 67.542684 227.085476 65.762047 227.085476 63.905625 
C 227.085476 62.049203 226.347912 60.268566 225.035224 58.955878 
C 223.722535 57.643189 221.941898 56.905625 220.085476 56.905625 
C 218.229054 56.905625 216.448417 57.643189 215.135729 58.955878 
C 213.82304 60.268566 213.085476 62.049203 213.085476 63.905625 
C 213.085476 65.762047 213.82304 67.542684 215.135729 68.855372 
C 216.448417 70.168061 218.229054 70.905625 220.085476 70.905625 
z
" style="fill: #ff0000; opacity: 0.15"/>
    </g>
    <g id="patch_22">
     <path d="M 220.085476 70.905625 
C 221.941898 70.905625 223.722535 70.168061 225.035224 68.855372 
C 226.347912 67.542684 227.085476 65.762047 227.085476 63.905625 
C 227.085476 62.049203 226.347912 60.268566 225.035224 58.955878 
C 223.722535 57.643189 221.941898 56.905625 220.085476 56.905625 
C 218.229054 56.905625 216.448417 57.643189 215.135729 58.955878 
C 213.82304 60.268566 213.085476 62.049203 213.085476 63.905625 
C 213.085476 65.762047 213.82304 67.542684 215.135729 68.855372 
C 216.448417 70.168061 218.229054 70.905625 220.085476 70.905625 
L 220.085476 70.905625 
z
" style="fill: none; stroke: #ff0000; stroke-width: 2; stroke-linejoin: miter"/>
    </g>
    <g id="text_3">
     <!-- $B$ -->
     <g transform="translate(241.685476 68.105625)scale(0.12 -0.12)">
      <use xlink:href="#Cmmi10-42" transform="translate(0 0.6875)"/>
     </g>
    </g>
    <g id="PathCollection_2">
     <g>
      <use xlink:href="#m0b8821b52c" x="220.085476" y="82.569375" style="fill: #ff0000; stroke: #ff0000; stroke-width: 1.5"/>
     </g>
    </g>
    <g id="text_4">
     <!-- $0$ -->
     <g transform="translate(241.685476 85.719375)scale(0.12 -0.12)">
      <defs>
       <path id="Cmr10-30" d="M 1600 -141 
Q 816 -141 533 504 
Q 250 1150 250 2041 
Q 250 2597 351 3087 
Q 453 3578 754 3920 
Q 1056 4263 1600 4263 
Q 2022 4263 2290 4056 
Q 2559 3850 2700 3523 
Q 2841 3197 2892 2823 
Q 2944 2450 2944 2041 
Q 2944 1491 2842 1011 
Q 2741 531 2444 195 
Q 2147 -141 1600 -141 
z
M 1600 25 
Q 1956 25 2131 390 
Q 2306 756 2347 1200 
Q 2388 1644 2388 2144 
Q 2388 2625 2347 3031 
Q 2306 3438 2132 3767 
Q 1959 4097 1600 4097 
Q 1238 4097 1063 3765 
Q 888 3434 847 3029 
Q 806 2625 806 2144 
Q 806 1788 823 1472 
Q 841 1156 916 820 
Q 991 484 1158 254 
Q 1325 25 1600 25 
z
" transform="scale(0.015625)"/>
      </defs>
      <use xlink:href="#Cmr10-30" transform="translate(0 0.390625)"/>
     </g>
    </g>
   </g>
  </g>
 </g>
 <defs>
  <clipPath id="p900b6ec98a">
   <rect x="39.834524" y="12.96" width="244.330952" height="186.58"/>
  </clipPath>
 </defs>
</svg>
