<?xml version="1.0" encoding="utf-8" standalone="no"?>
<!DOCTYPE svg PUBLIC "-//W3C//DTD SVG 1.1//EN"
  "http://www.w3.org/Graphics/SVG/1.1/DTD/svg11.dtd">
<svg xmlns:xlink="http://www.w3.org/1999/xlink" width="324pt" height="216pt" viewBox="0 0 324 216" xmlns="http://www.w3.org/2000/svg" version="1.1">
 <metadata>
  <rdf:RDF xmlns:dc="http://purl.org/dc/elements/1.1/" xmlns:cc="http://creativecommons.org/ns#" xmlns:rdf="http://www.w3.org/1999/02/22-rdf-syntax-ns#">
   <cc:Work>
    <dc:type rdf:resource="http://purl.org/dc/dcmitype/StillImage"/>
    <dc:date>2024-02-14T11:41:42.805991</dc:date>
    <dc:format>image/svg+xml</dc:format>
    <dc:creator>
     <cc:Agent>
      <dc:title>Matplotlib v3.5.3, https://matplotlib.org/</dc:title>
     </cc:Agent>
    </dc:creator>
   </cc:Work>
  </rdf:RDF>
 </metadata>
 <defs>
  <style type="text/css">*{stroke-linejoin: round; stroke-linecap: butt}</style>
 </defs>
 <g id="figure_1">
  <g id="patch_1">
   <path d="M 0 216 
L 324 216 
L 324 0 
L 0 0 
L 0 216 
z
" style="fill: none"/>
  </g>
  <g id="axes_1">
   <g id="patch_2">
    <path d="M 37.005952 201.7 
L 286.994048 201.7 
L 286.994048 10.8 
L 37.005952 10.8 
L 37.005952 201.7 
z
" style="fill: none"/>
   </g>
   <g id="PolyCollection_1">
    <defs>
     <path id="me64b58c85f" d="M 59.732143 -91.569048 
L 59.732143 -91.569048 
L 60.187806 -85.658638 
L 60.643469 -83.501557 
L 61.099132 -81.962088 
L 61.554795 -80.741288 
L 62.010458 -79.723447 
L 62.466121 -78.84783 
L 62.921784 -78.081346 
L 63.377447 -77.400576 
L 63.83311 -76.788493 
L 64.288773 -76.232436 
L 64.744435 -75.728255 
L 65.200098 -75.26451 
L 65.655761 -74.838437 
L 66.111424 -74.443625 
L 66.567087 -74.079536 
L 67.02275 -73.739445 
L 67.478413 -73.423597 
L 67.934076 -73.129511 
L 68.389739 -72.853831 
L 68.845402 -72.595255 
L 69.301065 -72.353809 
L 69.756728 -72.127751 
L 70.212391 -71.915204 
L 70.668054 -71.715294 
L 71.123717 -71.527221 
L 71.57938 -71.350243 
L 72.035043 -71.183677 
L 72.490706 -71.02689 
L 72.946369 -70.879297 
L 73.402032 -70.740438 
L 73.857695 -70.609802 
L 74.313358 -70.48674 
L 74.769021 -70.370829 
L 75.224684 -70.261673 
L 75.680347 -70.158901 
L 76.13601 -70.062346 
L 76.591673 -69.971581 
L 77.047336 -69.886262 
L 77.502999 -69.806093 
L 77.958662 -69.730802 
L 78.414325 -69.660129 
L 78.869987 -69.593832 
L 79.32565 -69.531681 
L 79.781313 -69.473461 
L 80.236976 -69.41897 
L 80.692639 -69.368014 
L 81.148302 -69.320413 
L 81.603965 -69.276325 
L 82.059628 -69.235425 
L 82.515291 -69.197369 
L 82.970954 -69.162008 
L 83.426617 -69.129202 
L 83.88228 -69.09882 
L 84.337943 -69.070735 
L 84.793606 -69.045179 
L 85.249269 -69.021795 
L 85.704932 -69.000325 
L 86.160595 -68.980666 
L 86.616258 -68.962718 
L 87.071921 -68.946387 
L 87.527584 -68.93199 
L 87.983247 -68.918999 
L 88.43891 -68.907317 
L 88.894573 -68.896866 
L 89.350236 -68.887571 
L 89.805899 -68.879636 
L 90.261562 -68.872723 
L 90.717225 -68.866702 
L 91.172888 -68.861512 
L 91.628551 -68.857107 
L 92.084214 -68.853623 
L 92.539876 -68.850734 
L 92.995539 -68.848385 
L 93.451202 -68.846524 
L 93.906865 -68.845183 
L 94.362528 -68.844246 
L 94.818191 -68.843589 
L 95.273854 -68.843168 
L 95.729517 -68.842952 
L 96.18518 -68.842882 
L 96.640843 -68.842857 
L 97.096506 -68.842838 
L 97.552169 -68.842781 
L 98.007832 -68.842571 
L 98.463495 -68.842187 
L 98.919158 -68.841595 
L 99.374821 -68.840758 
L 99.830484 -68.839456 
L 100.286147 -68.837776 
L 100.74181 -68.835685 
L 101.197473 -68.833145 
L 101.653136 -68.829842 
L 102.108799 -68.825964 
L 102.564462 -68.821481 
L 103.020125 -68.816327 
L 103.475788 -68.810138 
L 103.931451 -68.803183 
L 104.387114 -68.795435 
L 104.842777 -68.786759 
L 105.29844 -68.776813 
L 105.754103 -68.765913 
L 106.209765 -68.754032 
L 106.665428 -68.740922 
L 107.121091 -68.726348 
L 107.576754 -68.710631 
L 108.032417 -68.693742 
L 108.48808 -68.675276 
L 108.943743 -68.655192 
L 109.399406 -68.63377 
L 109.855069 -68.610981 
L 110.310732 -68.586217 
L 110.766395 -68.559716 
L 111.222058 -68.531674 
L 111.677721 -68.502059 
L 112.133384 -68.470034 
L 112.589047 -68.43617 
L 113.04471 -68.40055 
L 113.500373 -68.363133 
L 113.956036 -68.322855 
L 114.411699 -68.280632 
L 114.867362 -68.236422 
L 115.323025 -68.19006 
L 115.778688 -68.140605 
L 116.234351 -68.088958 
L 116.690014 -68.035073 
L 117.145677 -67.978699 
L 117.60134 -67.918944 
L 118.057003 -67.856726 
L 118.512666 -67.791993 
L 118.968329 -67.724485 
L 119.423992 -67.653209 
L 119.879654 -67.579171 
L 120.335317 -67.502309 
L 120.79098 -67.422478 
L 121.246643 -67.338344 
L 121.702306 -67.251111 
L 122.157969 -67.160708 
L 122.613632 -67.067058 
L 123.069295 -66.96882 
L 123.524958 -66.866869 
L 123.980621 -66.761355 
L 124.436284 -66.652189 
L 124.891947 -66.538543 
L 125.34761 -66.42017 
L 125.803273 -66.297787 
L 126.258936 -66.171288 
L 126.714599 -66.040562 
L 127.170262 -65.904032 
L 127.625925 -65.762795 
L 128.081588 -65.616907 
L 128.537251 -65.466236 
L 128.992914 -65.310621 
L 129.448577 -65.148275 
L 129.90424 -64.980657 
L 130.359903 -64.80761 
L 130.815566 -64.62897 
L 131.271229 -64.444564 
L 131.726892 -64.253023 
L 132.182555 -64.054806 
L 132.638218 -63.850205 
L 133.093881 -63.639014 
L 133.549544 -63.421011 
L 134.005206 -63.195965 
L 134.460869 -62.962577 
L 134.916532 -62.721071 
L 135.372195 -62.471732 
L 135.827858 -62.214276 
L 136.283521 -61.948406 
L 136.739184 -61.673809 
L 137.194847 -61.390152 
L 137.65051 -61.097084 
L 138.106173 -60.792949 
L 138.561836 -60.478627 
L 139.017499 -60.153744 
L 139.473162 -59.817866 
L 139.928825 -59.470531 
L 140.384488 -59.11125 
L 140.840151 -58.739501 
L 141.295814 -58.354731 
L 141.751477 -57.956349 
L 142.20714 -57.543725 
L 142.662803 -57.116187 
L 143.118466 -56.673017 
L 143.574129 -56.213446 
L 144.029792 -55.736651 
L 144.485455 -55.241748 
L 144.941118 -54.727791 
L 145.396781 -54.19376 
L 145.852444 -53.638558 
L 146.308107 -53.061002 
L 146.76377 -52.459816 
L 147.219433 -51.83362 
L 147.675095 -51.180918 
L 148.130758 -50.496874 
L 148.586421 -49.781788 
L 149.042084 -49.034092 
L 149.497747 -48.25159 
L 149.95341 -47.430763 
L 150.409073 -46.563296 
L 150.864736 -45.671173 
L 151.320399 -44.809254 
L 151.776062 -43.999996 
L 152.231725 -43.234129 
L 152.687388 -42.507767 
L 153.143051 -41.818513 
L 153.598714 -41.164676 
L 154.054377 -40.546707 
L 154.51004 -39.959166 
L 154.965703 -39.400418 
L 155.421366 -38.868957 
L 155.877029 -38.363388 
L 156.332692 -37.882419 
L 156.788355 -37.424852 
L 157.244018 -36.989573 
L 157.699681 -36.575547 
L 158.155344 -36.181809 
L 158.611007 -35.80746 
L 159.06667 -35.45166 
L 159.522333 -35.113624 
L 159.977996 -34.792617 
L 160.433659 -34.487951 
L 160.889322 -34.19898 
L 161.344984 -33.925099 
L 161.800647 -33.665738 
L 162.25631 -33.420361 
L 162.711973 -33.188465 
L 163.167636 -32.969574 
L 163.623299 -32.763282 
L 164.078962 -32.570754 
L 164.534625 -32.389994 
L 164.990288 -32.220617 
L 165.445951 -32.062261 
L 165.901614 -31.914582 
L 166.357277 -31.777255 
L 166.81294 -31.649971 
L 167.268603 -31.533151 
L 167.724266 -31.427161 
L 168.179929 -31.330371 
L 168.635592 -31.242529 
L 169.091255 -31.163395 
L 169.546918 -31.092739 
L 170.002581 -31.03101 
L 170.458244 -30.978897 
L 170.913907 -30.934615 
L 171.36957 -30.897976 
L 171.825233 -30.868799 
L 172.280896 -30.846913 
L 172.736559 -30.834425 
L 173.192222 -30.828907 
L 173.647885 -30.830174 
L 174.103548 -30.838085 
L 174.559211 -30.852766 
L 175.014873 -30.875886 
L 175.470536 -30.905216 
L 175.926199 -30.940638 
L 176.381862 -30.982039 
L 176.837525 -31.030554 
L 177.293188 -31.085895 
L 177.748851 -31.146858 
L 178.204514 -31.213349 
L 178.660177 -31.285647 
L 179.11584 -31.365227 
L 179.571503 -31.450026 
L 180.027166 -31.539965 
L 180.482829 -31.63497 
L 180.938492 -31.737118 
L 181.394155 -31.844275 
L 181.849818 -31.956242 
L 182.305481 -32.072955 
L 182.761144 -32.196248 
L 183.216807 -32.324481 
L 183.67247 -32.457239 
L 184.128133 -32.594472 
L 184.583796 -32.737962 
L 185.039459 -32.886157 
L 185.495122 -33.038635 
L 185.950785 -33.195354 
L 186.406448 -33.358189 
L 186.862111 -33.525381 
L 187.317774 -33.69665 
L 187.773437 -33.871961 
L 188.2291 -34.053373 
L 188.684763 -34.238727 
L 189.140425 -34.427984 
L 189.596088 -34.621393 
L 190.051751 -34.820413 
L 190.507414 -35.023212 
L 190.963077 -35.229764 
L 191.41874 -35.440644 
L 191.874403 -35.656621 
L 192.330066 -35.876247 
L 192.785729 -36.099505 
L 193.241392 -36.327285 
L 193.697055 -36.559675 
L 194.152718 -36.795609 
L 194.608381 -37.035074 
L 195.064044 -37.279249 
L 195.519707 -37.527595 
L 195.97537 -37.779402 
L 196.431033 -38.03466 
L 196.886696 -38.294786 
L 197.342359 -38.558715 
L 197.798022 -38.826041 
L 198.253685 -39.096758 
L 198.709348 -39.372447 
L 199.165011 -39.651664 
L 199.620674 -39.934231 
L 200.076337 -40.220149 
L 200.532 -40.511069 
L 200.987663 -40.805351 
L 201.443326 -41.102956 
L 201.898989 -41.40389 
L 202.354652 -41.709763 
L 202.810314 -42.018961 
L 203.265977 -42.331474 
L 203.72164 -42.647309 
L 204.177303 -42.967912 
L 204.632966 -43.291949 
L 205.088629 -43.61931 
L 205.544292 -43.950008 
L 205.999955 -44.285168 
L 206.455618 -44.62404 
L 206.911281 -44.966266 
L 207.366944 -45.311862 
L 207.822607 -45.66146 
L 208.27827 -46.015241 
L 208.733933 -46.372426 
L 209.189596 -46.733036 
L 209.645259 -47.097095 
L 210.100922 -47.465851 
L 210.556585 -47.838172 
L 211.012248 -48.213996 
L 211.467911 -48.593352 
L 211.923574 -48.976483 
L 212.379237 -49.364208 
L 212.8349 -49.755539 
L 213.290563 -50.150515 
L 213.746226 -50.549172 
L 214.201889 -50.951588 
L 214.657552 -51.358827 
L 215.113215 -51.769851 
L 215.568878 -52.184707 
L 216.024541 -52.603445 
L 216.480203 -53.026117 
L 216.935866 -53.453053 
L 217.391529 -53.884699 
L 217.847192 -54.320427 
L 218.302855 -54.760299 
L 218.758518 -55.204383 
L 219.214181 -55.65275 
L 219.669844 -56.105474 
L 220.125507 -56.562901 
L 220.58117 -57.025301 
L 221.036833 -57.492277 
L 221.492496 -57.963919 
L 221.948159 -58.440326 
L 222.403822 -58.9216 
L 222.859485 -59.40785 
L 223.315148 -59.899193 
L 223.770811 -60.395751 
L 224.226474 -60.897654 
L 224.682137 -61.405042 
L 225.1378 -61.918063 
L 225.593463 -62.436905 
L 226.049126 -62.961823 
L 226.504789 -63.492813 
L 226.960452 -64.03006 
L 227.416115 -64.573766 
L 227.871778 -65.124143 
L 228.327441 -65.681582 
L 228.783104 -66.246338 
L 229.238767 -66.818612 
L 229.69443 -67.398696 
L 230.150092 -67.986908 
L 230.605755 -68.583591 
L 231.061418 -69.189116 
L 231.517081 -69.803886 
L 231.972744 -70.428336 
L 232.428407 -71.063583 
L 232.88407 -71.71059 
L 233.339733 -72.369105 
L 233.795396 -73.039778 
L 234.251059 -73.724551 
L 234.706722 -74.424733 
L 235.162385 -75.139893 
L 235.618048 -75.873886 
L 236.073711 -76.626709 
L 236.529374 -77.401831 
L 236.985037 -78.20051 
L 237.4407 -79.028902 
L 237.896363 -79.888865 
L 238.352026 -80.786965 
L 238.807689 -81.731943 
L 239.263352 -82.735728 
L 239.719015 -83.815074 
L 240.174678 -85.000783 
L 240.630341 -86.3513 
L 241.086004 -88.017121 
L 241.541667 -91.569048 
L 241.541667 -91.569048 
L 241.541667 -91.569048 
L 241.086004 -94.526752 
L 240.630341 -95.60997 
L 240.174678 -96.385881 
L 239.719015 -97.003722 
L 239.263352 -97.52121 
L 238.807689 -97.968612 
L 238.352026 -98.362427 
L 237.896363 -98.714312 
L 237.4407 -99.03273 
L 236.985037 -99.323955 
L 236.529374 -99.590114 
L 236.073711 -99.836825 
L 235.618048 -100.065499 
L 235.162385 -100.279281 
L 234.706722 -100.478503 
L 234.251059 -100.666414 
L 233.795396 -100.842961 
L 233.339733 -101.009371 
L 232.88407 -101.167259 
L 232.428407 -101.317277 
L 231.972744 -101.459468 
L 231.517081 -101.59468 
L 231.061418 -101.723813 
L 230.605755 -101.847302 
L 230.150092 -101.965547 
L 229.69443 -102.078919 
L 229.238767 -102.18776 
L 228.783104 -102.292385 
L 228.327441 -102.393087 
L 227.871778 -102.490103 
L 227.416115 -102.583688 
L 226.960452 -102.674152 
L 226.504789 -102.761706 
L 226.049126 -102.846547 
L 225.593463 -102.92886 
L 225.1378 -103.00875 
L 224.682137 -103.086419 
L 224.226474 -103.162038 
L 223.770811 -103.235753 
L 223.315148 -103.307699 
L 222.859485 -103.378008 
L 222.403822 -103.446798 
L 221.948159 -103.514186 
L 221.492496 -103.580277 
L 221.036833 -103.645174 
L 220.58117 -103.708972 
L 220.125507 -103.771761 
L 219.669844 -103.833536 
L 219.214181 -103.894434 
L 218.758518 -103.954588 
L 218.302855 -104.014072 
L 217.847192 -104.072955 
L 217.391529 -104.131304 
L 216.935866 -104.18918 
L 216.480203 -104.246587 
L 216.024541 -104.303641 
L 215.568878 -104.360426 
L 215.113215 -104.416992 
L 214.657552 -104.473389 
L 214.201889 -104.529664 
L 213.746226 -104.585863 
L 213.290563 -104.642064 
L 212.8349 -104.698308 
L 212.379237 -104.754636 
L 211.923574 -104.811085 
L 211.467911 -104.867758 
L 211.012248 -104.924672 
L 210.556585 -104.981852 
L 210.100922 -105.039331 
L 209.645259 -105.097147 
L 209.189596 -105.155482 
L 208.733933 -105.214246 
L 208.27827 -105.273468 
L 207.822607 -105.333175 
L 207.366944 -105.393528 
L 206.911281 -105.454556 
L 206.455618 -105.516189 
L 205.999955 -105.578451 
L 205.544292 -105.641443 
L 205.088629 -105.705375 
L 204.632966 -105.77005 
L 204.177303 -105.835488 
L 203.72164 -105.901742 
L 203.265977 -105.96919 
L 202.810314 -106.037511 
L 202.354652 -106.106727 
L 201.898989 -106.17686 
L 201.443326 -106.248419 
L 200.987663 -106.320978 
L 200.532 -106.394558 
L 200.076337 -106.469189 
L 199.620674 -106.545445 
L 199.165011 -106.622828 
L 198.709348 -106.701356 
L 198.253685 -106.781111 
L 197.798022 -106.862651 
L 197.342359 -106.945444 
L 196.886696 -107.029509 
L 196.431033 -107.115023 
L 195.97537 -107.202442 
L 195.519707 -107.291244 
L 195.064044 -107.381449 
L 194.608381 -107.473373 
L 194.152718 -107.567284 
L 193.697055 -107.662714 
L 193.241392 -107.759682 
L 192.785729 -107.858686 
L 192.330066 -107.959728 
L 191.874403 -108.062432 
L 191.41874 -108.166819 
L 190.963077 -108.273597 
L 190.507414 -108.382444 
L 190.051751 -108.493105 
L 189.596088 -108.605606 
L 189.140425 -108.720885 
L 188.684763 -108.838254 
L 188.2291 -108.957603 
L 187.773437 -109.078969 
L 187.317774 -109.203503 
L 186.862111 -109.330167 
L 186.406448 -109.458994 
L 185.950785 -109.590151 
L 185.495122 -109.724623 
L 185.039459 -109.861423 
L 184.583796 -110.000588 
L 184.128133 -110.14237 
L 183.67247 -110.287678 
L 183.216807 -110.435533 
L 182.761144 -110.585981 
L 182.305481 -110.739276 
L 181.849818 -110.896408 
L 181.394155 -111.056336 
L 180.938492 -111.219111 
L 180.482829 -111.384869 
L 180.027166 -111.554923 
L 179.571503 -111.728054 
L 179.11584 -111.904322 
L 178.660177 -112.083792 
L 178.204514 -112.267766 
L 177.748851 -112.455365 
L 177.293188 -112.646432 
L 176.837525 -112.841044 
L 176.381862 -113.039989 
L 175.926199 -113.243483 
L 175.470536 -113.450825 
L 175.014873 -113.662107 
L 174.559211 -113.877422 
L 174.103548 -114.098257 
L 173.647885 -114.32355 
L 173.192222 -114.553239 
L 172.736559 -114.787437 
L 172.280896 -115.026285 
L 171.825233 -115.271446 
L 171.36957 -115.521532 
L 170.913907 -115.776682 
L 170.458244 -116.037037 
L 170.002581 -116.302747 
L 169.546918 -116.575068 
L 169.091255 -116.853557 
L 168.635592 -117.137931 
L 168.179929 -117.42837 
L 167.724266 -117.725066 
L 167.268603 -118.028219 
L 166.81294 -118.339005 
L 166.357277 -118.657201 
L 165.901614 -118.982536 
L 165.445951 -119.315254 
L 164.990288 -119.655613 
L 164.534625 -120.003887 
L 164.078962 -120.360363 
L 163.623299 -120.725346 
L 163.167636 -121.100316 
L 162.711973 -121.484462 
L 162.25631 -121.878109 
L 161.800647 -122.281632 
L 161.344984 -122.695433 
L 160.889322 -123.119937 
L 160.433659 -123.555595 
L 159.977996 -124.002888 
L 159.522333 -124.462329 
L 159.06667 -124.934463 
L 158.611007 -125.419875 
L 158.155344 -125.919188 
L 157.699681 -126.433067 
L 157.244018 -126.962228 
L 156.788355 -127.507436 
L 156.332692 -128.069514 
L 155.877029 -128.649346 
L 155.421366 -129.247882 
L 154.965703 -129.86615 
L 154.51004 -130.505256 
L 154.054377 -131.166398 
L 153.598714 -131.850873 
L 153.143051 -132.562913 
L 152.687388 -133.302228 
L 152.231725 -134.070175 
L 151.776062 -134.868657 
L 151.320399 -135.700737 
L 150.864736 -136.573672 
L 150.409073 -137.46805 
L 149.95341 -138.335436 
L 149.497747 -139.155947 
L 149.042084 -139.937794 
L 148.586421 -140.684407 
L 148.130758 -141.397891 
L 147.675095 -142.079724 
L 147.219433 -142.729465 
L 146.76377 -143.351952 
L 146.308107 -143.94862 
L 145.852444 -144.520793 
L 145.396781 -145.069697 
L 144.941118 -145.596466 
L 144.485455 -146.102154 
L 144.029792 -146.587739 
L 143.574129 -147.054131 
L 143.118466 -147.502177 
L 142.662803 -147.932668 
L 142.20714 -148.346342 
L 141.751477 -148.743889 
L 141.295814 -149.125955 
L 140.840151 -149.493144 
L 140.384488 -149.846024 
L 139.928825 -150.185127 
L 139.473162 -150.510954 
L 139.017499 -150.823976 
L 138.561836 -151.124636 
L 138.106173 -151.413352 
L 137.65051 -151.690478 
L 137.194847 -151.954921 
L 136.739184 -152.2085 
L 136.283521 -152.451554 
L 135.827858 -152.6844 
L 135.372195 -152.907341 
L 134.916532 -153.120664 
L 134.460869 -153.324638 
L 134.005206 -153.518855 
L 133.549544 -153.702953 
L 133.093881 -153.878435 
L 132.638218 -154.045525 
L 132.182555 -154.204433 
L 131.726892 -154.35536 
L 131.271229 -154.497869 
L 130.815566 -154.631286 
L 130.359903 -154.757283 
L 129.90424 -154.876026 
L 129.448577 -154.987672 
L 128.992914 -155.092371 
L 128.537251 -155.188092 
L 128.081588 -155.277138 
L 127.625925 -155.359672 
L 127.170262 -155.435818 
L 126.714599 -155.505441 
L 126.258936 -155.566911 
L 125.803273 -155.622362 
L 125.34761 -155.671899 
L 124.891947 -155.71562 
L 124.436284 -155.752404 
L 123.980621 -155.782508 
L 123.524958 -155.807098 
L 123.069295 -155.826256 
L 122.613632 -155.839693 
L 122.157969 -155.845935 
L 121.702306 -155.847 
L 121.246643 -155.842958 
L 120.79098 -155.833874 
L 120.335317 -155.817652 
L 119.879654 -155.796409 
L 119.423992 -155.770332 
L 118.968329 -155.739475 
L 118.512666 -155.701968 
L 118.057003 -155.659451 
L 117.60134 -155.61233 
L 117.145677 -155.560649 
L 116.690014 -155.502567 
L 116.234351 -155.439653 
L 115.778688 -155.372327 
L 115.323025 -155.300625 
L 114.867362 -155.222585 
L 114.411699 -155.140011 
L 113.956036 -155.053182 
L 113.500373 -154.962127 
L 113.04471 -154.864664 
L 112.589047 -154.76304 
L 112.133384 -154.657288 
L 111.677721 -154.547133 
L 111.222058 -154.430998 
L 110.766395 -154.310819 
L 110.310732 -154.186612 
L 109.855069 -154.057747 
L 109.399406 -153.923368 
L 108.943743 -153.785023 
L 108.48808 -153.642724 
L 108.032417 -153.49548 
L 107.576754 -153.34317 
L 107.121091 -153.186949 
L 106.665428 -153.026822 
L 106.209765 -152.86146 
L 105.754103 -152.691437 
L 105.29844 -152.517533 
L 104.842777 -152.339748 
L 104.387114 -152.156461 
L 103.931451 -151.968848 
L 103.475788 -151.777361 
L 103.020125 -151.581994 
L 102.564462 -151.380907 
L 102.108799 -151.175735 
L 101.653136 -150.966673 
L 101.197473 -150.753707 
L 100.74181 -150.534879 
L 100.286147 -150.312085 
L 99.830484 -150.085359 
L 99.374821 -149.854683 
L 98.919158 -149.618105 
L 98.463495 -149.37753 
L 98.007832 -149.132956 
L 97.552169 -148.884359 
L 97.096506 -148.629953 
L 96.640843 -148.371335 
L 96.18518 -148.108623 
L 95.729517 -147.841787 
L 95.273854 -147.569404 
L 94.818191 -147.292372 
L 94.362528 -147.011123 
L 93.906865 -146.725616 
L 93.451202 -146.435031 
L 92.995539 -146.139096 
L 92.539876 -145.838785 
L 92.084214 -145.53405 
L 91.628551 -145.224841 
L 91.172888 -144.909497 
L 90.717225 -144.589464 
L 90.261562 -144.2648 
L 89.805899 -143.935444 
L 89.350236 -143.601051 
L 88.894573 -143.260481 
L 88.43891 -142.915026 
L 87.983247 -142.564613 
L 87.527584 -142.209165 
L 87.071921 -141.848551 
L 86.616258 -141.481257 
L 86.160595 -141.108682 
L 85.704932 -140.730733 
L 85.249269 -140.347309 
L 84.793606 -139.958307 
L 84.337943 -139.563223 
L 83.88228 -139.161368 
L 83.426617 -138.753606 
L 82.970954 -138.339812 
L 82.515291 -137.91985 
L 82.059628 -137.493581 
L 81.603965 -137.060855 
L 81.148302 -136.621116 
L 80.692639 -136.173903 
L 80.236976 -135.71977 
L 79.781313 -135.258532 
L 79.32565 -134.789997 
L 78.869987 -134.31396 
L 78.414325 -133.830203 
L 77.958662 -133.338496 
L 77.502999 -132.838594 
L 77.047336 -132.330236 
L 76.591673 -131.813147 
L 76.13601 -131.287032 
L 75.680347 -130.751524 
L 75.224684 -130.206148 
L 74.769021 -129.650843 
L 74.313358 -129.085238 
L 73.857695 -128.508934 
L 73.402032 -127.921506 
L 72.946369 -127.322224 
L 72.490706 -126.710577 
L 72.035043 -126.086142 
L 71.57938 -125.448333 
L 71.123717 -124.796515 
L 70.668054 -124.130003 
L 70.212391 -123.448057 
L 69.756728 -122.749873 
L 69.301065 -122.034577 
L 68.845402 -121.300075 
L 68.389739 -120.544511 
L 67.934076 -119.768204 
L 67.478413 -118.969854 
L 67.02275 -118.14578 
L 66.567087 -117.293418 
L 66.111424 -116.41339 
L 65.655761 -115.498368 
L 65.200098 -114.548146 
L 64.744435 -113.555991 
L 64.288773 -112.519289 
L 63.83311 -111.426066 
L 63.377447 -110.272438 
L 62.921784 -109.045452 
L 62.466121 -107.727805 
L 62.010458 -106.295806 
L 61.554795 -104.716106 
L 61.099132 -102.927438 
L 60.643469 -100.813364 
L 60.187806 -98.073681 
L 59.732143 -91.569048 
z
" style="stroke: #1f77b4; stroke-opacity: 0.15"/>
    </defs>
    <g clip-path="url(#p8dc5854361)">
     <use xlink:href="#me64b58c85f" x="0" y="216" style="fill: #1f77b4; fill-opacity: 0.15; stroke: #1f77b4; stroke-opacity: 0.15"/>
    </g>
   </g>
   <g id="PolyCollection_2">
    <defs>
     <path id="mbf4434c9ca" d="M 144.576587 -91.569048 
L 144.576587 -91.569047 
L 144.699018 -90.357046 
L 144.821449 -89.863786 
L 144.943879 -89.49133 
L 145.06631 -89.182435 
L 145.188741 -88.914814 
L 145.311171 -88.676988 
L 145.433602 -88.462106 
L 145.556033 -88.265688 
L 145.678463 -88.08461 
L 145.800894 -87.91659 
L 145.923325 -87.7599 
L 146.045755 -87.613192 
L 146.168186 -87.475394 
L 146.290616 -87.345634 
L 146.413047 -87.22319 
L 146.535478 -87.107462 
L 146.657908 -86.997939 
L 146.780339 -86.894184 
L 146.90277 -86.795822 
L 147.0252 -86.702525 
L 147.147631 -86.614008 
L 147.270062 -86.530018 
L 147.392492 -86.450333 
L 147.514923 -86.374755 
L 147.637354 -86.303106 
L 147.759784 -86.235229 
L 147.882215 -86.17098 
L 148.004646 -86.110233 
L 148.127076 -86.052871 
L 148.249507 -85.998789 
L 148.371938 -85.947894 
L 148.494368 -85.900098 
L 148.616799 -85.855326 
L 148.73923 -85.813504 
L 148.86166 -85.774571 
L 148.984091 -85.738468 
L 149.106522 -85.705143 
L 149.228952 -85.674549 
L 149.351383 -85.646643 
L 149.473814 -85.621387 
L 149.596244 -85.598748 
L 149.718675 -85.578697 
L 149.841105 -85.561207 
L 149.963536 -85.546256 
L 150.085967 -85.533825 
L 150.208397 -85.523898 
L 150.330828 -85.516464 
L 150.453259 -85.511513 
L 150.575689 -85.509039 
L 150.69812 -85.509039 
L 150.820551 -85.511513 
L 150.942981 -85.516464 
L 151.065412 -85.523898 
L 151.187843 -85.533825 
L 151.310273 -85.546256 
L 151.432704 -85.561207 
L 151.555135 -85.578697 
L 151.677565 -85.598748 
L 151.799996 -85.621387 
L 151.922427 -85.646643 
L 152.044857 -85.674549 
L 152.167288 -85.705143 
L 152.289719 -85.738468 
L 152.412149 -85.774571 
L 152.53458 -85.813504 
L 152.657011 -85.855326 
L 152.779441 -85.900098 
L 152.901872 -85.947894 
L 153.024303 -85.998789 
L 153.146733 -86.052871 
L 153.269164 -86.110233 
L 153.391595 -86.17098 
L 153.514025 -86.235229 
L 153.636456 -86.303106 
L 153.758886 -86.374755 
L 153.881317 -86.450333 
L 154.003748 -86.530018 
L 154.126178 -86.614008 
L 154.248609 -86.702525 
L 154.37104 -86.795822 
L 154.49347 -86.894184 
L 154.615901 -86.997939 
L 154.738332 -87.107462 
L 154.860762 -87.22319 
L 154.983193 -87.345634 
L 155.105624 -87.475394 
L 155.228054 -87.613192 
L 155.350485 -87.7599 
L 155.472916 -87.91659 
L 155.595346 -88.08461 
L 155.717777 -88.265688 
L 155.840208 -88.462106 
L 155.962638 -88.676988 
L 156.085069 -88.914814 
L 156.2075 -89.182435 
L 156.32993 -89.49133 
L 156.452361 -89.863786 
L 156.574792 -90.357046 
L 156.697222 -91.569047 
L 156.697222 -91.569048 
L 156.697222 -91.569048 
L 156.574792 -92.781049 
L 156.452361 -93.274309 
L 156.32993 -93.646765 
L 156.2075 -93.95566 
L 156.085069 -94.223281 
L 155.962638 -94.461107 
L 155.840208 -94.675989 
L 155.717777 -94.872407 
L 155.595346 -95.053485 
L 155.472916 -95.221505 
L 155.350485 -95.378196 
L 155.228054 -95.524903 
L 155.105624 -95.662701 
L 154.983193 -95.792462 
L 154.860762 -95.914905 
L 154.738332 -96.030633 
L 154.615901 -96.140156 
L 154.49347 -96.243911 
L 154.37104 -96.342273 
L 154.248609 -96.43557 
L 154.126178 -96.524087 
L 154.003748 -96.608077 
L 153.881317 -96.687762 
L 153.758886 -96.76334 
L 153.636456 -96.834989 
L 153.514025 -96.902867 
L 153.391595 -96.967115 
L 153.269164 -97.027862 
L 153.146733 -97.085225 
L 153.024303 -97.139306 
L 152.901872 -97.190202 
L 152.779441 -97.237997 
L 152.657011 -97.28277 
L 152.53458 -97.324591 
L 152.412149 -97.363524 
L 152.289719 -97.399627 
L 152.167288 -97.432952 
L 152.044857 -97.463547 
L 151.922427 -97.491453 
L 151.799996 -97.516708 
L 151.677565 -97.539347 
L 151.555135 -97.559398 
L 151.432704 -97.576888 
L 151.310273 -97.59184 
L 151.187843 -97.60427 
L 151.065412 -97.614197 
L 150.942981 -97.621631 
L 150.820551 -97.626582 
L 150.69812 -97.629056 
L 150.575689 -97.629056 
L 150.453259 -97.626582 
L 150.330828 -97.621631 
L 150.208397 -97.614197 
L 150.085967 -97.60427 
L 149.963536 -97.59184 
L 149.841105 -97.576888 
L 149.718675 -97.559398 
L 149.596244 -97.539347 
L 149.473814 -97.516708 
L 149.351383 -97.491453 
L 149.228952 -97.463547 
L 149.106522 -97.432952 
L 148.984091 -97.399627 
L 148.86166 -97.363524 
L 148.73923 -97.324591 
L 148.616799 -97.28277 
L 148.494368 -97.237997 
L 148.371938 -97.190202 
L 148.249507 -97.139306 
L 148.127076 -97.085225 
L 148.004646 -97.027862 
L 147.882215 -96.967115 
L 147.759784 -96.902867 
L 147.637354 -96.834989 
L 147.514923 -96.76334 
L 147.392492 -96.687762 
L 147.270062 -96.608077 
L 147.147631 -96.524087 
L 147.0252 -96.43557 
L 146.90277 -96.342273 
L 146.780339 -96.243911 
L 146.657908 -96.140156 
L 146.535478 -96.030633 
L 146.413047 -95.914905 
L 146.290616 -95.792462 
L 146.168186 -95.662701 
L 146.045755 -95.524903 
L 145.923325 -95.378196 
L 145.800894 -95.221505 
L 145.678463 -95.053485 
L 145.556033 -94.872407 
L 145.433602 -94.675989 
L 145.311171 -94.461107 
L 145.188741 -94.223281 
L 145.06631 -93.95566 
L 144.943879 -93.646765 
L 144.821449 -93.274309 
L 144.699018 -92.781049 
L 144.576587 -91.569048 
z
" style="stroke: #ffffff"/>
    </defs>
    <g clip-path="url(#p8dc5854361)">
     <use xlink:href="#mbf4434c9ca" x="0" y="216" style="fill: #ffffff; stroke: #ffffff"/>
    </g>
   </g>
   <g id="patch_3">
    <path d="M 150.636905 130.49127 
C 152.24412 130.49127 153.785724 129.852717 154.922196 128.716244 
C 156.058669 127.579771 156.697222 126.038167 156.697222 124.430952 
C 156.697222 122.823737 156.058669 121.282133 154.922196 120.145661 
C 153.785724 119.009188 152.24412 118.370635 150.636905 118.370635 
C 149.02969 118.370635 147.488086 119.009188 146.351613 120.145661 
C 145.215141 121.282133 144.576587 122.823737 144.576587 124.430952 
C 144.576587 126.038167 145.215141 127.579771 146.351613 128.716244 
C 147.488086 129.852717 149.02969 130.49127 150.636905 130.49127 
L 150.636905 130.49127 
z
" clip-path="url(#p8dc5854361)" style="fill: none; stroke: #1f77b4; stroke-width: 1.5; stroke-linejoin: miter"/>
   </g>
   <g id="patch_4">
    <path d="M 59.732143 56.252381 
C 62.142965 56.252381 64.455371 55.294551 66.16008 53.589842 
C 67.864789 51.885133 68.822619 49.572727 68.822619 47.161905 
C 68.822619 44.751082 67.864789 42.438676 66.16008 40.733967 
C 64.455371 39.029258 62.142965 38.071429 59.732143 38.071429 
C 57.32132 38.071429 55.008914 39.029258 53.304205 40.733967 
C 51.599497 42.438676 50.641667 44.751082 50.641667 47.161905 
C 50.641667 49.572727 51.599497 51.885133 53.304205 53.589842 
C 55.008914 55.294551 57.32132 56.252381 59.732143 56.252381 
L 59.732143 56.252381 
z
" clip-path="url(#p8dc5854361)" style="fill: none; stroke: #ff0000; stroke-width: 2; stroke-linejoin: miter"/>
   </g>
   <g id="patch_5">
    <path d="M 59.732143 56.252381 
C 62.142965 56.252381 64.455371 55.294551 66.16008 53.589842 
C 67.864789 51.885133 68.822619 49.572727 68.822619 47.161905 
C 68.822619 44.751082 67.864789 42.438676 66.16008 40.733967 
C 64.455371 39.029258 62.142965 38.071429 59.732143 38.071429 
C 57.32132 38.071429 55.008914 39.029258 53.304205 40.733967 
C 51.599497 42.438676 50.641667 44.751082 50.641667 47.161905 
C 50.641667 49.572727 51.599497 51.885133 53.304205 53.589842 
C 55.008914 55.294551 57.32132 56.252381 59.732143 56.252381 
z
" clip-path="url(#p8dc5854361)" style="fill: #ff0000; opacity: 0.15"/>
   </g>
   <g id="PathCollection_1">
    <defs>
     <path id="mff5ded2999" d="M -3 3 
L 3 -3 
M -3 -3 
L 3 3 
" style="stroke: #ff0000; stroke-width: 1.5"/>
    </defs>
    <g clip-path="url(#p8dc5854361)">
     <use xlink:href="#mff5ded2999" x="59.732143" y="47.161905" style="fill: #ff0000; stroke: #ff0000; stroke-width: 1.5"/>
    </g>
   </g>
   <g id="matplotlib.axis_1"/>
   <g id="matplotlib.axis_2"/>
   <g id="line2d_1">
    <path d="M 59.732143 124.430952 
L 59.859463 121.006335 
L 60.234215 117.59037 
L 60.845584 114.191707 
L 61.682755 110.818999 
L 62.734915 107.480896 
L 63.991249 104.186051 
L 65.440943 100.943115 
L 67.073183 97.760738 
L 69.257603 94.034007 
L 71.67063 90.42189 
L 74.293575 86.939337 
L 77.107752 83.601298 
L 80.094473 80.422723 
L 83.235051 77.41856 
L 86.5108 74.60376 
L 89.903032 71.993273 
L 93.393059 69.602048 
L 96.962196 67.445036 
L 100.591754 65.537184 
L 104.263047 63.893444 
L 107.340856 62.736198 
L 110.423856 61.781396 
L 113.501233 61.037689 
L 116.562172 60.513728 
L 119.595859 60.218166 
L 122.59148 60.159653 
L 125.53822 60.346842 
L 128.425265 60.788383 
L 131.2418 61.492928 
L 133.436995 62.25174 
L 135.574606 63.188842 
L 137.649095 64.308662 
L 139.654927 65.61563 
L 141.586564 67.114175 
L 143.43847 68.808728 
L 145.205106 70.703718 
L 146.880937 72.803573 
L 148.460426 75.112725 
L 149.938035 77.635602 
L 152.813383 82.90702 
L 154.803014 85.910138 
L 156.941017 88.678803 
L 159.216578 91.223827 
L 161.618882 93.556026 
L 164.137116 95.686214 
L 166.760465 97.625205 
L 169.478115 99.383813 
L 172.848545 101.271264 
L 176.320508 102.933224 
L 179.875318 104.38838 
L 184.102374 105.849615 
L 188.387083 107.084476 
L 193.316423 108.25662 
L 198.850458 109.323343 
L 205.508962 110.353672 
L 215.868791 111.676876 
L 223.679748 112.749569 
L 228.316779 113.604563 
L 231.629406 114.437639 
L 234.200627 115.313136 
L 236.137755 116.196051 
L 237.808903 117.220988 
L 238.984865 118.197073 
L 239.952327 119.295576 
L 240.700475 120.527311 
L 241.218495 121.903092 
L 241.495572 123.433735 
L 241.521122 125.129776 
L 241.293532 126.99099 
L 240.822835 129.003172 
L 239.952327 131.595751 
L 238.766006 134.357759 
L 237.28256 137.263036 
L 235.20127 140.798697 
L 232.77067 144.452208 
L 230.020433 148.182025 
L 226.980234 151.946603 
L 223.679748 155.704399 
L 220.148649 159.413868 
L 216.416612 163.033465 
L 212.513311 166.521647 
L 208.46842 169.836869 
L 204.311614 172.937588 
L 200.682055 175.393127 
L 197.010763 177.634388 
L 193.316423 179.635208 
L 189.617722 181.369425 
L 186.545623 182.592076 
L 183.494287 183.596278 
L 180.474529 184.366891 
L 177.497162 184.888775 
L 174.573003 185.14679 
L 172.279251 185.153042 
L 170.032009 184.972977 
L 167.836814 184.598842 
L 165.699204 184.022886 
L 163.624714 183.237358 
L 161.618882 182.234506 
L 159.687245 181.006577 
L 157.83534 179.545821 
L 156.068703 177.844486 
L 154.392872 175.894819 
L 152.813383 173.68907 
L 151.335774 171.219486 
L 148.460426 166.014995 
L 146.880937 163.6968 
L 145.205106 161.576827 
L 143.43847 159.646216 
L 141.586564 157.89611 
L 139.160209 155.948814 
L 136.620087 154.252409 
L 133.977013 152.789594 
L 131.2418 151.543065 
L 128.425265 150.495519 
L 125.53822 149.629654 
L 121.99592 148.806071 
L 118.386347 148.189292 
L 114.115082 147.691205 
L 109.190726 147.355898 
L 103.035799 147.18385 
L 83.235051 146.857737 
L 79.080881 146.436054 
L 76.149598 145.940533 
L 73.397089 145.258142 
L 71.253376 144.525163 
L 69.257603 143.624345 
L 67.420584 142.538387 
L 65.753134 141.249985 
L 64.548529 140.061876 
L 63.464907 138.724271 
L 62.507803 137.228309 
L 61.682755 135.565132 
L 60.9953 133.725881 
L 60.450974 131.701696 
L 60.055315 129.483719 
L 59.813859 127.063091 
L 59.732143 124.430952 
L 59.732143 124.430952 
" clip-path="url(#p8dc5854361)" style="fill: none; stroke: #1f77b4; stroke-width: 1.5; stroke-linecap: square"/>
   </g>
   <g id="patch_6">
    <path d="M 37.005952 201.7 
L 37.005952 10.8 
" style="fill: none; stroke: #000000; stroke-width: 0.8; stroke-linejoin: miter; stroke-linecap: square"/>
   </g>
   <g id="patch_7">
    <path d="M 286.994048 201.7 
L 286.994048 10.8 
" style="fill: none; stroke: #000000; stroke-width: 0.8; stroke-linejoin: miter; stroke-linecap: square"/>
   </g>
   <g id="patch_8">
    <path d="M 37.005952 201.7 
L 286.994048 201.7 
" style="fill: none; stroke: #000000; stroke-width: 0.8; stroke-linejoin: miter; stroke-linecap: square"/>
   </g>
   <g id="patch_9">
    <path d="M 37.005952 10.8 
L 286.994048 10.8 
" style="fill: none; stroke: #000000; stroke-width: 0.8; stroke-linejoin: miter; stroke-linecap: square"/>
   </g>
   <g id="legend_1">
    <g id="patch_10">
     <path d="M 193.084673 74.032188 
L 279.994048 74.032188 
Q 281.994048 74.032188 281.994048 72.032188 
L 281.994048 17.8 
Q 281.994048 15.8 279.994048 15.8 
L 193.084673 15.8 
Q 191.084673 15.8 191.084673 17.8 
L 191.084673 72.032188 
Q 191.084673 74.032188 193.084673 74.032188 
z
" style="fill: #ffffff; opacity: 0.8; stroke: #cccccc; stroke-linejoin: miter"/>
    </g>
    <g id="patch_11">
     <path d="M 195.084673 27.398438 
L 215.084673 27.398438 
L 215.084673 20.398438 
L 195.084673 20.398438 
L 195.084673 27.398438 
z
" style="fill: none; stroke: #1f77b4; stroke-linejoin: miter"/>
    </g>
    <g id="patch_12">
     <path d="M 195.084673 27.398438 
L 215.084673 27.398438 
L 215.084673 20.398438 
L 195.084673 20.398438 
z
" style="fill: #1f77b4; opacity: 0.1"/>
    </g>
    <g id="text_1">
     <!-- opening -->
     <g transform="translate(223.084673 27.398438)scale(0.1 -0.1)">
      <defs>
       <path id="DejaVuSans-6f" d="M 1959 3097 
Q 1497 3097 1228 2736 
Q 959 2375 959 1747 
Q 959 1119 1226 758 
Q 1494 397 1959 397 
Q 2419 397 2687 759 
Q 2956 1122 2956 1747 
Q 2956 2369 2687 2733 
Q 2419 3097 1959 3097 
z
M 1959 3584 
Q 2709 3584 3137 3096 
Q 3566 2609 3566 1747 
Q 3566 888 3137 398 
Q 2709 -91 1959 -91 
Q 1206 -91 779 398 
Q 353 888 353 1747 
Q 353 2609 779 3096 
Q 1206 3584 1959 3584 
z
" transform="scale(0.015625)"/>
       <path id="DejaVuSans-70" d="M 1159 525 
L 1159 -1331 
L 581 -1331 
L 581 3500 
L 1159 3500 
L 1159 2969 
Q 1341 3281 1617 3432 
Q 1894 3584 2278 3584 
Q 2916 3584 3314 3078 
Q 3713 2572 3713 1747 
Q 3713 922 3314 415 
Q 2916 -91 2278 -91 
Q 1894 -91 1617 61 
Q 1341 213 1159 525 
z
M 3116 1747 
Q 3116 2381 2855 2742 
Q 2594 3103 2138 3103 
Q 1681 3103 1420 2742 
Q 1159 2381 1159 1747 
Q 1159 1113 1420 752 
Q 1681 391 2138 391 
Q 2594 391 2855 752 
Q 3116 1113 3116 1747 
z
" transform="scale(0.015625)"/>
       <path id="DejaVuSans-65" d="M 3597 1894 
L 3597 1613 
L 953 1613 
Q 991 1019 1311 708 
Q 1631 397 2203 397 
Q 2534 397 2845 478 
Q 3156 559 3463 722 
L 3463 178 
Q 3153 47 2828 -22 
Q 2503 -91 2169 -91 
Q 1331 -91 842 396 
Q 353 884 353 1716 
Q 353 2575 817 3079 
Q 1281 3584 2069 3584 
Q 2775 3584 3186 3129 
Q 3597 2675 3597 1894 
z
M 3022 2063 
Q 3016 2534 2758 2815 
Q 2500 3097 2075 3097 
Q 1594 3097 1305 2825 
Q 1016 2553 972 2059 
L 3022 2063 
z
" transform="scale(0.015625)"/>
       <path id="DejaVuSans-6e" d="M 3513 2113 
L 3513 0 
L 2938 0 
L 2938 2094 
Q 2938 2591 2744 2837 
Q 2550 3084 2163 3084 
Q 1697 3084 1428 2787 
Q 1159 2491 1159 1978 
L 1159 0 
L 581 0 
L 581 3500 
L 1159 3500 
L 1159 2956 
Q 1366 3272 1645 3428 
Q 1925 3584 2291 3584 
Q 2894 3584 3203 3211 
Q 3513 2838 3513 2113 
z
" transform="scale(0.015625)"/>
       <path id="DejaVuSans-69" d="M 603 3500 
L 1178 3500 
L 1178 0 
L 603 0 
L 603 3500 
z
M 603 4863 
L 1178 4863 
L 1178 4134 
L 603 4134 
L 603 4863 
z
" transform="scale(0.015625)"/>
       <path id="DejaVuSans-67" d="M 2906 1791 
Q 2906 2416 2648 2759 
Q 2391 3103 1925 3103 
Q 1463 3103 1205 2759 
Q 947 2416 947 1791 
Q 947 1169 1205 825 
Q 1463 481 1925 481 
Q 2391 481 2648 825 
Q 2906 1169 2906 1791 
z
M 3481 434 
Q 3481 -459 3084 -895 
Q 2688 -1331 1869 -1331 
Q 1566 -1331 1297 -1286 
Q 1028 -1241 775 -1147 
L 775 -588 
Q 1028 -725 1275 -790 
Q 1522 -856 1778 -856 
Q 2344 -856 2625 -561 
Q 2906 -266 2906 331 
L 2906 616 
Q 2728 306 2450 153 
Q 2172 0 1784 0 
Q 1141 0 747 490 
Q 353 981 353 1791 
Q 353 2603 747 3093 
Q 1141 3584 1784 3584 
Q 2172 3584 2450 3431 
Q 2728 3278 2906 2969 
L 2906 3500 
L 3481 3500 
L 3481 434 
z
" transform="scale(0.015625)"/>
      </defs>
      <use xlink:href="#DejaVuSans-6f"/>
      <use xlink:href="#DejaVuSans-70" x="61.181641"/>
      <use xlink:href="#DejaVuSans-65" x="124.658203"/>
      <use xlink:href="#DejaVuSans-6e" x="186.181641"/>
      <use xlink:href="#DejaVuSans-69" x="249.560547"/>
      <use xlink:href="#DejaVuSans-6e" x="277.34375"/>
      <use xlink:href="#DejaVuSans-67" x="340.722656"/>
     </g>
    </g>
    <g id="patch_13">
     <path d="M 205.084673 51.048646 
C 206.631691 51.048646 208.115555 50.434009 209.209462 49.340102 
C 210.303369 48.246195 210.918006 46.762331 210.918006 45.215313 
C 210.918006 43.668294 210.303369 42.18443 209.209462 41.090523 
C 208.115555 39.996616 206.631691 39.381979 205.084673 39.381979 
C 203.537655 39.381979 202.05379 39.996616 200.959883 41.090523 
C 199.865976 42.18443 199.251339 43.668294 199.251339 45.215313 
C 199.251339 46.762331 199.865976 48.246195 200.959883 49.340102 
C 202.05379 50.434009 203.537655 51.048646 205.084673 51.048646 
z
" style="fill: #ff0000; opacity: 0.15"/>
    </g>
    <g id="patch_14">
     <path d="M 205.084673 51.048646 
C 206.631691 51.048646 208.115555 50.434009 209.209462 49.340102 
C 210.303369 48.246195 210.918006 46.762331 210.918006 45.215313 
C 210.918006 43.668294 210.303369 42.18443 209.209462 41.090523 
C 208.115555 39.996616 206.631691 39.381979 205.084673 39.381979 
C 203.537655 39.381979 202.05379 39.996616 200.959883 41.090523 
C 199.865976 42.18443 199.251339 43.668294 199.251339 45.215313 
C 199.251339 46.762331 199.865976 48.246195 200.959883 49.340102 
C 202.05379 50.434009 203.537655 51.048646 205.084673 51.048646 
L 205.084673 51.048646 
z
" style="fill: none; stroke: #ff0000; stroke-width: 2; stroke-linejoin: miter"/>
    </g>
    <g id="text_2">
     <!-- structuring -->
     <g transform="translate(223.084673 42.076563)scale(0.1 -0.1)">
      <defs>
       <path id="DejaVuSans-73" d="M 2834 3397 
L 2834 2853 
Q 2591 2978 2328 3040 
Q 2066 3103 1784 3103 
Q 1356 3103 1142 2972 
Q 928 2841 928 2578 
Q 928 2378 1081 2264 
Q 1234 2150 1697 2047 
L 1894 2003 
Q 2506 1872 2764 1633 
Q 3022 1394 3022 966 
Q 3022 478 2636 193 
Q 2250 -91 1575 -91 
Q 1294 -91 989 -36 
Q 684 19 347 128 
L 347 722 
Q 666 556 975 473 
Q 1284 391 1588 391 
Q 1994 391 2212 530 
Q 2431 669 2431 922 
Q 2431 1156 2273 1281 
Q 2116 1406 1581 1522 
L 1381 1569 
Q 847 1681 609 1914 
Q 372 2147 372 2553 
Q 372 3047 722 3315 
Q 1072 3584 1716 3584 
Q 2034 3584 2315 3537 
Q 2597 3491 2834 3397 
z
" transform="scale(0.015625)"/>
       <path id="DejaVuSans-74" d="M 1172 4494 
L 1172 3500 
L 2356 3500 
L 2356 3053 
L 1172 3053 
L 1172 1153 
Q 1172 725 1289 603 
Q 1406 481 1766 481 
L 2356 481 
L 2356 0 
L 1766 0 
Q 1100 0 847 248 
Q 594 497 594 1153 
L 594 3053 
L 172 3053 
L 172 3500 
L 594 3500 
L 594 4494 
L 1172 4494 
z
" transform="scale(0.015625)"/>
       <path id="DejaVuSans-72" d="M 2631 2963 
Q 2534 3019 2420 3045 
Q 2306 3072 2169 3072 
Q 1681 3072 1420 2755 
Q 1159 2438 1159 1844 
L 1159 0 
L 581 0 
L 581 3500 
L 1159 3500 
L 1159 2956 
Q 1341 3275 1631 3429 
Q 1922 3584 2338 3584 
Q 2397 3584 2469 3576 
Q 2541 3569 2628 3553 
L 2631 2963 
z
" transform="scale(0.015625)"/>
       <path id="DejaVuSans-75" d="M 544 1381 
L 544 3500 
L 1119 3500 
L 1119 1403 
Q 1119 906 1312 657 
Q 1506 409 1894 409 
Q 2359 409 2629 706 
Q 2900 1003 2900 1516 
L 2900 3500 
L 3475 3500 
L 3475 0 
L 2900 0 
L 2900 538 
Q 2691 219 2414 64 
Q 2138 -91 1772 -91 
Q 1169 -91 856 284 
Q 544 659 544 1381 
z
M 1991 3584 
L 1991 3584 
z
" transform="scale(0.015625)"/>
       <path id="DejaVuSans-63" d="M 3122 3366 
L 3122 2828 
Q 2878 2963 2633 3030 
Q 2388 3097 2138 3097 
Q 1578 3097 1268 2742 
Q 959 2388 959 1747 
Q 959 1106 1268 751 
Q 1578 397 2138 397 
Q 2388 397 2633 464 
Q 2878 531 3122 666 
L 3122 134 
Q 2881 22 2623 -34 
Q 2366 -91 2075 -91 
Q 1284 -91 818 406 
Q 353 903 353 1747 
Q 353 2603 823 3093 
Q 1294 3584 2113 3584 
Q 2378 3584 2631 3529 
Q 2884 3475 3122 3366 
z
" transform="scale(0.015625)"/>
      </defs>
      <use xlink:href="#DejaVuSans-73"/>
      <use xlink:href="#DejaVuSans-74" x="52.099609"/>
      <use xlink:href="#DejaVuSans-72" x="91.308594"/>
      <use xlink:href="#DejaVuSans-75" x="132.421875"/>
      <use xlink:href="#DejaVuSans-63" x="195.800781"/>
      <use xlink:href="#DejaVuSans-74" x="250.78125"/>
      <use xlink:href="#DejaVuSans-75" x="289.990234"/>
      <use xlink:href="#DejaVuSans-72" x="353.369141"/>
      <use xlink:href="#DejaVuSans-69" x="394.482422"/>
      <use xlink:href="#DejaVuSans-6e" x="422.265625"/>
      <use xlink:href="#DejaVuSans-67" x="485.644531"/>
     </g>
     <!-- element -->
     <g transform="translate(223.084673 53.274375)scale(0.1 -0.1)">
      <defs>
       <path id="DejaVuSans-6c" d="M 603 4863 
L 1178 4863 
L 1178 0 
L 603 0 
L 603 4863 
z
" transform="scale(0.015625)"/>
       <path id="DejaVuSans-6d" d="M 3328 2828 
Q 3544 3216 3844 3400 
Q 4144 3584 4550 3584 
Q 5097 3584 5394 3201 
Q 5691 2819 5691 2113 
L 5691 0 
L 5113 0 
L 5113 2094 
Q 5113 2597 4934 2840 
Q 4756 3084 4391 3084 
Q 3944 3084 3684 2787 
Q 3425 2491 3425 1978 
L 3425 0 
L 2847 0 
L 2847 2094 
Q 2847 2600 2669 2842 
Q 2491 3084 2119 3084 
Q 1678 3084 1418 2786 
Q 1159 2488 1159 1978 
L 1159 0 
L 581 0 
L 581 3500 
L 1159 3500 
L 1159 2956 
Q 1356 3278 1631 3431 
Q 1906 3584 2284 3584 
Q 2666 3584 2933 3390 
Q 3200 3197 3328 2828 
z
" transform="scale(0.015625)"/>
      </defs>
      <use xlink:href="#DejaVuSans-65"/>
      <use xlink:href="#DejaVuSans-6c" x="61.523438"/>
      <use xlink:href="#DejaVuSans-65" x="89.306641"/>
      <use xlink:href="#DejaVuSans-6d" x="150.830078"/>
      <use xlink:href="#DejaVuSans-65" x="248.242188"/>
      <use xlink:href="#DejaVuSans-6e" x="309.765625"/>
      <use xlink:href="#DejaVuSans-74" x="373.144531"/>
     </g>
    </g>
    <g id="PathCollection_2">
     <g>
      <use xlink:href="#mff5ded2999" x="205.084673" y="65.3275" style="fill: #ff0000; stroke: #ff0000; stroke-width: 1.5"/>
     </g>
    </g>
    <g id="text_3">
     <!-- $0$ -->
     <g transform="translate(223.084673 67.9525)scale(0.1 -0.1)">
      <defs>
       <path id="DejaVuSans-30" d="M 2034 4250 
Q 1547 4250 1301 3770 
Q 1056 3291 1056 2328 
Q 1056 1369 1301 889 
Q 1547 409 2034 409 
Q 2525 409 2770 889 
Q 3016 1369 3016 2328 
Q 3016 3291 2770 3770 
Q 2525 4250 2034 4250 
z
M 2034 4750 
Q 2819 4750 3233 4129 
Q 3647 3509 3647 2328 
Q 3647 1150 3233 529 
Q 2819 -91 2034 -91 
Q 1250 -91 836 529 
Q 422 1150 422 2328 
Q 422 3509 836 4129 
Q 1250 4750 2034 4750 
z
" transform="scale(0.015625)"/>
      </defs>
      <use xlink:href="#DejaVuSans-30" transform="translate(0 0.78125)"/>
     </g>
    </g>
   </g>
  </g>
 </g>
 <defs>
  <clipPath id="p8dc5854361">
   <rect x="37.005952" y="10.8" width="249.988095" height="190.9"/>
  </clipPath>
 </defs>
</svg>
