<?xml version="1.0" encoding="utf-8" standalone="no"?>
<!DOCTYPE svg PUBLIC "-//W3C//DTD SVG 1.1//EN"
  "http://www.w3.org/Graphics/SVG/1.1/DTD/svg11.dtd">
<svg xmlns:xlink="http://www.w3.org/1999/xlink" width="600pt" height="300pt" viewBox="0 0 600 300" xmlns="http://www.w3.org/2000/svg" version="1.1">
 <metadata>
  <rdf:RDF xmlns:dc="http://purl.org/dc/elements/1.1/" xmlns:cc="http://creativecommons.org/ns#" xmlns:rdf="http://www.w3.org/1999/02/22-rdf-syntax-ns#">
   <cc:Work>
    <dc:type rdf:resource="http://purl.org/dc/dcmitype/StillImage"/>
    <dc:date>2023-11-12T23:39:05.129855</dc:date>
    <dc:format>image/svg+xml</dc:format>
    <dc:creator>
     <cc:Agent>
      <dc:title>Matplotlib v3.5.3, https://matplotlib.org/</dc:title>
     </cc:Agent>
    </dc:creator>
   </cc:Work>
  </rdf:RDF>
 </metadata>
 <defs>
  <style type="text/css">*{stroke-linejoin: round; stroke-linecap: butt}</style>
 </defs>
 <g id="figure_1">
  <g id="patch_1">
   <path d="M 0 300 
L 600 300 
L 600 0 
L 0 0 
z
" style="fill: #ffffff"/>
  </g>
  <g id="axes_1">
   <g id="patch_2">
    <path d="M 75 243 
L 470.25 243 
L 470.25 12 
L 75 12 
z
" style="fill: #ffffff"/>
   </g>
   <g id="PathCollection_1">
    <defs>
     <path id="m134bd833ee" d="M -3 3 
L 3 -3 
M -3 -3 
L 3 3 
" style="stroke: #ff0029; stroke-width: 1.5"/>
    </defs>
    <g clip-path="url(#p097ea236b5)">
     <use xlink:href="#m134bd833ee" x="233.1" y="168.75" style="fill: #ff0029; stroke: #ff0029; stroke-width: 1.5"/>
     <use xlink:href="#m134bd833ee" x="391.2" y="168.75" style="fill: #ff0029; stroke: #ff0029; stroke-width: 1.5"/>
     <use xlink:href="#m134bd833ee" x="312.15" y="69.75" style="fill: #ff0029; stroke: #ff0029; stroke-width: 1.5"/>
    </g>
   </g>
   <g id="PathCollection_2">
    <defs>
     <path id="md4168475a8" d="M -3 3 
L 3 -3 
M -3 -3 
L 3 3 
" style="stroke: #ff5300; stroke-width: 1.5"/>
    </defs>
    <g clip-path="url(#p097ea236b5)">
     <use xlink:href="#md4168475a8" x="154.05" y="201.75" style="fill: #ff5300; stroke: #ff5300; stroke-width: 1.5"/>
     <use xlink:href="#md4168475a8" x="114.525" y="86.25" style="fill: #ff5300; stroke: #ff5300; stroke-width: 1.5"/>
     <use xlink:href="#md4168475a8" x="193.575" y="86.25" style="fill: #ff5300; stroke: #ff5300; stroke-width: 1.5"/>
     <use xlink:href="#md4168475a8" x="272.625" y="86.25" style="fill: #ff5300; stroke: #ff5300; stroke-width: 1.5"/>
     <use xlink:href="#md4168475a8" x="351.675" y="86.25" style="fill: #ff5300; stroke: #ff5300; stroke-width: 1.5"/>
    </g>
   </g>
   <g id="PathCollection_3">
    <defs>
     <path id="m171cd5ec63" d="M -3 3 
L 3 -3 
M -3 -3 
L 3 3 
" style="stroke: #ffcf00; stroke-width: 1.5"/>
    </defs>
    <g clip-path="url(#p097ea236b5)">
     <use xlink:href="#m171cd5ec63" x="114.525" y="119.25" style="fill: #ffcf00; stroke: #ffcf00; stroke-width: 1.5"/>
     <use xlink:href="#m171cd5ec63" x="193.575" y="119.25" style="fill: #ffcf00; stroke: #ffcf00; stroke-width: 1.5"/>
     <use xlink:href="#m171cd5ec63" x="272.625" y="119.25" style="fill: #ffcf00; stroke: #ffcf00; stroke-width: 1.5"/>
     <use xlink:href="#m171cd5ec63" x="351.675" y="119.25" style="fill: #ffcf00; stroke: #ffcf00; stroke-width: 1.5"/>
     <use xlink:href="#m171cd5ec63" x="154.05" y="36.75" style="fill: #ffcf00; stroke: #ffcf00; stroke-width: 1.5"/>
    </g>
   </g>
   <g id="PathCollection_4">
    <defs>
     <path id="mf20495015e" d="M -3 3 
L 3 -3 
M -3 -3 
L 3 3 
" style="stroke: #b2ff00; stroke-width: 1.5"/>
    </defs>
    <g clip-path="url(#p097ea236b5)">
     <use xlink:href="#mf20495015e" x="233.1" y="135.75" style="fill: #b2ff00; stroke: #b2ff00; stroke-width: 1.5"/>
     <use xlink:href="#mf20495015e" x="391.2" y="135.75" style="fill: #b2ff00; stroke: #b2ff00; stroke-width: 1.5"/>
    </g>
   </g>
   <g id="PathCollection_5">
    <defs>
     <path id="m0624e8772a" d="M -3 3 
L 3 -3 
M -3 -3 
L 3 3 
" style="stroke: #31ff00; stroke-width: 1.5"/>
    </defs>
    <g clip-path="url(#p097ea236b5)">
     <use xlink:href="#m0624e8772a" x="312.15" y="152.25" style="fill: #31ff00; stroke: #31ff00; stroke-width: 1.5"/>
     <use xlink:href="#m0624e8772a" x="233.1" y="53.25" style="fill: #31ff00; stroke: #31ff00; stroke-width: 1.5"/>
     <use xlink:href="#m0624e8772a" x="391.2" y="53.25" style="fill: #31ff00; stroke: #31ff00; stroke-width: 1.5"/>
    </g>
   </g>
   <g id="PathCollection_6">
    <defs>
     <path id="m00f0ff4c76" d="M -3 3 
L 3 -3 
M -3 -3 
L 3 3 
" style="stroke: #00ff4b; stroke-width: 1.5"/>
    </defs>
    <g clip-path="url(#p097ea236b5)">
     <use xlink:href="#m00f0ff4c76" x="114.525" y="168.75" style="fill: #00ff4b; stroke: #00ff4b; stroke-width: 1.5"/>
     <use xlink:href="#m00f0ff4c76" x="193.575" y="168.75" style="fill: #00ff4b; stroke: #00ff4b; stroke-width: 1.5"/>
     <use xlink:href="#m00f0ff4c76" x="272.625" y="168.75" style="fill: #00ff4b; stroke: #00ff4b; stroke-width: 1.5"/>
     <use xlink:href="#m00f0ff4c76" x="351.675" y="168.75" style="fill: #00ff4b; stroke: #00ff4b; stroke-width: 1.5"/>
     <use xlink:href="#m00f0ff4c76" x="154.05" y="86.25" style="fill: #00ff4b; stroke: #00ff4b; stroke-width: 1.5"/>
    </g>
   </g>
   <g id="PathCollection_7">
    <defs>
     <path id="ma3b5e3d7f0" d="M -3 3 
L 3 -3 
M -3 -3 
L 3 3 
" style="stroke: #00ffc7; stroke-width: 1.5"/>
    </defs>
    <g clip-path="url(#p097ea236b5)">
     <use xlink:href="#ma3b5e3d7f0" x="312.15" y="185.25" style="fill: #00ffc7; stroke: #00ffc7; stroke-width: 1.5"/>
     <use xlink:href="#ma3b5e3d7f0" x="233.1" y="86.25" style="fill: #00ffc7; stroke: #00ffc7; stroke-width: 1.5"/>
     <use xlink:href="#ma3b5e3d7f0" x="391.2" y="86.25" style="fill: #00ffc7; stroke: #00ffc7; stroke-width: 1.5"/>
    </g>
   </g>
   <g id="PathCollection_8">
    <defs>
     <path id="m1a65d6e90b" d="M -3 3 
L 3 -3 
M -3 -3 
L 3 3 
" style="stroke: #00bbff; stroke-width: 1.5"/>
    </defs>
    <g clip-path="url(#p097ea236b5)">
     <use xlink:href="#m1a65d6e90b" x="154.05" y="152.25" style="fill: #00bbff; stroke: #00bbff; stroke-width: 1.5"/>
     <use xlink:href="#m1a65d6e90b" x="114.525" y="36.75" style="fill: #00bbff; stroke: #00bbff; stroke-width: 1.5"/>
     <use xlink:href="#m1a65d6e90b" x="193.575" y="36.75" style="fill: #00bbff; stroke: #00bbff; stroke-width: 1.5"/>
     <use xlink:href="#m1a65d6e90b" x="272.625" y="36.75" style="fill: #00bbff; stroke: #00bbff; stroke-width: 1.5"/>
     <use xlink:href="#m1a65d6e90b" x="351.675" y="36.75" style="fill: #00bbff; stroke: #00bbff; stroke-width: 1.5"/>
    </g>
   </g>
   <g id="PathCollection_9">
    <defs>
     <path id="m3284f6ec9d" d="M -3 3 
L 3 -3 
M -3 -3 
L 3 3 
" style="stroke: #0038ff; stroke-width: 1.5"/>
    </defs>
    <g clip-path="url(#p097ea236b5)">
     <use xlink:href="#m3284f6ec9d" x="312.15" y="201.75" style="fill: #0038ff; stroke: #0038ff; stroke-width: 1.5"/>
     <use xlink:href="#m3284f6ec9d" x="233.1" y="102.75" style="fill: #0038ff; stroke: #0038ff; stroke-width: 1.5"/>
     <use xlink:href="#m3284f6ec9d" x="391.2" y="102.75" style="fill: #0038ff; stroke: #0038ff; stroke-width: 1.5"/>
    </g>
   </g>
   <g id="PathCollection_10">
    <defs>
     <path id="m0448419ef7" d="M -3 3 
L 3 -3 
M -3 -3 
L 3 3 
" style="stroke: #4500ff; stroke-width: 1.5"/>
    </defs>
    <g clip-path="url(#p097ea236b5)">
     <use xlink:href="#m0448419ef7" x="233.1" y="86.25" style="fill: #4500ff; stroke: #4500ff; stroke-width: 1.5"/>
     <use xlink:href="#m0448419ef7" x="391.2" y="86.25" style="fill: #4500ff; stroke: #4500ff; stroke-width: 1.5"/>
    </g>
   </g>
   <g id="PathCollection_11">
    <defs>
     <path id="m25d24c920c" d="M -3 3 
L 3 -3 
M -3 -3 
L 3 3 
" style="stroke: #c200ff; stroke-width: 1.5"/>
    </defs>
    <g clip-path="url(#p097ea236b5)">
     <use xlink:href="#m25d24c920c" x="233.1" y="185.25" style="fill: #c200ff; stroke: #c200ff; stroke-width: 1.5"/>
     <use xlink:href="#m25d24c920c" x="391.2" y="185.25" style="fill: #c200ff; stroke: #c200ff; stroke-width: 1.5"/>
     <use xlink:href="#m25d24c920c" x="312.15" y="86.25" style="fill: #c200ff; stroke: #c200ff; stroke-width: 1.5"/>
    </g>
   </g>
   <g id="matplotlib.axis_1">
    <g id="xtick_1">
     <g id="line2d_1">
      <defs>
       <path id="m1a4edf490d" d="M 0 0 
L 0 3.5 
" style="stroke: #000000; stroke-width: 0.8"/>
      </defs>
      <g>
       <use xlink:href="#m1a4edf490d" x="114.525" y="243" style="stroke: #000000; stroke-width: 0.8"/>
      </g>
     </g>
     <g id="text_1">
      <!-- 53 -->
      <g transform="translate(108.1625 257.598437)scale(0.1 -0.1)">
       <defs>
        <path id="DejaVuSans-35" d="M 691 4666 
L 3169 4666 
L 3169 4134 
L 1269 4134 
L 1269 2991 
Q 1406 3038 1543 3061 
Q 1681 3084 1819 3084 
Q 2600 3084 3056 2656 
Q 3513 2228 3513 1497 
Q 3513 744 3044 326 
Q 2575 -91 1722 -91 
Q 1428 -91 1123 -41 
Q 819 9 494 109 
L 494 744 
Q 775 591 1075 516 
Q 1375 441 1709 441 
Q 2250 441 2565 725 
Q 2881 1009 2881 1497 
Q 2881 1984 2565 2268 
Q 2250 2553 1709 2553 
Q 1456 2553 1204 2497 
Q 953 2441 691 2322 
L 691 4666 
z
" transform="scale(0.015625)"/>
        <path id="DejaVuSans-33" d="M 2597 2516 
Q 3050 2419 3304 2112 
Q 3559 1806 3559 1356 
Q 3559 666 3084 287 
Q 2609 -91 1734 -91 
Q 1441 -91 1130 -33 
Q 819 25 488 141 
L 488 750 
Q 750 597 1062 519 
Q 1375 441 1716 441 
Q 2309 441 2620 675 
Q 2931 909 2931 1356 
Q 2931 1769 2642 2001 
Q 2353 2234 1838 2234 
L 1294 2234 
L 1294 2753 
L 1863 2753 
Q 2328 2753 2575 2939 
Q 2822 3125 2822 3475 
Q 2822 3834 2567 4026 
Q 2313 4219 1838 4219 
Q 1578 4219 1281 4162 
Q 984 4106 628 3988 
L 628 4550 
Q 988 4650 1302 4700 
Q 1616 4750 1894 4750 
Q 2613 4750 3031 4423 
Q 3450 4097 3450 3541 
Q 3450 3153 3228 2886 
Q 3006 2619 2597 2516 
z
" transform="scale(0.015625)"/>
       </defs>
       <use xlink:href="#DejaVuSans-35"/>
       <use xlink:href="#DejaVuSans-33" x="63.623047"/>
      </g>
     </g>
    </g>
    <g id="xtick_2">
     <g id="line2d_2">
      <g>
       <use xlink:href="#m1a4edf490d" x="193.575" y="243" style="stroke: #000000; stroke-width: 0.8"/>
      </g>
     </g>
     <g id="text_2">
      <!-- 54 -->
      <g transform="translate(187.2125 257.598437)scale(0.1 -0.1)">
       <defs>
        <path id="DejaVuSans-34" d="M 2419 4116 
L 825 1625 
L 2419 1625 
L 2419 4116 
z
M 2253 4666 
L 3047 4666 
L 3047 1625 
L 3713 1625 
L 3713 1100 
L 3047 1100 
L 3047 0 
L 2419 0 
L 2419 1100 
L 313 1100 
L 313 1709 
L 2253 4666 
z
" transform="scale(0.015625)"/>
       </defs>
       <use xlink:href="#DejaVuSans-35"/>
       <use xlink:href="#DejaVuSans-34" x="63.623047"/>
      </g>
     </g>
    </g>
    <g id="xtick_3">
     <g id="line2d_3">
      <g>
       <use xlink:href="#m1a4edf490d" x="272.625" y="243" style="stroke: #000000; stroke-width: 0.8"/>
      </g>
     </g>
     <g id="text_3">
      <!-- 55 -->
      <g transform="translate(266.2625 257.598437)scale(0.1 -0.1)">
       <use xlink:href="#DejaVuSans-35"/>
       <use xlink:href="#DejaVuSans-35" x="63.623047"/>
      </g>
     </g>
    </g>
    <g id="xtick_4">
     <g id="line2d_4">
      <g>
       <use xlink:href="#m1a4edf490d" x="351.675" y="243" style="stroke: #000000; stroke-width: 0.8"/>
      </g>
     </g>
     <g id="text_4">
      <!-- 56 -->
      <g transform="translate(345.3125 257.598437)scale(0.1 -0.1)">
       <defs>
        <path id="DejaVuSans-36" d="M 2113 2584 
Q 1688 2584 1439 2293 
Q 1191 2003 1191 1497 
Q 1191 994 1439 701 
Q 1688 409 2113 409 
Q 2538 409 2786 701 
Q 3034 994 3034 1497 
Q 3034 2003 2786 2293 
Q 2538 2584 2113 2584 
z
M 3366 4563 
L 3366 3988 
Q 3128 4100 2886 4159 
Q 2644 4219 2406 4219 
Q 1781 4219 1451 3797 
Q 1122 3375 1075 2522 
Q 1259 2794 1537 2939 
Q 1816 3084 2150 3084 
Q 2853 3084 3261 2657 
Q 3669 2231 3669 1497 
Q 3669 778 3244 343 
Q 2819 -91 2113 -91 
Q 1303 -91 875 529 
Q 447 1150 447 2328 
Q 447 3434 972 4092 
Q 1497 4750 2381 4750 
Q 2619 4750 2861 4703 
Q 3103 4656 3366 4563 
z
" transform="scale(0.015625)"/>
       </defs>
       <use xlink:href="#DejaVuSans-35"/>
       <use xlink:href="#DejaVuSans-36" x="63.623047"/>
      </g>
     </g>
    </g>
    <g id="xtick_5">
     <g id="line2d_5">
      <g>
       <use xlink:href="#m1a4edf490d" x="430.725" y="243" style="stroke: #000000; stroke-width: 0.8"/>
      </g>
     </g>
     <g id="text_5">
      <!-- 57 -->
      <g transform="translate(424.3625 257.598437)scale(0.1 -0.1)">
       <defs>
        <path id="DejaVuSans-37" d="M 525 4666 
L 3525 4666 
L 3525 4397 
L 1831 0 
L 1172 0 
L 2766 4134 
L 525 4134 
L 525 4666 
z
" transform="scale(0.015625)"/>
       </defs>
       <use xlink:href="#DejaVuSans-35"/>
       <use xlink:href="#DejaVuSans-37" x="63.623047"/>
      </g>
     </g>
    </g>
    <g id="text_6">
     <!-- Temps (mesure) -->
     <g transform="translate(232.464844 271.276563)scale(0.1 -0.1)">
      <defs>
       <path id="DejaVuSans-54" d="M -19 4666 
L 3928 4666 
L 3928 4134 
L 2272 4134 
L 2272 0 
L 1638 0 
L 1638 4134 
L -19 4134 
L -19 4666 
z
" transform="scale(0.015625)"/>
       <path id="DejaVuSans-65" d="M 3597 1894 
L 3597 1613 
L 953 1613 
Q 991 1019 1311 708 
Q 1631 397 2203 397 
Q 2534 397 2845 478 
Q 3156 559 3463 722 
L 3463 178 
Q 3153 47 2828 -22 
Q 2503 -91 2169 -91 
Q 1331 -91 842 396 
Q 353 884 353 1716 
Q 353 2575 817 3079 
Q 1281 3584 2069 3584 
Q 2775 3584 3186 3129 
Q 3597 2675 3597 1894 
z
M 3022 2063 
Q 3016 2534 2758 2815 
Q 2500 3097 2075 3097 
Q 1594 3097 1305 2825 
Q 1016 2553 972 2059 
L 3022 2063 
z
" transform="scale(0.015625)"/>
       <path id="DejaVuSans-6d" d="M 3328 2828 
Q 3544 3216 3844 3400 
Q 4144 3584 4550 3584 
Q 5097 3584 5394 3201 
Q 5691 2819 5691 2113 
L 5691 0 
L 5113 0 
L 5113 2094 
Q 5113 2597 4934 2840 
Q 4756 3084 4391 3084 
Q 3944 3084 3684 2787 
Q 3425 2491 3425 1978 
L 3425 0 
L 2847 0 
L 2847 2094 
Q 2847 2600 2669 2842 
Q 2491 3084 2119 3084 
Q 1678 3084 1418 2786 
Q 1159 2488 1159 1978 
L 1159 0 
L 581 0 
L 581 3500 
L 1159 3500 
L 1159 2956 
Q 1356 3278 1631 3431 
Q 1906 3584 2284 3584 
Q 2666 3584 2933 3390 
Q 3200 3197 3328 2828 
z
" transform="scale(0.015625)"/>
       <path id="DejaVuSans-70" d="M 1159 525 
L 1159 -1331 
L 581 -1331 
L 581 3500 
L 1159 3500 
L 1159 2969 
Q 1341 3281 1617 3432 
Q 1894 3584 2278 3584 
Q 2916 3584 3314 3078 
Q 3713 2572 3713 1747 
Q 3713 922 3314 415 
Q 2916 -91 2278 -91 
Q 1894 -91 1617 61 
Q 1341 213 1159 525 
z
M 3116 1747 
Q 3116 2381 2855 2742 
Q 2594 3103 2138 3103 
Q 1681 3103 1420 2742 
Q 1159 2381 1159 1747 
Q 1159 1113 1420 752 
Q 1681 391 2138 391 
Q 2594 391 2855 752 
Q 3116 1113 3116 1747 
z
" transform="scale(0.015625)"/>
       <path id="DejaVuSans-73" d="M 2834 3397 
L 2834 2853 
Q 2591 2978 2328 3040 
Q 2066 3103 1784 3103 
Q 1356 3103 1142 2972 
Q 928 2841 928 2578 
Q 928 2378 1081 2264 
Q 1234 2150 1697 2047 
L 1894 2003 
Q 2506 1872 2764 1633 
Q 3022 1394 3022 966 
Q 3022 478 2636 193 
Q 2250 -91 1575 -91 
Q 1294 -91 989 -36 
Q 684 19 347 128 
L 347 722 
Q 666 556 975 473 
Q 1284 391 1588 391 
Q 1994 391 2212 530 
Q 2431 669 2431 922 
Q 2431 1156 2273 1281 
Q 2116 1406 1581 1522 
L 1381 1569 
Q 847 1681 609 1914 
Q 372 2147 372 2553 
Q 372 3047 722 3315 
Q 1072 3584 1716 3584 
Q 2034 3584 2315 3537 
Q 2597 3491 2834 3397 
z
" transform="scale(0.015625)"/>
       <path id="DejaVuSans-20" transform="scale(0.015625)"/>
       <path id="DejaVuSans-28" d="M 1984 4856 
Q 1566 4138 1362 3434 
Q 1159 2731 1159 2009 
Q 1159 1288 1364 580 
Q 1569 -128 1984 -844 
L 1484 -844 
Q 1016 -109 783 600 
Q 550 1309 550 2009 
Q 550 2706 781 3412 
Q 1013 4119 1484 4856 
L 1984 4856 
z
" transform="scale(0.015625)"/>
       <path id="DejaVuSans-75" d="M 544 1381 
L 544 3500 
L 1119 3500 
L 1119 1403 
Q 1119 906 1312 657 
Q 1506 409 1894 409 
Q 2359 409 2629 706 
Q 2900 1003 2900 1516 
L 2900 3500 
L 3475 3500 
L 3475 0 
L 2900 0 
L 2900 538 
Q 2691 219 2414 64 
Q 2138 -91 1772 -91 
Q 1169 -91 856 284 
Q 544 659 544 1381 
z
M 1991 3584 
L 1991 3584 
z
" transform="scale(0.015625)"/>
       <path id="DejaVuSans-72" d="M 2631 2963 
Q 2534 3019 2420 3045 
Q 2306 3072 2169 3072 
Q 1681 3072 1420 2755 
Q 1159 2438 1159 1844 
L 1159 0 
L 581 0 
L 581 3500 
L 1159 3500 
L 1159 2956 
Q 1341 3275 1631 3429 
Q 1922 3584 2338 3584 
Q 2397 3584 2469 3576 
Q 2541 3569 2628 3553 
L 2631 2963 
z
" transform="scale(0.015625)"/>
       <path id="DejaVuSans-29" d="M 513 4856 
L 1013 4856 
Q 1481 4119 1714 3412 
Q 1947 2706 1947 2009 
Q 1947 1309 1714 600 
Q 1481 -109 1013 -844 
L 513 -844 
Q 928 -128 1133 580 
Q 1338 1288 1338 2009 
Q 1338 2731 1133 3434 
Q 928 4138 513 4856 
z
" transform="scale(0.015625)"/>
      </defs>
      <use xlink:href="#DejaVuSans-54"/>
      <use xlink:href="#DejaVuSans-65" x="44.083984"/>
      <use xlink:href="#DejaVuSans-6d" x="105.607422"/>
      <use xlink:href="#DejaVuSans-70" x="203.019531"/>
      <use xlink:href="#DejaVuSans-73" x="266.496094"/>
      <use xlink:href="#DejaVuSans-20" x="318.595703"/>
      <use xlink:href="#DejaVuSans-28" x="350.382812"/>
      <use xlink:href="#DejaVuSans-6d" x="389.396484"/>
      <use xlink:href="#DejaVuSans-65" x="486.808594"/>
      <use xlink:href="#DejaVuSans-73" x="548.332031"/>
      <use xlink:href="#DejaVuSans-75" x="600.431641"/>
      <use xlink:href="#DejaVuSans-72" x="663.810547"/>
      <use xlink:href="#DejaVuSans-65" x="702.673828"/>
      <use xlink:href="#DejaVuSans-29" x="764.197266"/>
     </g>
    </g>
   </g>
   <g id="matplotlib.axis_2">
    <g id="ytick_1">
     <g id="line2d_6">
      <defs>
       <path id="med6574427a" d="M 0 0 
L -3.5 0 
" style="stroke: #000000; stroke-width: 0.8"/>
      </defs>
      <g>
       <use xlink:href="#med6574427a" x="75" y="218.25" style="stroke: #000000; stroke-width: 0.8"/>
      </g>
     </g>
     <g id="text_7">
      <!-- C -->
      <g transform="translate(61.017187 222.049219)scale(0.1 -0.1)">
       <defs>
        <path id="DejaVuSans-43" d="M 4122 4306 
L 4122 3641 
Q 3803 3938 3442 4084 
Q 3081 4231 2675 4231 
Q 1875 4231 1450 3742 
Q 1025 3253 1025 2328 
Q 1025 1406 1450 917 
Q 1875 428 2675 428 
Q 3081 428 3442 575 
Q 3803 722 4122 1019 
L 4122 359 
Q 3791 134 3420 21 
Q 3050 -91 2638 -91 
Q 1578 -91 968 557 
Q 359 1206 359 2328 
Q 359 3453 968 4101 
Q 1578 4750 2638 4750 
Q 3056 4750 3426 4639 
Q 3797 4528 4122 4306 
z
" transform="scale(0.015625)"/>
       </defs>
       <use xlink:href="#DejaVuSans-43"/>
      </g>
     </g>
    </g>
    <g id="ytick_2">
     <g id="line2d_7">
      <g>
       <use xlink:href="#med6574427a" x="75" y="185.25" style="stroke: #000000; stroke-width: 0.8"/>
      </g>
     </g>
     <g id="text_8">
      <!-- D -->
      <g transform="translate(60.3 189.049219)scale(0.1 -0.1)">
       <defs>
        <path id="DejaVuSans-44" d="M 1259 4147 
L 1259 519 
L 2022 519 
Q 2988 519 3436 956 
Q 3884 1394 3884 2338 
Q 3884 3275 3436 3711 
Q 2988 4147 2022 4147 
L 1259 4147 
z
M 628 4666 
L 1925 4666 
Q 3281 4666 3915 4102 
Q 4550 3538 4550 2338 
Q 4550 1131 3912 565 
Q 3275 0 1925 0 
L 628 0 
L 628 4666 
z
" transform="scale(0.015625)"/>
       </defs>
       <use xlink:href="#DejaVuSans-44"/>
      </g>
     </g>
    </g>
    <g id="ytick_3">
     <g id="line2d_8">
      <g>
       <use xlink:href="#med6574427a" x="75" y="152.25" style="stroke: #000000; stroke-width: 0.8"/>
      </g>
     </g>
     <g id="text_9">
      <!-- E -->
      <g transform="translate(61.68125 156.049219)scale(0.1 -0.1)">
       <defs>
        <path id="DejaVuSans-45" d="M 628 4666 
L 3578 4666 
L 3578 4134 
L 1259 4134 
L 1259 2753 
L 3481 2753 
L 3481 2222 
L 1259 2222 
L 1259 531 
L 3634 531 
L 3634 0 
L 628 0 
L 628 4666 
z
" transform="scale(0.015625)"/>
       </defs>
       <use xlink:href="#DejaVuSans-45"/>
      </g>
     </g>
    </g>
    <g id="ytick_4">
     <g id="line2d_9">
      <g>
       <use xlink:href="#med6574427a" x="75" y="119.25" style="stroke: #000000; stroke-width: 0.8"/>
      </g>
     </g>
     <g id="text_10">
      <!-- F♯ -->
      <g transform="translate(57.409375 123.049219)scale(0.1 -0.1)">
       <defs>
        <path id="DejaVuSans-46" d="M 628 4666 
L 3309 4666 
L 3309 4134 
L 1259 4134 
L 1259 2759 
L 3109 2759 
L 3109 2228 
L 1259 2228 
L 1259 0 
L 628 0 
L 628 4666 
z
" transform="scale(0.015625)"/>
        <path id="DejaVuSans-266f" d="M 2022 4678 
L 2166 4678 
L 2181 4663 
L 2181 3713 
L 2553 3900 
L 2563 3894 
L 2563 3453 
Q 2553 3431 2181 3244 
L 2181 2078 
L 2563 2250 
L 2563 1828 
Q 2559 1816 2181 1606 
L 2181 678 
L 2166 666 
L 2022 666 
L 2006 678 
L 2006 1531 
L 1106 1094 
L 1106 13 
L 1091 0 
L 959 0 
L 944 13 
L 944 1016 
L 541 828 
L 541 1272 
Q 541 1291 944 1478 
L 944 2663 
L 938 2663 
L 541 2488 
L 541 2922 
L 944 3125 
L 944 4022 
L 959 4034 
L 1091 4034 
L 1106 4022 
L 1106 3203 
L 2006 3622 
L 2006 4663 
L 2022 4678 
z
M 1106 2731 
L 1106 1553 
L 2006 1988 
L 2006 3150 
L 1106 2731 
z
" transform="scale(0.015625)"/>
       </defs>
       <use xlink:href="#DejaVuSans-46"/>
       <use xlink:href="#DejaVuSans-266f" x="57.519531"/>
      </g>
     </g>
    </g>
    <g id="ytick_5">
     <g id="line2d_10">
      <g>
       <use xlink:href="#med6574427a" x="75" y="86.25" style="stroke: #000000; stroke-width: 0.8"/>
      </g>
     </g>
     <g id="text_11">
      <!-- A♭ -->
      <g transform="translate(56.442188 90.049219)scale(0.1 -0.1)">
       <defs>
        <path id="DejaVuSans-41" d="M 2188 4044 
L 1331 1722 
L 3047 1722 
L 2188 4044 
z
M 1831 4666 
L 2547 4666 
L 4325 0 
L 3669 0 
L 3244 1197 
L 1141 1197 
L 716 0 
L 50 0 
L 1831 4666 
z
" transform="scale(0.015625)"/>
        <path id="DejaVuSans-266d" d="M 584 4678 
L 725 4678 
L 741 4659 
L 741 1656 
L 750 1656 
Q 1281 2397 1734 2397 
Q 2444 2388 2506 1584 
Q 2416 256 575 -19 
L 566 -9 
L 566 4659 
L 584 4678 
z
M 741 1322 
L 741 213 
Q 2047 522 2047 1475 
Q 2050 1516 2050 1553 
Q 2050 2016 1584 2041 
Q 1213 2041 741 1322 
z
" transform="scale(0.015625)"/>
       </defs>
       <use xlink:href="#DejaVuSans-41"/>
       <use xlink:href="#DejaVuSans-266d" x="68.408203"/>
      </g>
     </g>
    </g>
    <g id="ytick_6">
     <g id="line2d_11">
      <g>
       <use xlink:href="#med6574427a" x="75" y="53.25" style="stroke: #000000; stroke-width: 0.8"/>
      </g>
     </g>
     <g id="text_12">
      <!-- B♭ -->
      <g transform="translate(56.421875 57.049219)scale(0.1 -0.1)">
       <defs>
        <path id="DejaVuSans-42" d="M 1259 2228 
L 1259 519 
L 2272 519 
Q 2781 519 3026 730 
Q 3272 941 3272 1375 
Q 3272 1813 3026 2020 
Q 2781 2228 2272 2228 
L 1259 2228 
z
M 1259 4147 
L 1259 2741 
L 2194 2741 
Q 2656 2741 2882 2914 
Q 3109 3088 3109 3444 
Q 3109 3797 2882 3972 
Q 2656 4147 2194 4147 
L 1259 4147 
z
M 628 4666 
L 2241 4666 
Q 2963 4666 3353 4366 
Q 3744 4066 3744 3513 
Q 3744 3084 3544 2831 
Q 3344 2578 2956 2516 
Q 3422 2416 3680 2098 
Q 3938 1781 3938 1306 
Q 3938 681 3513 340 
Q 3088 0 2303 0 
L 628 0 
L 628 4666 
z
" transform="scale(0.015625)"/>
       </defs>
       <use xlink:href="#DejaVuSans-42"/>
       <use xlink:href="#DejaVuSans-266d" x="68.603516"/>
      </g>
     </g>
    </g>
    <g id="ytick_7">
     <g id="line2d_12">
      <g>
       <use xlink:href="#med6574427a" x="75" y="20.25" style="stroke: #000000; stroke-width: 0.8"/>
      </g>
     </g>
     <g id="text_13">
      <!-- C -->
      <g transform="translate(61.017187 24.049219)scale(0.1 -0.1)">
       <use xlink:href="#DejaVuSans-43"/>
      </g>
     </g>
    </g>
    <g id="text_14">
     <!-- Chroma -->
     <g transform="translate(50.342187 147.096875)rotate(-90)scale(0.1 -0.1)">
      <defs>
       <path id="DejaVuSans-68" d="M 3513 2113 
L 3513 0 
L 2938 0 
L 2938 2094 
Q 2938 2591 2744 2837 
Q 2550 3084 2163 3084 
Q 1697 3084 1428 2787 
Q 1159 2491 1159 1978 
L 1159 0 
L 581 0 
L 581 4863 
L 1159 4863 
L 1159 2956 
Q 1366 3272 1645 3428 
Q 1925 3584 2291 3584 
Q 2894 3584 3203 3211 
Q 3513 2838 3513 2113 
z
" transform="scale(0.015625)"/>
       <path id="DejaVuSans-6f" d="M 1959 3097 
Q 1497 3097 1228 2736 
Q 959 2375 959 1747 
Q 959 1119 1226 758 
Q 1494 397 1959 397 
Q 2419 397 2687 759 
Q 2956 1122 2956 1747 
Q 2956 2369 2687 2733 
Q 2419 3097 1959 3097 
z
M 1959 3584 
Q 2709 3584 3137 3096 
Q 3566 2609 3566 1747 
Q 3566 888 3137 398 
Q 2709 -91 1959 -91 
Q 1206 -91 779 398 
Q 353 888 353 1747 
Q 353 2609 779 3096 
Q 1206 3584 1959 3584 
z
" transform="scale(0.015625)"/>
       <path id="DejaVuSans-61" d="M 2194 1759 
Q 1497 1759 1228 1600 
Q 959 1441 959 1056 
Q 959 750 1161 570 
Q 1363 391 1709 391 
Q 2188 391 2477 730 
Q 2766 1069 2766 1631 
L 2766 1759 
L 2194 1759 
z
M 3341 1997 
L 3341 0 
L 2766 0 
L 2766 531 
Q 2569 213 2275 61 
Q 1981 -91 1556 -91 
Q 1019 -91 701 211 
Q 384 513 384 1019 
Q 384 1609 779 1909 
Q 1175 2209 1959 2209 
L 2766 2209 
L 2766 2266 
Q 2766 2663 2505 2880 
Q 2244 3097 1772 3097 
Q 1472 3097 1187 3025 
Q 903 2953 641 2809 
L 641 3341 
Q 956 3463 1253 3523 
Q 1550 3584 1831 3584 
Q 2591 3584 2966 3190 
Q 3341 2797 3341 1997 
z
" transform="scale(0.015625)"/>
      </defs>
      <use xlink:href="#DejaVuSans-43"/>
      <use xlink:href="#DejaVuSans-68" x="69.824219"/>
      <use xlink:href="#DejaVuSans-72" x="133.203125"/>
      <use xlink:href="#DejaVuSans-6f" x="172.066406"/>
      <use xlink:href="#DejaVuSans-6d" x="233.248047"/>
      <use xlink:href="#DejaVuSans-61" x="330.660156"/>
     </g>
    </g>
   </g>
   <g id="patch_3">
    <path d="M 75 243 
L 75 12 
" style="fill: none; stroke: #000000; stroke-width: 0.8; stroke-linejoin: miter; stroke-linecap: square"/>
   </g>
   <g id="patch_4">
    <path d="M 470.25 243 
L 470.25 12 
" style="fill: none; stroke: #000000; stroke-width: 0.8; stroke-linejoin: miter; stroke-linecap: square"/>
   </g>
   <g id="patch_5">
    <path d="M 75 243 
L 470.25 243 
" style="fill: none; stroke: #000000; stroke-width: 0.8; stroke-linejoin: miter; stroke-linecap: square"/>
   </g>
   <g id="patch_6">
    <path d="M 75 12 
L 470.25 12 
" style="fill: none; stroke: #000000; stroke-width: 0.8; stroke-linejoin: miter; stroke-linecap: square"/>
   </g>
   <g id="legend_1">
    <g id="patch_7">
     <path d="M 477.25 184.729688 
L 518.725 184.729688 
Q 520.725 184.729688 520.725 182.729688 
L 520.725 72.270312 
Q 520.725 70.270312 518.725 70.270312 
L 477.25 70.270312 
Q 475.25 70.270312 475.25 72.270312 
L 475.25 182.729688 
Q 475.25 184.729688 477.25 184.729688 
z
" style="fill: #ffffff; opacity: 0.8; stroke: #cccccc; stroke-linejoin: miter"/>
    </g>
    <g id="PathCollection_12">
     <g>
      <use xlink:href="#m134bd833ee" x="489.25" y="79.24375" style="fill: #ff0029; stroke: #ff0029; stroke-width: 1.5"/>
     </g>
    </g>
    <g id="text_15">
     <!-- I -->
     <g transform="translate(500.25 81.86875)scale(0.1 -0.1)">
      <defs>
       <path id="DejaVuSans-49" d="M 628 4666 
L 1259 4666 
L 1259 0 
L 628 0 
L 628 4666 
z
" transform="scale(0.015625)"/>
      </defs>
      <use xlink:href="#DejaVuSans-49"/>
     </g>
    </g>
    <g id="PathCollection_13">
     <g>
      <use xlink:href="#md4168475a8" x="489.25" y="88.921875" style="fill: #ff5300; stroke: #ff5300; stroke-width: 1.5"/>
     </g>
    </g>
    <g id="text_16">
     <!-- i -->
     <g transform="translate(500.25 91.546875)scale(0.1 -0.1)">
      <defs>
       <path id="DejaVuSans-69" d="M 603 3500 
L 1178 3500 
L 1178 0 
L 603 0 
L 603 3500 
z
M 603 4863 
L 1178 4863 
L 1178 4134 
L 603 4134 
L 603 4863 
z
" transform="scale(0.015625)"/>
      </defs>
      <use xlink:href="#DejaVuSans-69"/>
     </g>
    </g>
    <g id="PathCollection_14">
     <g>
      <use xlink:href="#m171cd5ec63" x="489.25" y="98.6" style="fill: #ffcf00; stroke: #ffcf00; stroke-width: 1.5"/>
     </g>
    </g>
    <g id="text_17">
     <!-- ii -->
     <g transform="translate(500.25 101.225)scale(0.1 -0.1)">
      <use xlink:href="#DejaVuSans-69"/>
      <use xlink:href="#DejaVuSans-69" x="27.783203"/>
     </g>
    </g>
    <g id="PathCollection_15">
     <g>
      <use xlink:href="#mf20495015e" x="489.25" y="108.278125" style="fill: #b2ff00; stroke: #b2ff00; stroke-width: 1.5"/>
     </g>
    </g>
    <g id="text_18">
     <!-- ii° -->
     <g transform="translate(500.25 110.903125)scale(0.1 -0.1)">
      <defs>
       <path id="DejaVuSans-b0" d="M 1600 4347 
Q 1350 4347 1178 4173 
Q 1006 4000 1006 3750 
Q 1006 3503 1178 3333 
Q 1350 3163 1600 3163 
Q 1850 3163 2022 3333 
Q 2194 3503 2194 3750 
Q 2194 3997 2020 4172 
Q 1847 4347 1600 4347 
z
M 1600 4750 
Q 1800 4750 1984 4673 
Q 2169 4597 2303 4453 
Q 2447 4313 2519 4134 
Q 2591 3956 2591 3750 
Q 2591 3338 2302 3052 
Q 2013 2766 1594 2766 
Q 1172 2766 890 3047 
Q 609 3328 609 3750 
Q 609 4169 896 4459 
Q 1184 4750 1600 4750 
z
" transform="scale(0.015625)"/>
      </defs>
      <use xlink:href="#DejaVuSans-69"/>
      <use xlink:href="#DejaVuSans-69" x="27.783203"/>
      <use xlink:href="#DejaVuSans-b0" x="55.566406"/>
     </g>
    </g>
    <g id="PathCollection_16">
     <g>
      <use xlink:href="#m0624e8772a" x="489.25" y="117.95625" style="fill: #31ff00; stroke: #31ff00; stroke-width: 1.5"/>
     </g>
    </g>
    <g id="text_19">
     <!-- IV -->
     <g transform="translate(500.25 120.58125)scale(0.1 -0.1)">
      <defs>
       <path id="DejaVuSans-56" d="M 1831 0 
L 50 4666 
L 709 4666 
L 2188 738 
L 3669 4666 
L 4325 4666 
L 2547 0 
L 1831 0 
z
" transform="scale(0.015625)"/>
      </defs>
      <use xlink:href="#DejaVuSans-49"/>
      <use xlink:href="#DejaVuSans-56" x="29.492188"/>
     </g>
    </g>
    <g id="PathCollection_17">
     <g>
      <use xlink:href="#m00f0ff4c76" x="489.25" y="127.634375" style="fill: #00ff4b; stroke: #00ff4b; stroke-width: 1.5"/>
     </g>
    </g>
    <g id="text_20">
     <!-- iv -->
     <g transform="translate(500.25 130.259375)scale(0.1 -0.1)">
      <defs>
       <path id="DejaVuSans-76" d="M 191 3500 
L 800 3500 
L 1894 563 
L 2988 3500 
L 3597 3500 
L 2284 0 
L 1503 0 
L 191 3500 
z
" transform="scale(0.015625)"/>
      </defs>
      <use xlink:href="#DejaVuSans-69"/>
      <use xlink:href="#DejaVuSans-76" x="27.783203"/>
     </g>
    </g>
    <g id="PathCollection_18">
     <g>
      <use xlink:href="#ma3b5e3d7f0" x="489.25" y="137.3125" style="fill: #00ffc7; stroke: #00ffc7; stroke-width: 1.5"/>
     </g>
    </g>
    <g id="text_21">
     <!-- V -->
     <g transform="translate(500.25 139.9375)scale(0.1 -0.1)">
      <use xlink:href="#DejaVuSans-56"/>
     </g>
    </g>
    <g id="PathCollection_19">
     <g>
      <use xlink:href="#m1a65d6e90b" x="489.25" y="146.990625" style="fill: #00bbff; stroke: #00bbff; stroke-width: 1.5"/>
     </g>
    </g>
    <g id="text_22">
     <!-- vi -->
     <g transform="translate(500.25 149.615625)scale(0.1 -0.1)">
      <use xlink:href="#DejaVuSans-76"/>
      <use xlink:href="#DejaVuSans-69" x="59.179688"/>
     </g>
    </g>
    <g id="PathCollection_20">
     <g>
      <use xlink:href="#m3284f6ec9d" x="489.25" y="156.66875" style="fill: #0038ff; stroke: #0038ff; stroke-width: 1.5"/>
     </g>
    </g>
    <g id="text_23">
     <!-- VI -->
     <g transform="translate(500.25 159.29375)scale(0.1 -0.1)">
      <use xlink:href="#DejaVuSans-56"/>
      <use xlink:href="#DejaVuSans-49" x="68.408203"/>
     </g>
    </g>
    <g id="PathCollection_21">
     <g>
      <use xlink:href="#m0448419ef7" x="489.25" y="166.346875" style="fill: #4500ff; stroke: #4500ff; stroke-width: 1.5"/>
     </g>
    </g>
    <g id="text_24">
     <!-- vii° -->
     <g transform="translate(500.25 168.971875)scale(0.1 -0.1)">
      <use xlink:href="#DejaVuSans-76"/>
      <use xlink:href="#DejaVuSans-69" x="59.179688"/>
      <use xlink:href="#DejaVuSans-69" x="86.962891"/>
      <use xlink:href="#DejaVuSans-b0" x="114.746094"/>
     </g>
    </g>
    <g id="PathCollection_22">
     <g>
      <use xlink:href="#m25d24c920c" x="489.25" y="176.025" style="fill: #c200ff; stroke: #c200ff; stroke-width: 1.5"/>
     </g>
    </g>
    <g id="text_25">
     <!-- N -->
     <g transform="translate(500.25 178.65)scale(0.1 -0.1)">
      <defs>
       <path id="DejaVuSans-4e" d="M 628 4666 
L 1478 4666 
L 3547 763 
L 3547 4666 
L 4159 4666 
L 4159 0 
L 3309 0 
L 1241 3903 
L 1241 0 
L 628 0 
L 628 4666 
z
" transform="scale(0.015625)"/>
      </defs>
      <use xlink:href="#DejaVuSans-4e"/>
     </g>
    </g>
   </g>
  </g>
 </g>
 <defs>
  <clipPath id="p097ea236b5">
   <rect x="75" y="12" width="395.25" height="231"/>
  </clipPath>
 </defs>
</svg>
